{"glyphs":{"0":{"ha":867,"x_min":66,"x_max":808,"o":"m 66 305 q 99 496 66 408 q 191 649 132 584 q 328 751 249 714 q 498 788 406 788 q 642 765 583 788 q 738 700 701 742 q 791 601 774 659 q 808 473 808 543 q 777 290 808 377 q 690 135 746 202 q 554 29 633 68 q 379 -11 475 -11 q 235 15 294 -11 q 138 83 176 40 q 83 183 100 126 q 66 305 66 241 m 394 64 q 466 76 434 61 q 524 120 498 92 q 566 188 549 149 q 595 272 584 227 q 612 365 607 317 q 618 459 618 413 q 610 563 618 516 q 586 643 602 610 q 543 695 569 677 q 479 714 517 714 q 401 696 435 715 q 342 646 367 677 q 301 574 317 615 q 274 489 284 533 q 260 399 264 444 q 256 316 256 355 q 264 220 256 265 q 289 140 272 174 q 331 85 305 105 q 394 64 357 64 z "},"1":{"ha":631,"x_min":58,"x_max":525,"o":"m 65 66 l 201 84 l 273 612 q 193 593 234 602 q 106 576 151 584 l 95 651 q 172 674 130 659 q 253 709 213 690 q 330 749 294 728 q 394 788 367 770 l 478 769 l 382 85 l 525 66 l 518 0 l 58 0 l 65 66 z "},"2":{"ha":847,"x_min":41,"x_max":782,"o":"m 41 73 q 162 143 102 106 q 275 218 221 180 q 373 297 328 257 q 451 376 418 336 q 503 454 484 416 q 521 530 521 493 q 513 586 521 560 q 490 631 506 612 q 451 661 475 650 q 393 672 427 672 q 323 662 357 672 q 258 636 290 652 q 200 600 227 621 q 151 558 172 580 l 108 632 q 162 685 130 658 q 237 736 195 713 q 330 773 279 759 q 441 788 382 788 q 569 768 517 788 q 654 715 621 747 q 701 642 686 682 q 715 560 715 601 q 696 469 715 513 q 645 381 677 424 q 567 299 612 339 q 470 223 522 259 q 362 154 418 186 q 249 94 305 121 l 614 121 l 698 239 l 782 212 l 714 0 l 58 0 l 41 73 z "},"3":{"ha":749,"x_min":15,"x_max":646,"o":"m 27 -125 q 51 -129 38 -127 q 76 -132 64 -131 q 100 -134 89 -133 q 121 -134 112 -134 q 254 -117 194 -134 q 356 -68 314 -100 q 422 7 399 -37 q 445 103 445 51 q 435 164 445 136 q 402 213 425 193 q 344 243 380 233 q 258 250 309 253 l 172 229 l 184 327 q 278 357 230 336 q 367 408 327 378 q 433 477 407 438 q 458 562 458 516 q 450 607 458 587 q 428 641 442 627 q 392 664 413 656 q 344 672 370 672 q 280 666 310 672 q 223 648 250 659 q 171 621 196 636 q 124 587 146 605 l 89 663 q 137 703 106 682 q 210 744 168 725 q 301 775 251 762 q 407 788 351 788 q 497 776 454 788 q 573 740 541 764 q 626 679 606 715 q 646 594 646 643 q 626 507 646 548 q 573 431 606 465 q 496 370 540 396 q 403 327 452 343 q 509 309 465 326 q 581 263 553 292 q 623 197 610 235 q 636 117 636 159 q 596 -30 636 35 q 488 -139 556 -94 q 330 -207 420 -183 q 138 -230 239 -230 q 75 -227 109 -230 q 15 -218 42 -223 l 27 -125 l 27 -125 z "},"4":{"ha":857,"x_min":1,"x_max":786,"o":"m 1 60 q 119 245 62 153 q 232 433 176 337 q 347 633 288 530 q 470 852 405 736 l 607 852 l 663 791 l 231 149 l 189 93 l 471 112 l 506 367 l 674 406 l 639 117 l 786 127 l 770 0 l 621 0 l 589 -254 l 423 -254 l 456 0 l 35 0 l 1 60 z "},"5":{"ha":757,"x_min":28,"x_max":713,"o":"m 41 -144 q 72 -149 54 -147 q 104 -151 89 -151 q 252 -129 186 -151 q 365 -68 318 -106 q 436 20 411 -30 q 462 123 462 69 q 416 255 462 210 q 279 300 371 300 q 196 289 235 300 q 121 264 158 279 l 83 292 l 203 777 l 567 777 l 582 788 l 713 788 l 675 648 l 336 648 l 261 380 q 323 393 285 387 q 408 399 362 399 q 510 382 464 399 q 590 333 557 366 q 642 254 623 301 q 660 148 660 208 q 640 37 660 89 q 584 -57 620 -14 q 499 -133 549 -100 q 391 -190 450 -167 q 266 -225 332 -213 q 131 -237 200 -237 q 106 -236 120 -237 q 77 -233 92 -235 q 49 -229 62 -231 q 28 -223 36 -226 l 41 -144 l 41 -144 z "},"6":{"ha":840,"x_min":78,"x_max":756,"o":"m 78 338 q 98 500 78 420 q 156 652 119 579 q 247 790 193 725 q 366 909 300 855 q 508 1002 431 962 q 669 1065 585 1042 l 697 991 q 564 925 626 967 q 450 830 501 884 q 360 713 398 776 q 299 583 321 650 q 336 614 314 599 q 386 641 358 629 q 447 661 414 653 q 519 668 481 668 q 626 647 581 668 q 700 592 671 627 q 742 510 728 557 q 756 411 756 463 q 743 306 756 357 q 707 207 730 254 q 649 119 683 159 q 571 49 614 79 q 477 3 528 20 q 368 -14 426 -14 q 246 10 300 -14 q 155 78 192 33 q 98 189 117 123 q 78 338 78 254 m 256 305 q 262 212 256 255 q 286 137 269 169 q 330 87 302 105 q 399 69 357 69 q 458 83 432 69 q 504 119 484 96 q 537 173 524 142 q 560 237 551 203 q 573 306 569 271 q 577 374 577 341 q 568 460 577 425 q 544 519 559 496 q 508 553 529 543 q 463 564 488 564 q 394 553 425 564 q 340 527 363 543 q 300 494 317 511 q 274 463 283 477 q 260 381 264 420 q 256 305 256 342 z "},"7":{"ha":743,"x_min":49,"x_max":739,"o":"m 573 674 l 240 663 l 173 523 l 49 526 l 102 777 l 717 777 l 739 748 l 328 -224 l 143 -169 l 573 674 z "},"8":{"ha":851,"x_min":76,"x_max":786,"o":"m 76 240 q 96 337 76 291 q 148 422 115 382 q 223 495 180 462 q 313 555 266 529 q 261 603 286 577 q 220 660 237 629 q 192 724 202 690 q 181 798 181 759 q 205 908 181 859 q 272 992 229 958 q 376 1045 315 1027 q 509 1064 436 1064 q 617 1049 566 1064 q 705 1005 668 1034 q 764 933 743 976 q 786 838 786 891 q 768 748 786 789 q 719 671 749 707 q 649 606 688 635 q 568 551 610 576 q 638 495 605 526 q 696 429 671 464 q 735 355 721 394 q 750 273 750 316 q 719 152 750 205 q 636 62 688 99 q 520 6 585 25 q 385 -14 454 -14 q 276 0 331 -14 q 177 44 221 14 q 104 123 132 75 q 76 240 76 171 m 488 610 q 544 648 518 626 q 590 699 570 671 q 621 763 610 728 q 632 838 632 798 q 621 908 632 879 q 590 955 609 937 q 547 982 572 973 q 498 990 523 990 q 439 979 466 990 q 392 946 412 968 q 360 894 372 925 q 349 822 349 863 q 359 762 349 791 q 387 707 369 734 q 431 657 406 681 q 488 610 457 633 m 241 253 q 252 183 241 217 q 282 123 262 150 q 331 81 302 97 q 399 65 361 65 q 467 77 435 65 q 523 112 499 89 q 562 167 547 134 q 576 241 576 199 q 562 312 576 278 q 523 378 548 347 q 463 440 498 410 q 388 499 429 470 q 330 456 357 481 q 284 400 304 431 q 253 331 264 368 q 241 253 242 294 z "},"9":{"ha":846,"x_min":77,"x_max":755,"o":"m 135 -217 q 276 -149 212 -191 q 390 -54 340 -106 q 478 59 441 -2 q 539 185 515 120 q 504 155 524 170 q 460 129 485 140 q 402 110 435 117 q 328 103 370 103 q 211 126 259 103 q 133 186 163 149 q 90 271 103 223 q 77 368 77 318 q 89 471 77 420 q 124 570 101 523 q 182 656 148 616 q 259 725 216 696 q 353 771 302 755 q 465 788 405 788 q 586 766 532 788 q 678 701 640 744 q 735 594 715 658 q 755 448 755 531 q 734 278 755 361 q 675 120 713 195 q 583 -22 637 44 q 464 -142 529 -89 q 322 -235 398 -196 q 165 -292 247 -273 l 135 -217 m 370 207 q 439 218 409 207 q 493 245 470 229 q 532 279 516 261 q 559 311 549 297 q 573 393 569 350 q 577 474 577 435 q 571 561 577 519 q 548 635 564 603 q 504 687 532 667 q 433 706 475 706 q 374 692 400 706 q 329 655 349 679 q 295 602 309 632 q 273 538 281 572 q 260 471 264 505 q 256 406 256 437 q 264 316 256 353 q 289 254 273 278 q 325 218 304 230 q 370 207 346 207 z "}," ":{"ha":329,"x_min":0,"x_max":0,"o":""},"#":{"ha":953,"x_min":75,"x_max":886,"o":"m 210 248 l 75 248 l 86 352 l 229 352 l 266 593 l 125 593 l 134 695 l 281 695 l 317 920 l 449 920 l 414 695 l 605 695 l 643 920 l 775 920 l 739 695 l 886 695 l 878 593 l 724 593 l 686 352 l 830 352 l 819 248 l 667 248 l 629 0 l 500 0 l 534 248 l 343 248 l 301 0 l 171 0 l 210 248 m 553 352 l 590 593 l 399 593 l 361 352 l 553 352 z "},"&":{"ha":1135,"x_min":41,"x_max":1117,"o":"m 41 240 q 61 341 41 297 q 116 419 81 385 q 196 479 151 453 q 292 530 241 506 q 270 588 280 557 q 251 650 259 618 q 239 711 243 681 q 235 767 235 741 q 260 888 235 835 q 332 980 286 942 q 439 1037 377 1017 q 572 1057 500 1057 q 691 1041 642 1057 q 771 997 740 1025 q 816 934 802 970 q 830 860 830 899 q 800 748 830 796 q 721 663 770 701 q 612 593 673 625 q 491 531 552 562 q 554 426 524 473 q 616 337 585 378 q 681 259 648 296 q 752 189 714 223 l 754 186 q 800 357 800 253 q 799 398 800 379 q 794 433 797 417 q 782 434 788 434 q 770 434 776 434 q 709 426 737 434 q 667 408 682 418 l 667 530 q 680 541 671 535 q 701 552 688 547 q 732 560 714 557 q 772 564 749 564 q 809 562 791 564 q 845 557 827 559 q 883 552 863 554 q 927 550 903 550 q 974 555 954 550 q 1008 572 994 559 q 1032 605 1023 584 q 1046 656 1041 625 l 1110 656 q 1113 566 1117 610 q 1093 490 1109 523 q 1050 437 1078 457 q 981 418 1022 418 q 967 418 974 418 q 952 419 960 418 q 953 404 953 412 q 954 387 954 396 q 921 239 954 305 q 831 122 888 172 q 865 101 850 109 q 897 90 880 95 q 931 82 913 85 q 966 78 949 79 q 998 77 984 77 l 994 6 q 921 -10 956 -6 q 837 -14 885 -14 q 673 28 743 -14 q 550 -7 614 5 q 420 -18 486 -18 q 274 -2 343 -18 q 153 46 205 14 q 71 127 101 79 q 41 240 41 176 m 454 604 q 532 649 495 625 q 595 701 568 672 q 638 766 623 730 q 654 847 654 802 q 650 894 654 870 q 636 937 646 918 q 608 968 626 956 q 562 981 590 981 q 494 966 522 981 q 447 928 465 952 q 420 870 429 903 q 411 798 411 837 q 425 692 411 741 q 454 604 438 642 m 227 256 q 244 173 227 209 q 290 114 261 138 q 359 79 319 91 q 443 67 398 67 q 602 85 534 67 q 517 173 554 130 q 450 259 481 216 q 393 348 420 303 q 337 441 366 393 q 258 360 288 406 q 227 256 227 315 z "},"'":{"ha":378,"x_min":149,"x_max":376,"o":"m 202 1144 l 376 1144 l 264 655 l 149 655 l 202 1144 z "},"(":{"ha":589,"x_min":129,"x_max":635,"o":"m 129 342 q 139 491 129 412 q 184 679 152 591 q 258 841 216 766 q 346 977 299 916 q 435 1082 393 1038 q 512 1154 478 1126 q 563 1191 546 1182 l 635 1141 q 595 1107 621 1131 q 538 1044 570 1083 q 472 952 507 1005 q 406 834 437 900 q 348 691 374 769 q 308 524 322 614 q 298 433 302 481 q 294 347 294 385 q 304 208 294 273 q 329 87 313 142 q 363 -12 344 33 q 402 -89 382 -56 q 439 -144 421 -122 q 469 -176 456 -166 l 385 -227 l 374 -227 q 338 -197 361 -218 q 288 -141 315 -176 q 232 -60 260 -107 q 181 48 204 -12 q 143 182 158 109 q 129 342 129 256 z "},")":{"ha":593,"x_min":-41,"x_max":466,"o":"m 466 626 q 456 477 466 556 q 411 290 443 378 q 337 127 378 202 q 249 -8 296 52 q 159 -114 202 -69 q 83 -186 117 -158 q 32 -222 49 -214 l -41 -172 q -1 -139 -26 -163 q 57 -76 25 -115 q 123 16 88 -37 q 189 134 157 69 q 247 277 220 199 q 287 444 273 355 q 297 535 293 487 q 300 621 300 583 q 291 761 300 696 q 266 881 281 826 q 232 980 251 936 q 193 1057 212 1024 q 156 1113 174 1090 q 126 1145 138 1135 l 210 1195 l 221 1195 q 256 1165 233 1187 q 307 1110 279 1144 q 362 1028 334 1076 q 414 920 391 981 q 451 786 437 860 q 466 626 466 713 z "},"*":{"ha":926,"x_min":170,"x_max":871,"o":"m 170 670 l 395 761 l 454 781 l 401 800 l 191 891 l 278 1017 l 450 873 l 492 835 l 486 895 l 481 1128 l 631 1127 l 577 893 l 561 836 l 609 874 l 812 1017 l 871 890 l 645 800 l 586 779 l 640 760 l 849 669 l 762 544 l 590 686 l 548 727 l 554 666 l 559 432 l 408 433 l 462 667 l 479 725 l 431 686 l 228 543 l 170 670 z "},"+":{"ha":913,"x_min":170,"x_max":790,"o":"m 390 357 l 408 468 l 312 463 l 170 463 l 182 584 l 332 584 l 425 576 l 434 688 l 452 844 l 587 844 l 569 688 l 549 577 l 627 584 l 790 584 l 778 463 l 608 463 l 532 468 q 529 412 531 439 q 526 357 527 385 l 507 193 l 372 193 l 390 357 z "},",":{"ha":367,"x_min":-18,"x_max":278,"o":"m 57 93 l 141 190 q 208 160 181 180 q 250 113 234 139 q 272 56 265 86 q 278 -3 278 26 q 259 -112 278 -60 q 206 -208 240 -163 q 124 -288 172 -252 q 18 -347 76 -323 l -18 -293 l -16 -279 q 38 -242 12 -267 q 82 -189 63 -218 q 113 -125 102 -159 q 124 -60 124 -92 q 118 -17 124 -37 q 103 20 113 4 q 80 44 93 35 q 52 53 67 54 l 57 93 z "},".":{"ha":367,"x_min":49,"x_max":260,"o":"m 50 83 q 62 131 52 109 q 90 168 73 153 q 127 192 106 184 q 169 201 148 201 q 211 193 193 201 q 240 171 229 184 q 256 140 251 158 q 260 104 260 123 q 247 53 258 75 q 218 16 235 31 q 178 -6 200 1 q 134 -14 157 -14 q 100 -7 116 -14 q 73 13 84 0 q 55 43 61 25 q 50 83 49 61 z "},"/":{"ha":579,"x_min":-86,"x_max":636,"o":"m -86 -245 l 498 1083 l 636 1083 l 51 -245 l -86 -245 z "},":":{"ha":367,"x_min":43,"x_max":321,"o":"m 111 631 q 123 680 112 658 q 150 717 134 701 q 188 741 167 732 q 229 749 208 749 q 271 741 254 749 q 300 720 289 733 q 316 689 311 707 q 320 652 321 671 q 307 602 319 624 q 278 565 296 580 q 239 542 260 550 q 195 534 217 534 q 160 542 176 534 q 133 561 144 549 q 115 592 121 574 q 111 631 109 610 m 44 83 q 56 131 45 109 q 84 168 67 153 q 121 192 100 184 q 163 201 142 201 q 205 193 187 201 q 234 171 222 184 q 250 140 245 158 q 254 104 254 123 q 241 53 252 75 q 212 16 229 31 q 172 -6 194 1 q 128 -14 151 -14 q 94 -7 110 -14 q 66 13 78 0 q 49 43 55 25 q 44 83 43 61 z "},";":{"ha":367,"x_min":-18,"x_max":321,"o":"m 57 93 l 141 190 q 208 160 181 180 q 250 113 234 139 q 272 56 265 86 q 278 -3 278 26 q 259 -112 278 -60 q 206 -208 240 -163 q 124 -288 172 -252 q 18 -347 76 -323 l -18 -293 l -16 -279 q 38 -242 12 -267 q 82 -189 63 -218 q 113 -125 102 -159 q 124 -60 124 -92 q 118 -17 124 -37 q 103 20 113 4 q 80 44 93 35 q 52 53 67 54 l 57 93 m 111 631 q 123 680 113 658 q 151 717 134 701 q 188 741 168 732 q 230 749 209 749 q 272 741 254 749 q 301 720 290 733 q 317 689 312 707 q 321 652 321 671 q 308 602 319 624 q 279 565 296 580 q 239 542 261 550 q 195 534 218 534 q 161 542 177 534 q 134 561 145 549 q 116 592 122 574 q 111 631 110 610 z "},"<":{"ha":928,"x_min":132,"x_max":827,"o":"m 143 552 l 827 898 l 808 744 l 307 508 l 753 268 l 736 119 l 132 465 l 143 552 z "},"=":{"ha":721,"x_min":53,"x_max":668,"o":"m 115 692 l 668 692 l 654 572 l 102 572 l 115 692 m 67 340 l 620 340 l 606 220 l 53 220 l 67 340 z "},">":{"ha":928,"x_min":170,"x_max":865,"o":"m 854 467 l 170 121 l 189 275 l 690 511 l 244 751 l 261 900 l 865 554 l 854 467 z "},"?":{"ha":669,"x_min":159,"x_max":684,"o":"m 223 321 q 202 350 212 332 q 186 389 193 368 q 175 435 179 411 q 172 485 172 460 q 187 547 172 519 q 228 601 202 576 q 289 649 254 626 q 364 694 324 671 q 463 756 422 726 q 522 815 505 787 q 531 848 528 829 q 536 884 535 867 q 519 971 536 931 q 469 1040 501 1011 q 391 1086 436 1069 q 292 1103 346 1103 q 225 1094 262 1103 q 159 1072 189 1086 l 189 1194 q 216 1209 197 1201 q 258 1223 235 1217 q 308 1233 282 1229 q 355 1236 334 1236 q 515 1211 452 1236 q 616 1144 578 1185 q 669 1052 654 1103 q 684 947 684 1000 q 669 839 684 885 q 628 757 653 792 q 570 696 602 722 q 503 650 537 671 q 435 610 469 629 q 376 571 402 591 q 333 525 349 550 q 314 467 316 500 q 316 433 313 449 q 321 401 318 416 q 329 374 325 387 q 335 353 333 362 l 233 320 l 223 321 m 198 77 q 210 126 198 104 q 240 166 222 149 q 281 192 258 182 q 324 201 303 201 q 364 194 347 201 q 392 174 381 186 q 409 146 404 162 q 414 113 414 130 q 402 59 414 83 q 371 19 390 35 q 329 -6 352 3 q 283 -14 305 -14 q 250 -7 265 -14 q 223 12 235 -1 q 205 40 212 24 q 198 77 198 57 z "},"@":{"ha":1335,"x_min":60,"x_max":1282,"o":"m 60 228 q 89 462 60 352 q 170 664 118 572 q 292 829 221 756 q 447 953 363 903 q 624 1031 530 1004 q 812 1058 717 1058 q 1002 1028 916 1058 q 1151 941 1088 998 q 1247 802 1213 884 q 1282 618 1282 720 q 1264 439 1282 522 q 1217 289 1247 357 q 1147 168 1187 220 q 1060 78 1107 115 q 964 23 1014 42 q 865 4 913 4 q 827 14 842 4 q 805 43 813 24 q 795 86 798 61 q 792 142 792 112 q 793 172 792 155 q 798 210 795 189 q 805 254 801 231 q 814 300 809 277 q 762 193 791 245 q 697 98 732 140 q 626 31 663 56 q 551 5 588 5 q 475 22 513 5 q 409 75 438 39 q 362 166 380 111 q 345 297 345 222 q 357 402 346 349 q 389 506 368 456 q 443 601 411 557 q 518 678 475 645 q 615 730 562 711 q 733 749 669 749 q 766 747 747 749 q 805 740 785 745 q 844 727 825 734 q 878 709 863 720 l 1003 736 q 982 641 993 698 q 961 521 971 584 q 942 395 951 458 q 929 281 934 332 q 926 235 926 255 q 926 198 926 214 q 927 169 926 182 q 928 146 928 157 q 932 121 928 128 q 941 115 936 115 q 997 133 970 115 q 1049 184 1025 152 q 1095 260 1074 216 q 1131 353 1116 303 q 1155 457 1146 403 q 1163 564 1163 511 q 1146 693 1163 636 q 1101 794 1130 751 q 1033 868 1072 838 q 948 919 994 899 q 853 947 903 939 q 753 956 803 956 q 587 929 664 956 q 448 854 511 902 q 336 741 385 806 q 254 601 288 676 q 204 442 221 525 q 186 277 186 359 q 223 62 186 151 q 322 -83 260 -26 q 466 -165 384 -139 q 638 -191 548 -191 q 702 -188 667 -191 q 768 -178 736 -184 q 829 -164 801 -172 q 874 -149 857 -157 l 899 -214 q 845 -247 876 -232 q 777 -272 814 -261 q 699 -288 741 -282 q 614 -294 658 -294 q 398 -262 499 -294 q 222 -167 297 -231 q 103 -5 146 -103 q 60 228 60 94 m 491 303 q 496 242 491 272 q 511 188 500 212 q 537 149 521 163 q 576 134 553 134 q 624 158 597 134 q 678 222 650 182 q 732 311 705 261 q 782 412 760 361 q 819 512 804 463 q 839 597 834 561 q 818 621 831 610 q 787 639 804 631 q 752 651 770 646 q 721 655 735 655 q 645 640 678 655 q 586 600 611 625 q 542 539 560 574 q 513 466 524 505 q 496 385 501 427 q 491 303 491 343 z "},"A":{"ha":922,"x_min":-96,"x_max":928,"o":"m 466 1038 l 651 1038 l 821 87 l 928 65 l 924 0 l 524 0 l 528 65 l 627 85 l 597 289 l 237 289 l 144 85 l 258 65 l 254 0 l -96 0 l -90 65 l 5 85 l 466 1038 m 583 381 l 521 798 l 514 902 l 278 381 l 583 381 z "},"B":{"ha":911,"x_min":3,"x_max":862,"o":"m 9 65 l 106 85 l 218 949 l 123 966 l 132 1038 l 328 1038 q 434 1043 381 1038 q 547 1048 488 1048 q 695 1029 636 1048 q 791 979 755 1010 q 842 908 827 948 q 859 826 858 868 q 802 647 862 715 q 631 547 743 578 q 722 527 681 545 q 792 481 763 510 q 837 416 821 453 q 854 336 853 378 q 820 176 854 242 q 723 68 786 110 q 573 7 661 26 q 378 -12 485 -12 q 331 -10 356 -12 q 279 -6 305 -8 q 228 -2 253 -3 q 183 0 203 0 l 3 0 l 9 65 m 351 580 q 401 579 376 578 q 452 579 426 579 q 542 592 500 579 q 615 633 584 606 q 665 705 647 661 q 681 808 682 748 q 637 926 678 886 q 505 966 595 966 q 484 965 497 966 q 456 964 471 965 q 427 961 441 963 q 399 958 412 960 l 351 580 m 288 86 q 315 80 299 83 q 349 76 332 77 q 381 73 366 74 q 408 72 397 72 q 514 86 467 72 q 594 129 562 100 q 643 205 627 159 q 658 317 660 252 q 645 393 656 360 q 609 447 633 425 q 547 479 585 469 q 458 490 510 490 q 385 488 412 490 q 338 486 357 487 l 288 86 z "},"C":{"ha":869,"x_min":51,"x_max":869,"o":"m 431 -11 q 308 6 362 -11 q 211 53 253 23 q 139 125 170 83 q 90 215 109 166 q 62 318 71 264 q 52 429 52 372 q 92 686 51 571 q 208 882 134 801 q 383 1006 281 962 q 603 1050 484 1050 q 692 1046 654 1050 q 758 1038 730 1043 q 807 1028 786 1034 q 845 1018 827 1022 l 869 1011 l 825 751 l 700 751 l 679 944 q 634 960 659 954 q 576 966 609 966 q 469 942 516 966 q 386 878 422 918 q 325 785 350 838 q 283 674 299 732 q 261 556 268 616 q 256 443 254 496 q 270 301 258 366 q 307 187 282 235 q 371 111 332 138 q 465 83 410 83 q 505 86 483 83 q 550 95 528 88 q 594 113 573 101 q 629 144 614 125 q 641 167 634 149 q 656 207 648 185 q 670 249 664 229 q 680 279 677 269 l 789 279 l 761 70 q 713 45 743 59 q 644 19 684 31 q 550 -2 603 6 q 431 -11 496 -11 z "},"D":{"ha":998,"x_min":-5,"x_max":969,"o":"m 2 65 l 106 85 l 218 949 l 124 966 l 132 1038 l 340 1038 q 444 1043 391 1038 q 551 1048 496 1048 q 743 1017 664 1048 q 872 929 822 985 q 944 794 922 872 q 968 625 967 717 q 933 371 969 488 q 825 168 897 254 q 647 35 753 83 q 399 -11 540 -12 q 368 -9 387 -11 q 336 -6 349 -7 q 306 -4 323 -5 q 268 -2 288 -3 q 229 -1 248 -1 q 195 0 210 0 l -5 0 l 2 65 m 293 91 q 322 83 305 87 q 358 77 340 80 q 393 73 376 75 q 424 72 410 72 q 538 98 488 74 q 628 161 589 122 q 694 253 667 201 q 739 363 722 304 q 764 485 756 422 q 771 608 772 547 q 755 773 770 705 q 710 884 741 841 q 632 947 680 927 q 519 966 585 966 q 485 965 503 966 q 452 961 467 964 q 423 956 436 959 q 403 951 410 954 l 293 91 z "},"E":{"ha":867,"x_min":-6,"x_max":825,"o":"m 2 65 l 107 85 l 217 949 l 123 966 l 130 1038 l 824 1038 l 809 807 l 698 807 l 670 947 l 406 960 l 357 589 l 656 599 l 644 472 l 346 486 l 292 85 l 637 106 l 718 277 l 825 261 l 771 0 l -6 0 l 2 65 z "},"F":{"ha":806,"x_min":3,"x_max":846,"o":"m 9 66 l 107 85 l 217 949 l 123 966 l 132 1038 l 846 1038 l 823 803 l 707 803 l 690 947 l 405 960 l 357 581 l 680 597 l 667 463 l 346 482 l 294 86 l 496 66 l 490 0 l 3 0 l 9 66 z "},"G":{"ha":947,"x_min":52,"x_max":906,"o":"m 420 -11 q 303 6 355 -11 q 212 53 252 23 q 142 124 172 83 q 94 214 113 165 q 65 316 75 262 q 55 425 56 370 q 90 680 52 564 q 198 877 127 795 q 368 1004 268 959 q 589 1050 467 1050 q 691 1046 647 1050 q 768 1036 734 1042 q 827 1023 802 1029 q 872 1010 852 1016 l 906 1003 l 864 782 l 737 782 l 727 931 q 668 956 703 947 q 583 966 633 966 q 469 944 519 966 q 383 883 420 922 q 321 794 346 845 q 280 685 296 743 q 258 565 264 627 q 252 443 252 503 q 265 307 253 372 q 302 191 277 241 q 367 110 328 140 q 463 80 407 80 q 557 87 513 80 q 638 115 602 94 l 674 400 l 526 412 l 537 500 l 873 500 l 816 60 q 766 52 795 58 q 708 38 737 46 q 648 22 680 31 q 580 6 616 13 q 504 -6 544 -1 q 420 -11 464 -11 z "},"H":{"ha":1080,"x_min":3,"x_max":1107,"o":"m 10 65 l 107 85 l 218 949 l 123 966 l 132 1038 l 525 1038 l 517 966 l 404 949 l 356 576 l 765 576 l 813 949 l 703 966 l 710 1038 l 1107 1038 l 1099 966 l 1000 949 l 889 86 l 994 65 l 987 0 l 575 0 l 583 66 l 703 86 l 753 481 l 344 481 l 294 85 l 406 66 l 400 0 l 3 0 l 10 65 z "},"I":{"ha":505,"x_min":4,"x_max":528,"o":"m 12 65 l 113 85 l 223 949 l 128 966 l 136 1038 l 528 1038 l 520 966 l 410 949 l 299 85 l 412 66 l 407 0 l 4 0 l 12 65 z "},"J":{"ha":502,"x_min":-121,"x_max":526,"o":"m 109 58 q 145 268 130 157 q 175 492 161 378 q 201 723 189 607 q 226 949 213 839 l 126 966 l 136 1038 l 526 1038 l 518 966 l 409 950 q 385 743 397 846 q 362 546 374 640 q 341 368 351 451 q 322 220 331 285 q 306 111 313 155 q 293 51 298 67 q 232 -63 271 -14 q 141 -147 192 -112 q 30 -203 90 -182 q -91 -234 -30 -225 l -121 -168 q -30 -128 -70 -153 q 38 -73 9 -103 q 84 -9 66 -43 q 109 58 102 25 z "},"K":{"ha":962,"x_min":-1,"x_max":998,"o":"m 7 65 l 107 85 l 218 949 l 123 966 l 132 1038 l 525 1038 l 517 966 l 404 949 l 344 478 l 762 949 l 673 966 l 681 1038 l 998 1038 l 990 966 l 909 950 l 566 590 q 605 526 583 564 q 649 448 627 488 q 692 370 672 408 q 726 307 713 332 q 773 220 753 257 q 810 157 793 183 q 839 116 826 132 q 863 94 851 100 l 950 68 l 941 0 l 702 0 q 675 15 688 2 q 649 51 663 27 q 620 110 635 75 q 583 191 604 144 q 553 255 570 219 q 519 329 537 291 q 484 402 502 366 q 451 469 467 439 l 326 337 l 294 85 l 406 66 l 400 0 l -1 0 l 7 65 z "},"L":{"ha":831,"x_min":3,"x_max":782,"o":"m 10 66 l 107 85 l 218 949 l 123 966 l 132 1038 l 537 1038 l 530 966 l 404 949 l 293 83 l 570 94 l 681 357 l 782 342 l 721 0 l 3 0 l 10 66 z "},"M":{"ha":1336,"x_min":-47,"x_max":1330,"o":"m -39 66 l 77 85 l 291 949 l 171 966 l 180 1038 l 562 1038 l 656 390 l 669 275 l 705 390 q 729 447 714 412 q 761 525 743 481 q 800 616 779 568 q 842 714 821 665 q 883 812 863 764 q 922 903 904 861 q 955 981 940 946 q 979 1038 969 1015 l 1330 1038 l 1322 966 l 1203 949 l 1181 86 l 1302 66 l 1297 0 l 869 0 l 875 66 l 991 85 l 1029 686 l 1041 937 l 954 718 l 643 -2 l 549 -12 l 434 702 l 401 937 l 351 695 l 216 85 l 351 66 l 344 0 l -47 0 l -39 66 z "},"N":{"ha":1038,"x_min":1,"x_max":1082,"o":"m 6 65 l 102 85 l 223 949 l 116 966 l 127 1038 l 431 1038 l 718 323 l 765 180 l 857 950 l 751 966 l 760 1038 l 1082 1038 l 1076 966 l 984 949 l 844 0 l 659 0 l 363 720 l 318 868 l 235 85 l 351 66 l 345 0 l 1 0 l 6 65 z "},"O":{"ha":979,"x_min":54,"x_max":941,"o":"m 55 427 q 70 590 54 511 q 115 739 85 669 q 190 865 145 808 q 291 964 234 923 q 417 1028 348 1006 q 567 1051 487 1051 q 732 1015 663 1051 q 848 919 802 979 q 917 778 894 858 q 940 609 939 698 q 926 448 941 526 q 884 301 912 370 q 812 174 855 232 q 713 74 769 116 q 586 9 656 33 q 433 -14 516 -14 q 271 18 341 -14 q 153 108 201 50 q 80 247 105 166 q 55 427 56 328 m 453 68 q 575 109 521 68 q 667 219 629 149 q 724 386 705 290 q 743 592 743 481 q 730 751 742 682 q 693 869 718 821 q 632 942 669 917 q 546 967 595 967 q 463 948 502 967 q 391 895 424 929 q 332 814 358 861 q 289 711 307 767 q 262 591 271 654 q 254 461 253 528 q 264 309 254 380 q 296 184 273 238 q 356 100 318 131 q 453 68 395 68 z "},"P":{"ha":864,"x_min":3,"x_max":876,"o":"m 9 65 l 106 85 l 218 949 l 123 966 l 132 1038 l 325 1038 q 376 1039 352 1038 q 425 1043 401 1041 q 472 1047 448 1046 q 522 1049 496 1049 q 679 1032 613 1049 q 787 981 744 1015 q 850 896 829 947 q 873 779 871 846 q 843 601 876 679 q 751 469 810 522 q 609 387 692 415 q 427 359 526 359 q 366 359 388 359 q 328 361 344 360 l 296 85 l 456 66 l 451 0 l 3 0 l 9 65 m 339 452 q 388 445 365 446 q 433 444 412 444 q 544 468 496 445 q 622 533 591 491 q 669 636 653 576 q 685 770 684 696 q 641 919 686 870 q 499 966 597 968 q 454 963 479 966 q 406 956 429 961 l 339 452 z "},"Q":{"ha":979,"x_min":53,"x_max":939,"o":"m 403 -12 q 253 26 318 -7 q 144 117 189 60 q 77 253 100 175 q 54 427 54 332 q 68 590 53 511 q 114 739 83 669 q 188 865 144 808 q 290 964 233 923 q 416 1028 347 1006 q 566 1051 486 1051 q 731 1015 661 1051 q 847 919 801 979 q 915 778 892 858 q 939 609 938 698 q 912 392 939 496 q 832 205 886 288 q 699 66 779 122 q 515 -7 620 10 q 533 -70 516 -47 q 578 -105 551 -93 q 640 -120 606 -117 q 711 -123 675 -123 q 744 -121 724 -123 q 787 -116 764 -119 q 833 -107 810 -112 q 874 -95 856 -102 l 876 -204 q 841 -226 863 -214 q 790 -247 819 -237 q 725 -263 761 -256 q 650 -269 690 -269 q 540 -253 590 -269 q 455 -204 490 -237 q 406 -124 421 -172 q 403 -12 391 -76 m 452 68 q 574 109 519 68 q 666 219 628 149 q 723 386 703 290 q 741 592 742 481 q 728 751 741 682 q 692 869 716 821 q 631 942 667 917 q 545 967 594 967 q 461 948 500 967 q 390 895 422 929 q 331 814 357 861 q 288 711 305 767 q 261 591 270 654 q 252 461 252 528 q 262 309 253 380 q 294 184 272 238 q 355 100 317 131 q 452 68 393 68 z "},"R":{"ha":949,"x_min":9,"x_max":919,"o":"m 16 65 l 107 85 l 218 949 l 123 966 l 132 1038 l 300 1038 q 355 1039 330 1038 q 406 1043 380 1041 q 460 1047 432 1045 q 524 1048 488 1048 q 679 1033 614 1048 q 787 985 745 1017 q 850 907 830 954 q 871 801 871 861 q 857 692 872 743 q 812 599 842 641 q 739 525 783 557 q 638 475 695 494 q 671 436 655 460 q 699 384 686 412 q 723 327 712 355 q 742 277 734 299 q 783 179 765 219 q 821 115 802 139 q 863 80 840 90 q 919 69 886 69 l 914 -1 l 696 1 q 655 42 678 0 q 602 168 632 83 q 569 262 586 213 q 533 351 551 311 q 497 420 515 392 q 459 452 478 448 q 412 452 435 452 l 333 452 l 290 85 l 414 66 l 410 0 l 9 0 l 16 65 m 345 539 q 372 538 355 538 q 409 537 390 537 q 445 536 428 536 q 469 537 461 536 q 565 558 524 539 q 633 611 606 577 q 673 694 661 646 q 684 804 686 743 q 672 874 683 844 q 637 925 661 905 q 578 956 614 945 q 490 966 542 966 q 472 965 484 966 q 449 963 461 964 q 423 959 436 961 q 400 956 410 958 l 345 539 z "},"S":{"ha":764,"x_min":24,"x_max":736,"o":"m 58 250 l 167 250 l 179 113 q 243 80 206 94 q 326 67 281 67 q 402 77 368 67 q 463 106 437 87 q 503 153 488 125 q 519 218 518 181 q 509 286 520 256 q 476 343 498 316 q 421 395 454 370 q 348 446 389 420 q 264 505 305 473 q 192 574 224 536 q 142 655 161 611 q 122 754 123 700 q 149 880 121 825 q 223 973 176 935 q 335 1031 270 1011 q 474 1051 399 1051 q 568 1046 526 1051 q 642 1033 610 1041 q 697 1016 674 1025 q 736 997 721 1006 l 702 806 l 602 806 l 582 932 q 527 959 558 950 q 456 968 495 968 q 394 960 422 968 q 343 935 365 952 q 310 892 322 918 q 296 828 297 865 q 308 756 296 789 q 345 696 321 724 q 402 642 368 668 q 479 589 437 616 q 560 533 521 563 q 630 469 600 504 q 679 391 661 433 q 698 296 697 348 q 673 172 699 229 q 599 73 648 115 q 481 8 551 31 q 322 -16 411 -16 q 221 -9 270 -16 q 133 7 173 -3 q 64 27 93 16 q 24 47 35 38 l 58 250 z "},"T":{"ha":911,"x_min":62,"x_max":966,"o":"m 153 68 l 320 85 l 437 956 l 246 937 l 165 711 l 62 711 l 115 1038 l 966 1038 l 926 711 l 827 706 l 812 938 l 624 956 l 507 85 l 687 68 l 682 0 l 145 0 l 153 68 z "},"U":{"ha":958,"x_min":74,"x_max":1014,"o":"m 93 290 q 93 344 92 317 q 98 402 94 372 l 168 950 l 74 966 l 83 1038 l 485 1038 l 478 967 l 360 949 l 292 418 q 285 345 288 379 q 282 285 282 311 q 294 193 283 233 q 328 124 306 152 q 384 81 351 96 q 461 66 417 66 q 566 90 521 66 q 644 161 612 115 q 697 273 676 207 q 728 425 718 340 l 798 949 l 696 966 l 703 1038 l 1014 1038 l 1005 966 l 920 950 l 851 425 q 802 222 836 305 q 715 86 768 138 q 591 10 663 34 q 430 -14 520 -14 q 276 9 340 -14 q 172 72 212 31 q 112 168 131 112 q 93 290 94 224 z "},"V":{"ha":838,"x_min":18,"x_max":968,"o":"m 103 949 l 18 966 l 26 1038 l 410 1038 l 404 966 l 297 949 l 385 326 l 401 160 l 459 326 l 738 949 l 628 966 l 635 1038 l 968 1038 l 959 966 l 866 950 l 430 -7 l 262 -11 l 103 949 z "},"W":{"ha":1280,"x_min":3,"x_max":1447,"o":"m 93 949 l 3 966 l 12 1038 l 386 1038 l 379 966 l 283 949 l 363 321 l 382 160 l 427 298 l 648 860 l 640 951 l 545 966 l 552 1038 l 932 1038 l 922 966 l 824 950 l 891 321 l 897 160 l 949 308 l 1216 949 l 1095 966 l 1102 1038 l 1447 1038 l 1438 966 l 1343 949 l 923 -7 l 746 -7 l 677 656 l 416 -7 l 239 -7 l 93 949 z "},"X":{"ha":910,"x_min":-47,"x_max":971,"o":"m -39 66 l 41 85 l 372 515 l 167 949 l 79 966 l 86 1038 l 486 1038 l 479 966 l 381 950 l 507 627 l 722 949 l 629 966 l 635 1038 l 971 1038 l 964 966 l 871 950 l 553 538 l 776 85 l 871 66 l 865 0 l 448 0 l 454 66 l 558 85 l 420 419 l 195 85 l 296 65 l 290 0 l -47 0 l -39 66 z "},"Y":{"ha":832,"x_min":20,"x_max":951,"o":"m 144 66 l 288 85 l 329 406 l 93 949 l 20 966 l 28 1038 l 425 1038 l 416 966 l 300 949 l 435 592 l 466 508 l 508 583 l 723 949 l 624 966 l 631 1038 l 951 1038 l 943 966 l 866 950 l 513 406 l 471 85 l 627 66 l 621 0 l 137 0 l 144 66 z "},"Z":{"ha":827,"x_min":-22,"x_max":854,"o":"m -22 60 l 550 855 l 649 956 l 310 947 l 227 772 l 128 787 l 164 1038 l 835 1038 l 854 979 l 286 182 l 195 83 l 576 99 l 682 297 l 779 276 l 718 0 l -1 0 l -22 60 z "},"[":{"ha":586,"x_min":98,"x_max":598,"o":"m 101 28 q 108 100 102 52 q 123 214 114 149 q 142 356 132 279 q 165 512 153 433 q 188 670 176 592 q 210 816 199 748 q 227 936 220 884 q 239 1018 235 989 q 259 1100 245 1067 q 297 1152 274 1133 q 351 1180 319 1172 q 422 1189 382 1189 q 474 1184 444 1189 q 532 1173 505 1179 q 598 1157 565 1165 l 587 1086 l 401 1086 l 250 -37 q 272 -37 257 -37 q 304 -38 286 -37 q 343 -38 323 -38 q 381 -38 363 -38 q 414 -39 399 -39 q 436 -39 429 -39 l 427 -111 q 383 -124 404 -118 q 339 -134 361 -130 q 294 -141 317 -138 q 242 -143 270 -143 q 184 -138 210 -143 q 138 -122 157 -134 q 109 -93 119 -111 q 98 -46 98 -74 q 99 -10 98 -28 q 101 28 99 8 z "},"\\":{"ha":579,"x_min":52,"x_max":579,"o":"m 52 1083 l 188 1083 l 579 -245 l 442 -245 l 52 1083 z "},"]":{"ha":586,"x_min":12,"x_max":512,"o":"m 509 1027 q 502 955 508 1004 q 488 841 496 906 q 468 700 479 777 q 446 543 457 623 q 423 385 434 463 q 401 239 411 307 q 383 119 391 172 q 372 37 376 67 q 351 -44 366 -11 q 314 -97 336 -77 q 260 -125 291 -117 q 189 -134 229 -134 q 136 -128 166 -134 q 78 -117 106 -123 q 12 -102 45 -110 l 23 -30 l 210 -30 l 361 1093 q 339 1093 353 1093 q 306 1093 324 1093 q 268 1093 288 1093 q 229 1094 248 1093 q 196 1094 211 1094 q 174 1094 182 1094 l 183 1166 q 228 1179 206 1173 q 271 1189 249 1185 q 317 1196 293 1194 q 368 1198 340 1198 q 427 1194 400 1198 q 472 1178 453 1189 q 502 1148 491 1166 q 512 1101 512 1129 q 512 1065 512 1084 q 509 1027 511 1047 z "},"^":{"ha":925,"x_min":106,"x_max":791,"o":"m 456 1038 l 610 1038 l 791 346 l 649 346 l 515 849 l 252 346 l 106 346 l 456 1038 z "},"_":{"ha":905,"x_min":-75,"x_max":873,"o":"m 873 -127 l 859 -229 l -75 -229 l -62 -127 l 873 -127 z "},"`":{"ha":367,"x_min":17,"x_max":333,"o":"m 279 845 q 243 864 264 851 q 196 896 221 878 q 143 936 170 914 q 92 980 116 958 q 47 1024 67 1002 q 17 1065 28 1046 l 138 1182 l 333 889 l 279 845 l 279 845 z "},"a":{"ha":810,"x_min":49,"x_max":758,"o":"m 49 276 q 62 396 49 335 q 101 514 75 457 q 165 621 127 571 q 254 708 203 671 q 366 767 304 745 q 501 789 428 789 q 539 786 519 789 q 578 781 559 784 q 616 772 597 777 q 649 762 634 767 l 741 789 l 652 140 q 657 101 649 113 q 676 89 665 89 q 700 95 686 89 q 737 120 713 101 l 758 77 q 738 55 753 70 q 702 24 724 39 q 650 -2 680 9 q 587 -14 621 -14 q 512 9 540 -14 q 486 78 484 31 l 485 80 q 447 45 469 62 q 400 15 426 28 q 344 -6 374 2 q 280 -14 314 -14 q 176 9 220 -14 q 104 70 132 31 q 62 162 76 109 q 49 276 49 215 m 340 94 q 381 100 361 94 q 419 117 401 106 q 453 141 437 127 q 481 170 469 155 l 551 689 q 482 700 521 700 q 402 681 437 700 q 339 631 366 663 q 292 559 311 600 q 259 472 272 517 q 241 379 247 426 q 235 288 235 332 q 263 145 235 196 q 340 94 292 94 z "},"b":{"ha":807,"x_min":63,"x_max":757,"o":"m 193 1006 l 126 1036 l 140 1093 l 345 1119 l 380 1101 l 327 701 q 364 733 343 718 q 410 762 385 749 q 464 781 435 774 q 525 789 492 789 q 627 768 584 789 q 700 709 671 747 q 743 616 728 671 q 757 495 757 562 q 743 372 757 433 q 703 254 730 311 q 638 149 677 197 q 550 64 600 100 q 439 7 500 28 q 309 -14 379 -14 q 266 -11 288 -14 q 222 -4 244 -8 q 181 5 201 0 q 146 16 161 11 l 63 -14 l 193 1006 m 245 90 q 283 78 263 81 q 328 75 304 75 q 407 93 372 75 q 468 141 441 111 q 515 213 495 172 q 547 300 534 254 q 566 395 559 346 q 572 490 572 444 q 565 568 572 532 q 545 628 558 603 q 511 667 531 653 q 466 681 492 681 q 420 673 442 681 q 378 651 397 665 q 341 621 358 637 q 311 586 324 604 l 245 90 z "},"c":{"ha":626,"x_min":49,"x_max":629,"o":"m 50 298 q 60 411 49 353 q 95 523 72 469 q 153 626 118 577 q 234 710 188 674 q 339 768 281 747 q 468 789 397 789 q 509 787 488 789 q 552 781 531 785 q 594 772 574 778 q 629 760 614 766 l 581 588 q 547 613 566 597 q 508 646 528 630 q 467 674 488 662 q 428 686 446 686 q 358 659 393 686 q 295 583 323 632 q 251 465 268 534 q 236 312 235 396 q 245 214 237 255 q 271 148 254 174 q 311 110 287 122 q 365 98 334 98 q 417 103 393 98 q 462 120 441 109 q 503 145 484 130 q 544 180 523 161 l 578 117 q 541 76 565 99 q 481 34 516 54 q 401 0 446 14 q 302 -14 357 -14 q 197 7 243 -14 q 118 67 151 27 q 68 165 85 106 q 50 298 50 223 z "},"d":{"ha":825,"x_min":49,"x_max":805,"o":"m 277 -14 q 174 9 217 -14 q 103 70 131 31 q 62 162 75 109 q 49 276 49 215 q 61 396 49 335 q 99 514 74 457 q 162 621 125 571 q 250 708 200 671 q 362 767 300 745 q 498 789 424 789 q 538 786 517 789 q 579 779 559 783 l 613 1005 l 518 1034 l 532 1090 l 768 1119 l 805 1101 l 666 141 q 667 103 663 117 q 685 89 671 89 q 708 95 694 89 q 745 120 721 101 l 766 78 q 746 56 760 71 q 710 26 732 41 q 660 -2 688 10 q 595 -14 631 -14 q 518 14 543 -14 q 495 98 494 41 q 458 57 479 77 q 409 22 436 37 q 348 -4 381 6 q 277 -14 315 -14 m 336 94 q 382 102 360 94 q 425 124 405 111 q 461 156 445 138 q 491 191 478 173 l 565 682 q 525 696 547 692 q 479 700 503 700 q 399 681 435 700 q 336 631 363 663 q 289 557 309 599 q 258 469 270 515 q 240 376 245 423 q 234 285 234 328 q 261 143 234 193 q 336 94 288 94 z "},"e":{"ha":712,"x_min":50,"x_max":679,"o":"m 50 292 q 66 423 51 359 q 107 542 81 486 q 172 642 134 597 q 257 720 210 688 q 357 771 303 753 q 470 789 411 789 q 563 776 524 789 q 627 740 602 763 q 665 686 652 717 q 678 619 677 655 q 657 521 679 565 q 600 444 636 477 q 518 385 564 410 q 423 344 472 360 q 327 320 374 328 q 243 311 280 311 q 248 229 241 268 q 271 160 255 190 q 314 112 288 130 q 379 94 341 94 q 499 123 445 94 q 595 197 553 152 l 633 134 q 592 87 618 113 q 527 39 565 61 q 440 1 488 16 q 334 -14 391 -14 q 203 12 258 -14 q 115 81 149 38 q 65 178 81 123 q 50 292 50 233 m 244 389 q 296 397 268 390 q 353 416 324 404 q 408 447 382 429 q 455 489 435 465 q 488 542 476 513 q 500 604 500 570 q 480 679 498 654 q 429 703 462 703 q 374 688 399 703 q 330 648 349 673 q 295 591 310 623 q 270 523 281 558 q 253 453 260 488 q 244 389 247 418 z "},"f":{"ha":478,"x_min":-156,"x_max":611,"o":"m 168 677 l 78 677 l 90 737 l 186 780 l 197 839 q 234 956 208 902 q 300 1048 261 1009 q 390 1110 340 1088 q 497 1133 439 1133 q 554 1129 525 1133 q 611 1115 584 1126 l 570 998 q 555 1008 564 1002 q 534 1019 546 1014 q 508 1027 523 1024 q 476 1030 494 1030 q 432 1020 450 1030 q 402 988 414 1009 q 383 936 391 967 q 370 864 376 905 l 359 783 l 517 783 l 504 677 l 345 677 l 260 -17 q 228 -146 251 -86 q 168 -251 205 -206 q 79 -322 130 -296 q -36 -348 28 -348 q -72 -347 -54 -348 q -106 -344 -90 -346 q -135 -340 -122 -342 q -156 -336 -148 -338 l -119 -216 q -102 -223 -115 -218 q -73 -233 -90 -228 q -39 -242 -56 -238 q -9 -245 -22 -245 q 44 -207 24 -245 q 74 -98 64 -168 l 168 677 z "},"g":{"ha":804,"x_min":49,"x_max":754,"o":"m 109 -185 q 138 -200 119 -191 q 182 -217 157 -209 q 236 -231 208 -225 q 292 -237 264 -237 q 358 -232 331 -237 q 404 -212 385 -227 q 433 -170 422 -197 q 450 -98 444 -142 l 473 66 q 435 36 456 50 q 391 11 415 22 q 339 -7 366 -1 q 280 -14 311 -14 q 176 9 220 -14 q 104 70 132 31 q 62 162 76 109 q 49 276 49 215 q 62 396 49 335 q 101 514 75 457 q 165 621 127 571 q 254 708 203 671 q 366 767 304 745 q 501 789 428 789 q 586 779 544 789 q 659 759 629 770 l 754 789 l 632 -52 q 603 -153 624 -109 q 552 -230 582 -197 q 484 -285 522 -262 q 405 -322 446 -308 q 322 -342 364 -336 q 240 -348 279 -348 q 192 -346 216 -348 q 144 -339 167 -343 q 104 -330 122 -335 q 75 -321 85 -326 l 109 -185 m 339 94 q 382 101 361 94 q 422 120 404 109 q 458 148 441 132 q 488 180 475 163 l 562 685 q 524 696 545 693 q 482 700 504 700 q 402 681 437 700 q 339 631 366 663 q 292 557 311 599 q 259 469 272 515 q 241 376 247 423 q 235 285 235 328 q 263 143 235 193 q 339 94 291 94 z "},"h":{"ha":860,"x_min":64,"x_max":802,"o":"m 191 1005 l 108 1034 l 119 1090 l 348 1119 l 384 1101 l 323 621 q 377 688 347 657 q 441 741 407 718 q 513 776 475 763 q 592 789 551 789 q 660 778 629 789 q 712 744 690 768 q 747 680 734 720 q 759 584 759 641 q 755 534 759 564 q 747 471 752 505 q 736 405 742 438 q 725 342 730 371 q 716 289 721 317 q 707 235 711 262 q 699 181 703 208 q 695 133 696 155 q 700 99 694 109 q 715 89 706 89 q 727 90 721 89 q 741 96 733 92 q 759 106 749 100 q 783 123 769 113 l 802 81 q 783 58 798 73 q 744 26 768 42 q 688 -2 720 10 q 618 -14 656 -14 q 563 -7 585 -14 q 529 14 541 1 q 511 46 516 27 q 507 89 507 65 q 511 133 508 108 q 518 185 514 157 q 528 242 523 213 q 539 300 534 272 q 551 363 545 329 q 562 432 557 397 q 570 503 567 467 q 574 568 574 538 q 569 620 574 601 q 555 650 564 640 q 534 665 547 661 q 508 668 522 668 q 458 655 484 668 q 405 618 431 642 q 353 565 378 595 q 307 499 328 534 l 243 0 l 64 0 l 191 1005 z "},"i":{"ha":444,"x_min":67,"x_max":416,"o":"m 92 82 q 105 182 97 123 q 124 316 113 241 q 147 479 134 391 q 173 665 159 567 l 67 699 l 79 754 l 333 789 l 368 772 l 277 140 q 297 89 270 89 q 323 97 309 89 q 364 127 338 105 l 385 85 q 364 61 379 77 q 325 28 349 45 q 270 -1 302 12 q 201 -14 239 -14 q 116 11 144 -14 q 92 82 87 35 m 295 924 q 258 932 275 924 q 228 954 241 941 q 208 985 215 968 q 201 1022 200 1003 q 211 1066 201 1046 q 236 1103 220 1087 q 272 1127 252 1118 q 317 1137 293 1137 q 359 1129 340 1137 q 391 1108 378 1121 q 410 1078 404 1095 q 416 1043 416 1061 q 407 998 415 1019 q 382 960 398 976 q 345 934 367 943 q 295 924 323 924 z "},"ı":{"ha":444,"x_min":67,"x_max":385,"o":"m 92 82 q 105 182 97 123 q 124 316 113 241 q 147 479 134 391 q 173 665 159 567 l 67 699 l 79 754 l 333 789 l 368 772 l 277 140 q 297 89 270 89 q 323 97 309 89 q 364 127 338 105 l 385 85 q 364 61 379 77 q 325 28 349 45 q 270 -1 302 12 q 201 -14 239 -14 q 116 11 144 -14 q 92 82 87 35 z "},"˙":{"ha":263,"x_min":24,"x_max":240,"o":"m 119 924 q 82 932 99 924 q 52 954 64 941 q 31 985 39 968 q 24 1022 24 1003 q 35 1066 25 1046 q 60 1103 44 1087 q 96 1127 75 1118 q 140 1137 117 1137 q 182 1129 163 1137 q 214 1108 201 1121 q 234 1078 227 1095 q 239 1043 240 1061 q 230 998 239 1019 q 206 960 222 976 q 169 934 191 943 q 119 924 146 924 z "},"j":{"ha":441,"x_min":-156,"x_max":413,"o":"m 172 665 l 62 699 l 76 754 l 334 789 l 368 772 l 277 0 q 237 -154 267 -87 q 164 -265 208 -220 q 65 -332 120 -309 q -50 -355 10 -355 q -115 -349 -87 -355 q -156 -330 -143 -342 l -131 -261 q -119 -264 -126 -263 q -105 -267 -112 -266 q -91 -269 -98 -268 q -82 -269 -85 -269 q -1 -243 -33 -269 q 53 -173 32 -217 q 85 -73 73 -130 q 103 44 96 -16 l 172 665 m 292 924 q 255 932 272 924 q 224 954 237 941 q 204 985 212 968 q 197 1022 197 1003 q 208 1066 198 1046 q 233 1103 217 1087 q 269 1127 248 1118 q 313 1137 290 1137 q 355 1129 336 1137 q 387 1108 374 1121 q 407 1078 400 1095 q 412 1043 413 1061 q 403 998 412 1019 q 379 960 395 976 q 341 934 363 943 q 292 924 319 924 z "},"k":{"ha":758,"x_min":57,"x_max":779,"o":"m 189 1005 l 106 1034 l 117 1090 l 346 1119 l 382 1101 l 236 0 l 57 0 l 189 1005 m 296 414 l 298 414 l 296 414 q 354 452 326 435 q 407 491 381 470 q 459 538 433 512 q 513 600 486 564 q 540 653 533 627 q 549 707 547 680 q 561 745 551 730 q 586 771 571 761 q 617 785 600 781 q 650 789 635 789 q 708 767 687 789 q 730 712 730 745 q 722 663 731 685 q 699 621 713 640 q 648 564 678 591 q 584 513 618 537 q 515 469 550 489 q 450 433 480 448 l 604 166 q 642 120 621 136 q 679 103 663 103 q 713 112 692 103 q 756 138 735 121 l 779 94 q 750 61 769 79 q 704 26 730 43 q 644 -2 677 9 q 576 -14 612 -14 q 503 6 532 -14 q 456 64 474 26 l 296 414 z "},"l":{"ha":421,"x_min":77,"x_max":389,"o":"m 77 78 q 78 104 77 89 q 81 130 80 120 l 201 1005 l 115 1034 l 129 1090 l 355 1119 l 389 1101 l 258 140 q 259 103 255 117 q 277 89 264 89 q 302 96 288 89 q 345 127 317 103 l 365 85 q 345 61 360 77 q 308 28 330 45 q 255 -1 285 12 q 189 -14 224 -14 q 144 -8 165 -14 q 109 7 124 -3 q 85 36 94 18 q 77 78 77 54 z "},"m":{"ha":1301,"x_min":72,"x_max":1243,"o":"m 161 652 l 91 693 l 102 753 l 311 789 l 345 772 l 333 631 q 387 693 357 664 q 450 743 416 722 q 520 777 484 764 q 594 789 556 789 q 657 780 629 789 q 707 752 686 772 q 743 701 729 732 q 760 623 756 669 q 815 690 785 659 q 879 742 845 720 q 951 777 913 764 q 1029 789 989 789 q 1097 778 1066 789 q 1149 742 1127 766 q 1184 679 1171 718 q 1196 584 1196 640 q 1193 535 1196 564 q 1185 473 1190 506 q 1174 406 1180 439 q 1164 343 1168 372 q 1146 235 1155 290 q 1135 134 1137 180 q 1140 99 1135 109 q 1156 89 1146 89 q 1167 91 1161 89 q 1181 96 1173 92 q 1199 108 1189 100 q 1223 127 1209 115 l 1243 85 q 1223 61 1238 77 q 1184 28 1208 45 q 1129 -2 1160 11 q 1059 -14 1097 -14 q 1005 -6 1026 -14 q 971 15 983 1 q 954 48 959 29 q 950 88 949 66 q 954 133 951 108 q 960 186 956 158 q 969 244 964 214 q 980 303 975 274 q 990 365 985 331 q 1000 433 996 398 q 1008 503 1005 468 q 1011 568 1011 537 q 1006 620 1011 600 q 994 650 1002 639 q 975 664 986 661 q 950 667 964 667 q 903 656 928 667 q 853 625 878 645 q 805 577 829 605 q 760 517 781 550 q 752 429 757 475 q 741 342 747 383 l 699 0 l 519 0 l 557 300 q 566 363 562 329 q 574 432 570 397 q 579 501 577 467 q 581 566 582 536 q 577 621 581 601 q 564 651 572 641 q 543 665 555 662 q 513 668 530 668 q 465 656 491 668 q 414 622 439 644 q 363 572 388 601 q 317 510 338 543 l 248 0 l 72 0 l 161 652 z "},"n":{"ha":867,"x_min":73,"x_max":802,"o":"m 161 653 l 92 693 l 103 753 l 312 789 l 346 772 l 334 631 q 389 694 359 665 q 452 744 418 723 q 523 777 486 765 q 599 789 560 789 q 667 778 636 789 q 719 744 697 768 q 753 680 741 720 q 766 584 766 641 q 762 534 766 564 q 754 471 759 505 q 743 405 749 438 q 732 342 736 371 q 722 289 727 317 q 713 235 718 262 q 706 181 709 208 q 702 133 703 155 q 707 99 701 109 q 722 89 713 89 q 746 95 732 89 q 783 120 759 101 l 802 77 q 783 55 798 71 q 746 25 768 40 q 692 -2 723 9 q 625 -14 661 -14 q 570 -6 591 -14 q 535 15 548 1 q 518 48 523 29 q 514 89 513 66 q 518 133 515 108 q 525 185 521 157 q 535 242 530 213 q 546 300 541 272 q 557 363 551 329 q 569 432 564 397 q 577 503 574 467 q 581 568 581 538 q 576 620 581 601 q 563 650 572 640 q 543 665 555 661 q 515 668 530 668 q 466 655 492 668 q 414 621 440 643 q 363 569 388 599 q 317 505 338 539 l 248 0 l 73 0 l 161 653 z "},"o":{"ha":793,"x_min":48,"x_max":741,"o":"m 50 298 q 76 483 48 394 q 158 639 104 571 q 286 748 211 707 q 454 789 361 789 q 575 768 523 789 q 664 707 628 747 q 719 609 700 667 q 740 477 738 551 q 729 352 741 413 q 693 236 718 290 q 633 135 669 181 q 551 57 597 90 q 451 5 506 24 q 335 -14 397 -14 q 214 7 267 -14 q 126 68 162 28 q 71 166 90 108 q 50 298 52 224 m 362 71 q 424 89 397 71 q 473 138 452 107 q 508 209 494 168 q 532 295 523 250 q 545 387 541 340 q 547 478 548 434 q 517 646 545 591 q 431 701 488 701 q 368 683 396 701 q 319 634 340 665 q 282 564 298 604 q 258 478 267 524 q 244 387 248 433 q 241 297 240 340 q 272 127 244 183 q 362 71 300 71 z "},"p":{"ha":810,"x_min":16,"x_max":760,"o":"m 188 -353 l 16 -353 l 153 666 l 75 700 l 88 753 l 310 789 l 344 772 l 334 703 q 371 736 351 720 q 415 763 391 751 q 467 782 439 774 q 527 789 495 789 q 630 768 586 789 q 702 709 673 747 q 746 616 731 671 q 760 495 760 562 q 746 372 760 433 q 706 254 732 311 q 641 149 680 197 q 553 64 602 100 q 444 7 504 28 q 315 -14 384 -14 q 276 -11 296 -14 q 236 -5 256 -9 l 188 -353 m 250 91 q 288 78 267 81 q 335 75 309 75 q 412 93 378 75 q 473 141 446 111 q 518 213 499 172 q 550 300 537 254 q 568 395 562 346 q 574 490 574 444 q 567 568 574 532 q 547 628 560 603 q 513 667 533 653 q 468 681 494 681 q 423 673 444 681 q 383 652 401 665 q 348 622 364 639 q 319 589 332 606 l 250 91 z "},"q":{"ha":808,"x_min":49,"x_max":743,"o":"m 277 -14 q 174 9 217 -14 q 103 70 131 31 q 62 162 75 109 q 49 276 49 215 q 61 396 49 335 q 99 514 74 457 q 162 621 125 571 q 250 708 200 671 q 362 767 300 745 q 498 789 424 789 q 539 786 517 789 q 581 779 560 783 q 621 770 602 775 q 655 759 640 764 l 656 760 l 743 779 l 613 -199 q 612 -217 612 -208 q 616 -233 613 -226 q 623 -244 618 -240 q 634 -249 628 -249 q 661 -241 646 -249 q 701 -211 675 -233 l 721 -254 q 701 -277 716 -261 q 662 -310 686 -294 q 605 -339 637 -326 q 535 -351 573 -351 q 484 -343 505 -351 q 450 -322 463 -336 q 432 -290 437 -309 q 428 -248 427 -271 l 472 71 q 435 39 456 54 q 390 12 414 24 q 337 -7 366 0 q 277 -14 309 -14 m 336 94 q 381 102 359 94 q 422 123 403 110 q 458 152 441 136 q 488 186 475 169 l 557 686 q 520 696 540 693 q 479 700 501 700 q 399 681 435 700 q 336 631 363 663 q 289 557 309 599 q 258 469 270 515 q 240 376 245 423 q 234 285 234 328 q 261 143 234 193 q 336 94 288 94 z "},"r":{"ha":570,"x_min":73,"x_max":595,"o":"m 159 652 l 89 693 l 101 753 l 294 789 l 328 772 l 328 603 q 358 666 339 633 q 406 726 378 699 q 470 771 433 753 q 551 789 506 789 q 577 785 565 789 q 595 777 590 782 l 557 586 q 528 597 549 593 q 486 601 508 601 q 440 596 463 601 q 396 579 418 591 q 354 547 374 567 q 315 499 333 528 l 249 0 l 73 0 l 159 652 z "},"s":{"ha":596,"x_min":17,"x_max":554,"o":"m 45 149 q 75 129 56 140 q 117 108 94 118 q 169 92 140 98 q 227 85 197 85 q 268 88 247 85 q 307 101 290 92 q 336 129 325 111 q 348 175 348 146 q 338 220 348 199 q 313 259 329 240 q 274 295 296 277 q 227 330 252 312 q 183 367 207 345 q 138 418 159 389 q 104 484 117 448 q 90 565 90 521 q 113 661 90 619 q 176 731 136 703 q 268 774 215 760 q 379 789 320 789 q 434 786 406 789 q 486 780 462 784 q 528 772 509 777 q 554 764 546 768 l 527 637 q 510 653 522 643 q 478 673 497 663 q 435 689 460 682 q 380 696 410 696 q 339 692 359 696 q 302 677 319 688 q 276 651 286 667 q 263 611 265 635 q 269 566 262 587 q 292 526 277 545 q 329 487 307 506 q 378 448 351 467 q 430 404 404 427 q 477 352 456 380 q 510 288 497 323 q 522 210 522 253 q 497 110 522 152 q 431 40 473 68 q 336 0 390 13 q 226 -14 283 -14 q 161 -9 194 -14 q 99 1 128 -5 q 48 15 70 7 q 17 30 26 22 l 45 149 z "},"t":{"ha":495,"x_min":77,"x_max":508,"o":"m 87 108 q 87 117 87 111 q 89 136 87 123 q 92 173 90 149 q 100 234 95 196 l 159 682 l 77 682 l 92 748 l 176 780 q 202 813 189 793 q 229 859 216 834 q 254 909 242 883 q 275 960 266 936 l 372 960 l 349 783 l 508 783 l 494 682 l 336 682 l 279 264 q 272 202 275 229 q 269 157 269 176 q 280 112 269 125 q 322 98 292 98 q 351 102 335 98 q 385 113 368 106 q 417 128 401 119 q 444 146 433 136 l 459 92 q 421 58 446 77 q 365 23 397 39 q 295 -3 333 7 q 214 -14 256 -14 q 166 -8 189 -14 q 125 12 143 -2 q 97 50 108 26 q 87 108 87 73 z "},"u":{"ha":842,"x_min":78,"x_max":787,"o":"m 93 166 q 95 218 93 189 q 101 278 98 247 q 110 342 105 309 q 119 405 115 374 l 155 652 l 78 700 l 90 760 l 309 789 l 342 772 l 296 399 q 280 286 288 338 q 273 193 273 233 q 278 143 273 163 q 294 112 283 123 q 319 95 304 100 q 353 90 334 90 q 396 97 375 90 q 437 114 418 103 q 475 138 457 124 q 507 168 492 152 l 589 783 l 765 783 l 680 141 q 701 90 673 90 q 712 91 706 90 q 725 97 718 93 q 743 109 733 102 q 768 128 753 117 l 787 85 q 767 61 783 77 q 729 28 752 45 q 675 0 705 12 q 609 -13 644 -13 q 526 16 550 -13 q 509 92 502 45 q 469 53 492 72 q 418 20 446 35 q 355 -4 389 5 q 278 -14 320 -14 q 210 -5 243 -14 q 151 25 177 4 q 109 81 125 46 q 93 166 93 115 z "},"w":{"ha":1166,"x_min":4,"x_max":1146,"o":"m 170 241 l 100 641 q 89 670 96 662 q 71 679 81 678 q 46 673 58 680 q 24 660 35 667 l 4 707 q 22 727 8 713 q 57 754 36 741 q 105 778 78 768 q 163 789 132 789 q 245 765 219 789 q 277 696 271 741 l 325 264 l 337 130 l 393 283 l 576 783 l 730 783 l 791 253 l 806 130 l 874 243 q 904 300 887 264 q 938 378 922 335 q 966 470 954 421 q 980 568 978 519 q 978 608 981 589 q 970 644 975 627 q 963 676 966 661 q 960 705 960 691 q 982 766 960 744 q 1046 789 1005 789 q 1095 778 1076 789 q 1125 749 1114 768 q 1141 703 1137 730 q 1146 644 1146 676 q 1137 576 1146 613 q 1113 499 1128 539 q 1077 419 1097 460 q 1034 339 1056 378 q 988 264 1011 300 q 946 198 966 228 l 810 -5 l 666 -13 l 630 241 l 606 461 l 604 557 l 570 461 l 472 220 l 370 -4 l 217 -14 l 170 241 z "},"x":{"ha":691,"x_min":-41,"x_max":726,"o":"m 262 398 l 144 637 q 124 670 134 656 q 100 684 114 684 q 75 680 87 684 q 45 662 64 675 l 20 709 q 39 728 24 715 q 78 755 54 741 q 132 779 101 768 q 198 789 162 789 q 273 770 248 789 q 309 718 298 752 l 377 517 l 551 783 l 726 783 l 425 389 l 546 158 q 557 138 551 149 q 569 119 563 127 q 583 104 576 110 q 597 98 590 98 q 622 104 607 98 q 665 134 637 111 l 692 87 q 672 63 688 79 q 631 30 656 47 q 571 -1 606 12 q 496 -14 536 -14 q 454 -8 471 -14 q 425 6 437 -3 q 405 28 412 16 q 391 58 397 41 l 312 273 l 137 0 l -41 0 l 262 398 z "},"y":{"ha":731,"x_min":-83,"x_max":717,"o":"m -50 -196 q -30 -208 -44 -200 q 4 -222 -16 -215 q 48 -235 24 -230 q 100 -241 73 -241 q 154 -231 126 -241 q 209 -198 181 -221 q 263 -136 236 -174 q 318 -42 291 -98 l 231 -42 l 102 641 q 91 670 97 662 q 75 679 85 679 q 54 675 66 679 q 21 653 41 671 l 1 701 q 21 722 6 707 q 57 751 35 736 q 107 778 79 766 q 166 789 136 789 q 215 782 195 789 q 248 764 235 776 q 268 734 260 751 q 279 696 275 717 q 289 633 283 673 q 302 543 295 593 q 317 438 309 493 q 332 334 325 384 q 344 244 338 284 q 353 181 350 203 l 366 35 l 441 184 q 483 280 464 235 q 515 370 501 326 q 538 459 529 414 q 551 555 547 505 q 548 600 551 581 q 541 635 545 618 q 532 667 536 651 q 528 705 528 684 q 551 766 528 744 q 615 789 574 789 q 663 779 644 789 q 694 751 682 769 q 712 708 707 733 q 717 651 717 682 q 702 542 717 599 q 664 427 687 484 q 614 314 642 370 q 562 210 587 258 q 477 43 513 112 q 413 -73 441 -25 q 365 -154 386 -121 q 323 -212 343 -186 q 283 -261 307 -237 q 228 -304 259 -285 q 156 -335 196 -323 q 66 -347 116 -347 q 23 -345 46 -347 q -20 -338 1 -342 q -57 -330 -40 -334 q -83 -323 -74 -326 l -50 -196 l -50 -196 z "},"z":{"ha":702,"x_min":-8,"x_max":713,"o":"m 429 562 l 509 631 l 274 632 q 227 624 248 632 q 190 602 206 616 q 165 568 174 587 q 153 526 155 549 l 101 526 q 100 565 100 542 q 101 613 100 587 q 106 664 102 638 q 115 713 109 690 q 130 751 121 735 q 151 774 139 768 q 177 784 159 779 q 220 789 194 789 q 278 787 245 789 q 346 783 311 785 q 416 777 380 780 q 486 771 452 774 q 548 767 519 768 q 598 765 577 765 q 638 770 618 765 q 674 787 659 776 l 675 789 l 713 748 l 273 202 l 201 139 l 456 139 q 503 148 481 139 q 541 171 525 156 q 568 206 557 186 q 581 249 578 226 l 631 249 q 632 211 631 233 q 630 163 632 189 q 625 112 629 138 q 616 63 622 86 q 601 23 610 41 q 580 -2 592 6 q 554 -12 571 -8 q 511 -16 536 -16 q 451 -14 485 -16 q 378 -10 416 -12 q 301 -4 340 -7 q 225 1 262 -1 q 158 5 189 3 q 107 7 127 7 q 91 6 100 7 q 73 3 82 5 q 55 -3 64 1 q 39 -12 45 -7 l 36 -16 l -8 26 l 429 562 z "},"{":{"ha":701,"x_min":87,"x_max":692,"o":"m 172 -44 q 175 -20 172 -41 q 182 32 178 1 q 192 103 186 64 q 203 182 197 142 q 235 393 217 275 q 225 416 235 404 q 199 438 216 427 q 148 465 178 453 q 87 484 118 477 l 100 568 q 168 588 133 576 q 230 612 203 599 q 260 633 248 622 q 274 655 272 644 l 329 1016 q 352 1099 337 1066 q 390 1152 367 1133 q 444 1179 413 1171 q 515 1187 475 1187 q 568 1182 538 1187 q 626 1171 598 1177 q 692 1155 659 1163 q 686 1125 689 1139 q 682 1102 684 1114 q 680 1086 680 1090 l 493 1086 l 428 658 q 406 610 424 630 q 361 574 389 591 q 338 561 354 569 q 305 546 322 553 q 263 526 286 537 q 319 495 294 511 q 359 464 345 479 q 383 430 375 448 q 387 390 391 411 l 323 -37 l 509 -37 q 507 -53 508 -41 q 504 -77 505 -64 q 500 -109 502 -92 q 455 -122 477 -116 q 411 -132 433 -127 q 365 -139 389 -136 q 313 -141 341 -141 q 255 -136 281 -141 q 211 -120 229 -132 q 182 -91 192 -109 q 172 -44 172 -72 z "},"|":{"ha":579,"x_min":237,"x_max":368,"o":"m 237 1207 l 368 1207 l 368 -126 l 237 -126 l 237 1207 z "},"}":{"ha":701,"x_min":20,"x_max":625,"o":"m 540 1093 q 537 1068 540 1089 q 530 1016 534 1048 q 520 946 526 985 q 509 867 515 907 q 477 656 495 773 q 487 633 477 644 q 513 610 496 621 q 564 584 534 595 q 625 564 594 572 l 612 480 q 544 461 579 472 q 482 436 509 450 q 452 416 464 427 q 438 393 440 405 l 383 33 q 360 -51 375 -18 q 322 -103 345 -84 q 268 -130 299 -123 q 197 -138 237 -138 q 144 -133 174 -138 q 86 -122 114 -128 q 20 -106 54 -115 q 26 -77 23 -90 q 30 -54 28 -65 q 32 -37 32 -42 l 219 -37 l 284 391 q 306 438 288 418 q 351 475 324 458 q 374 487 358 479 q 407 503 390 495 q 449 522 427 511 q 393 553 418 538 q 353 585 368 569 q 329 619 337 600 q 325 659 321 638 l 389 1086 l 203 1086 q 206 1101 204 1090 q 208 1126 207 1113 q 212 1158 210 1141 q 257 1170 235 1164 q 301 1180 279 1176 q 347 1187 323 1185 q 399 1189 371 1189 q 457 1185 431 1189 q 502 1169 483 1180 q 530 1139 520 1158 q 540 1093 540 1120 z "},"~":{"ha":771,"x_min":88,"x_max":732,"o":"m 88 585 q 116 634 96 609 q 164 680 136 660 q 227 714 192 701 q 300 727 261 727 q 351 719 328 727 q 394 699 374 711 q 432 672 414 686 q 467 646 450 658 q 501 625 484 633 q 538 617 518 617 q 616 637 584 617 q 672 693 648 657 l 732 628 q 704 574 724 600 q 655 526 684 547 q 591 492 627 505 q 517 479 555 479 q 464 487 488 479 q 420 508 440 496 q 382 535 400 521 q 348 563 365 550 q 313 584 330 575 q 275 592 295 592 q 199 574 234 592 q 141 519 165 555 l 88 585 z "},"¡":{"ha":475,"x_min":43,"x_max":415,"o":"m 240 -294 l 43 -294 l 213 567 l 329 567 l 240 -294 m 414 829 q 400 781 412 802 q 371 743 389 759 q 332 719 353 728 q 289 711 310 711 q 247 719 264 711 q 218 740 229 727 q 202 771 207 753 q 198 808 197 789 q 212 858 199 836 q 242 895 224 880 q 282 918 260 910 q 327 926 305 926 q 361 919 345 926 q 390 899 378 911 q 409 868 402 886 q 414 829 415 850 z "},"!":{"ha":475,"x_min":82,"x_max":454,"o":"m 257 1206 l 454 1206 l 284 345 l 168 345 l 257 1206 m 83 83 q 97 131 85 109 q 126 168 109 153 q 165 192 144 184 q 208 201 187 201 q 250 193 233 201 q 279 171 268 184 q 295 140 290 158 q 299 104 300 123 q 286 53 298 75 q 255 16 273 31 q 215 -6 237 1 q 170 -14 193 -14 q 136 -7 152 -14 q 107 13 119 0 q 89 43 95 25 q 83 83 82 61 z "},"£":{"ha":937,"x_min":-37,"x_max":892,"o":"m 26 -14 q 2 -11 14 -14 q -19 0 -10 -7 q -32 19 -28 7 q -35 47 -37 31 q -19 84 -34 66 q 19 118 -5 103 q 73 142 43 133 q 138 152 104 152 q 156 184 146 165 q 173 224 165 203 q 186 268 180 245 q 195 311 192 290 l 227 498 l 117 498 l 130 604 l 245 604 l 258 680 q 283 777 265 729 q 329 867 302 825 q 390 945 355 909 q 467 1007 425 981 q 554 1047 508 1033 q 652 1061 601 1061 q 707 1059 680 1061 q 760 1049 734 1056 q 806 1030 785 1042 q 844 1001 827 1019 l 771 873 q 756 893 768 879 q 724 922 745 907 q 675 948 704 937 q 610 960 646 960 q 562 949 587 960 q 514 912 537 939 q 472 838 492 885 q 441 715 453 790 q 438 700 440 711 q 434 674 436 689 q 428 641 431 659 q 420 604 425 623 l 613 604 l 602 498 l 401 498 q 393 454 396 473 q 389 430 391 436 q 362 320 379 367 q 328 238 346 273 q 291 177 309 203 q 260 131 273 151 q 319 116 288 125 q 381 101 349 108 q 446 89 413 94 q 511 83 478 83 q 616 95 574 83 q 682 126 657 106 q 715 173 706 146 q 725 231 725 200 q 719 264 725 248 q 705 295 713 281 q 685 320 696 309 q 665 339 675 332 l 782 444 q 823 407 803 429 q 858 357 843 385 q 883 298 873 330 q 892 232 892 267 q 875 144 892 188 q 819 65 859 100 q 714 8 779 30 q 551 -14 648 -14 q 449 -6 497 -14 q 356 14 401 2 q 270 39 312 26 q 187 63 229 52 q 158 37 176 50 q 118 12 140 23 q 73 -6 97 1 q 26 -14 50 -14 z "},"§":{"ha":810,"x_min":36,"x_max":769,"o":"m 68 159 l 168 159 l 189 12 q 258 -26 213 -14 q 354 -39 302 -39 q 412 -31 382 -39 q 468 -7 442 -24 q 512 36 494 9 q 532 102 530 62 q 516 158 534 134 q 467 202 498 182 q 395 240 435 222 q 312 278 355 258 q 230 321 270 298 q 159 375 190 345 q 111 446 128 406 q 96 539 93 486 q 126 647 99 597 q 190 734 153 696 q 153 798 166 763 q 143 879 140 833 q 163 958 146 922 q 207 1022 180 994 q 268 1072 233 1050 q 340 1107 302 1093 q 418 1128 378 1121 q 496 1135 458 1135 q 593 1130 549 1135 q 671 1118 637 1125 q 731 1101 706 1110 q 769 1084 755 1093 l 738 870 l 642 870 l 614 1011 q 563 1040 596 1029 q 481 1050 530 1051 q 427 1046 456 1050 q 371 1028 397 1041 q 326 990 345 1015 q 304 926 307 966 q 320 863 302 890 q 369 814 338 836 q 440 773 400 792 q 522 735 480 755 q 604 693 564 716 q 674 641 644 671 q 722 571 705 610 q 736 477 739 531 q 708 362 732 414 q 648 272 683 311 q 682 210 670 243 q 692 132 694 176 q 673 55 689 90 q 632 -9 657 20 q 572 -60 606 -38 q 500 -96 538 -81 q 420 -119 462 -111 q 338 -126 379 -126 q 243 -121 292 -126 q 154 -108 195 -116 q 80 -90 112 -100 q 36 -72 49 -81 l 68 159 m 248 589 q 260 532 246 557 q 297 487 273 507 q 354 449 321 467 q 422 415 387 432 q 495 380 458 398 q 566 341 532 362 q 581 375 576 357 q 588 412 587 393 q 577 471 590 445 q 541 518 564 497 q 485 557 517 539 q 417 592 453 575 q 345 627 382 609 q 274 665 307 644 q 257 629 264 648 q 248 589 250 610 z "},"¨":{"ha":549,"x_min":26,"x_max":524,"o":"m 410 924 q 375 932 391 924 q 347 954 359 941 q 328 985 335 968 q 322 1022 321 1003 q 331 1066 323 1045 q 354 1103 340 1087 q 388 1127 368 1118 q 431 1137 408 1137 q 470 1129 453 1137 q 499 1108 488 1121 q 518 1078 511 1095 q 524 1043 524 1061 q 515 998 523 1019 q 492 960 507 976 q 457 934 477 943 q 410 924 436 924 m 114 924 q 79 932 96 924 q 51 954 63 941 q 33 985 39 968 q 26 1022 26 1003 q 36 1066 27 1045 q 58 1103 44 1087 q 92 1127 73 1118 q 136 1137 112 1137 q 175 1129 157 1137 q 204 1108 192 1121 q 222 1078 216 1095 q 228 1043 229 1061 q 219 998 227 1019 q 196 960 211 976 q 161 934 182 943 q 114 924 140 924 z "},"©":{"ha":1199,"x_min":114,"x_max":1152,"o":"m 114 547 q 133 685 114 618 q 185 808 151 751 q 267 913 219 866 q 372 994 314 960 q 495 1046 429 1027 q 633 1064 562 1064 q 770 1046 704 1064 q 895 994 837 1027 q 1000 913 952 960 q 1081 808 1047 866 q 1134 685 1115 751 q 1152 547 1152 618 q 1134 408 1152 475 q 1081 284 1115 342 q 1000 180 1047 227 q 895 99 952 132 q 770 47 837 65 q 633 28 704 28 q 495 47 562 28 q 372 99 429 65 q 267 180 314 132 q 185 284 219 227 q 133 408 151 342 q 114 547 114 475 m 201 547 q 217 430 201 486 q 260 325 232 374 q 327 236 288 276 q 414 167 366 196 q 517 123 462 138 q 633 107 572 107 q 749 123 693 107 q 852 167 804 138 q 940 236 901 196 q 1006 325 979 276 q 1049 430 1034 374 q 1065 547 1065 486 q 1049 663 1065 607 q 1006 768 1034 719 q 940 857 979 817 q 852 926 901 897 q 749 970 804 954 q 633 986 693 986 q 517 970 572 986 q 414 926 462 954 q 327 857 366 897 q 260 768 288 817 q 217 663 232 719 q 201 547 201 607 m 368 544 q 387 660 367 605 q 444 756 406 715 q 535 821 481 797 q 657 846 589 846 q 704 844 680 846 q 749 838 728 842 q 788 830 770 835 q 816 820 806 825 l 816 671 l 755 671 l 722 752 q 685 772 707 766 q 636 779 663 779 q 579 765 606 779 q 532 727 552 752 q 501 666 513 703 q 489 584 489 630 q 503 465 488 513 q 541 387 517 416 q 593 345 564 357 q 650 332 622 332 q 738 344 699 332 q 800 369 777 356 l 823 311 q 787 287 808 298 q 739 268 765 276 q 684 254 713 259 q 624 248 654 248 q 515 272 563 248 q 435 335 468 295 q 385 429 402 376 q 368 544 368 483 z "},"«":{"ha":1274,"x_min":142,"x_max":1130,"o":"m 157 468 l 640 740 l 672 642 l 343 414 l 610 189 l 553 100 l 142 359 l 157 468 m 614 468 l 1097 740 l 1130 642 l 801 414 l 1068 189 l 1010 100 l 600 359 l 614 468 z "},"‹":{"ha":807,"x_min":154,"x_max":684,"o":"m 169 468 l 652 740 l 684 642 l 355 414 l 623 189 l 565 100 l 154 359 l 169 468 z "},"®":{"ha":1199,"x_min":114,"x_max":1152,"o":"m 114 547 q 133 685 114 618 q 185 808 151 751 q 267 913 219 866 q 372 994 314 960 q 495 1046 429 1027 q 633 1064 562 1064 q 770 1046 704 1064 q 895 994 837 1027 q 1000 913 952 960 q 1081 808 1047 866 q 1134 685 1115 751 q 1152 547 1152 618 q 1134 408 1152 475 q 1081 284 1115 342 q 1000 180 1047 227 q 895 99 952 132 q 770 47 837 65 q 633 28 704 28 q 495 47 562 28 q 372 99 429 65 q 267 180 314 132 q 185 284 219 227 q 133 408 151 342 q 114 547 114 475 m 201 547 q 217 430 201 486 q 260 325 232 374 q 327 236 288 276 q 414 167 366 196 q 517 123 462 138 q 633 107 572 107 q 749 123 693 107 q 852 167 804 138 q 940 236 901 196 q 1006 325 979 276 q 1049 430 1034 374 q 1065 547 1065 486 q 1049 663 1065 607 q 1006 768 1034 719 q 940 857 979 817 q 852 926 901 897 q 749 970 804 954 q 633 986 693 986 q 517 970 572 986 q 414 926 462 954 q 327 857 366 897 q 260 768 288 817 q 217 663 232 719 q 201 547 201 607 m 385 304 l 441 318 l 441 769 l 385 784 l 385 841 l 486 841 q 517 841 504 840 q 547 841 530 841 q 586 843 563 842 q 647 844 609 844 q 742 833 701 844 q 810 801 783 822 q 852 752 838 781 q 868 688 867 723 q 863 634 868 661 q 842 584 858 608 q 796 542 826 561 q 715 510 766 523 q 769 464 749 491 q 805 408 790 436 q 834 355 821 380 q 869 315 848 330 q 887 309 878 311 q 907 307 897 307 l 907 254 l 782 254 q 758 267 768 254 q 738 300 748 279 q 716 346 728 320 q 690 399 705 372 q 654 452 675 427 q 606 498 634 478 l 553 498 l 553 318 l 618 304 l 618 254 l 385 254 l 385 304 m 553 572 q 593 567 570 568 q 642 566 616 566 q 686 575 667 566 q 718 598 705 583 q 738 632 731 612 q 745 673 745 651 q 736 719 745 700 q 712 750 728 738 q 676 768 697 762 q 629 773 654 773 q 610 773 618 773 q 593 773 602 773 q 575 771 585 772 q 553 766 566 769 l 553 572 z "},"¯":{"ha":416,"x_min":18,"x_max":385,"o":"m 19 1081 l 385 1081 l 384 960 l 18 960 l 19 1081 z "},"°":{"ha":629,"x_min":130,"x_max":594,"o":"m 355 641 q 264 659 306 641 q 193 707 223 677 q 147 779 163 738 q 131 867 130 820 q 150 956 132 915 q 200 1028 168 998 q 274 1075 231 1058 q 368 1093 317 1093 q 458 1075 417 1093 q 530 1026 500 1057 q 577 955 560 996 q 593 867 594 913 q 574 777 593 818 q 524 705 556 735 q 449 658 492 675 q 355 641 406 641 m 359 735 q 410 745 387 735 q 450 772 433 755 q 476 814 467 790 q 486 867 486 838 q 477 918 487 894 q 452 960 468 942 q 413 988 435 977 q 364 998 390 998 q 314 988 337 998 q 274 961 291 979 q 248 919 258 943 q 238 867 239 895 q 247 815 237 840 q 272 774 256 791 q 311 746 289 756 q 359 735 334 735 z "},"±":{"ha":916,"x_min":122,"x_max":789,"o":"m 389 357 l 407 468 l 311 463 l 169 463 l 181 584 l 330 584 l 425 576 l 433 688 l 452 844 l 586 844 l 568 688 l 549 577 l 627 584 l 789 584 l 777 463 l 608 463 l 532 468 q 528 412 530 439 q 524 357 526 385 l 506 193 l 371 193 l 389 357 m 134 122 l 716 122 l 705 10 l 122 10 l 134 122 z "},"´":{"ha":379,"x_min":34,"x_max":362,"o":"m 34 890 l 249 1182 l 362 1062 q 339 1032 356 1050 q 298 991 321 1013 q 245 946 274 969 q 189 902 217 923 q 134 865 160 882 q 87 842 107 849 l 34 890 z "},"¶":{"ha":925,"x_min":74,"x_max":945,"o":"m 138 59 l 264 79 l 318 492 q 221 511 265 493 q 144 563 176 530 q 94 641 112 595 q 75 743 75 687 q 97 878 74 818 q 170 979 120 937 q 298 1043 220 1021 q 485 1065 376 1065 q 560 1064 528 1065 q 623 1060 593 1062 q 684 1055 652 1057 q 756 1053 715 1053 l 945 1053 l 937 983 l 824 960 q 798 744 812 855 q 768 519 783 632 q 739 296 753 407 q 713 79 725 184 l 811 58 l 805 0 l 543 0 l 662 959 l 530 959 l 410 0 l 133 0 l 138 59 z "},"·":{"ha":475,"x_min":127,"x_max":338,"o":"m 128 521 q 140 569 130 547 q 168 606 151 591 q 205 630 184 622 q 247 639 226 639 q 289 631 271 639 q 318 609 307 623 q 334 578 329 596 q 338 542 338 561 q 325 491 336 513 q 296 454 313 469 q 256 432 278 439 q 212 424 235 424 q 178 431 194 424 q 151 451 162 438 q 133 481 139 463 q 128 521 127 499 z "},"¸":{"ha":325,"x_min":-11,"x_max":296,"o":"m 222 23 l 268 20 q 280 -8 275 10 q 290 -48 286 -26 q 295 -96 294 -71 q 295 -144 296 -121 q 242 -280 289 -239 q 103 -321 196 -321 q 72 -320 90 -321 q 38 -316 55 -319 q 8 -310 22 -313 q -11 -302 -5 -307 l 13 -206 q 35 -214 22 -211 q 64 -216 48 -216 q 107 -210 87 -216 q 144 -190 128 -204 q 170 -152 160 -176 q 183 -93 180 -128 q 183 -24 186 -52 q 176 20 180 4 l 222 23 z "},"»":{"ha":1274,"x_min":79,"x_max":1067,"o":"m 594 372 l 111 100 l 79 198 l 408 426 l 140 650 l 198 740 l 609 480 l 594 372 m 1053 372 l 570 100 l 537 198 l 866 426 l 599 650 l 657 740 l 1067 480 l 1053 372 z "},"¿":{"ha":692,"x_min":50,"x_max":586,"o":"m 412 759 q 349 784 372 759 q 326 846 326 808 q 338 899 326 876 q 368 939 350 922 q 409 964 387 956 q 454 973 432 973 q 491 966 474 973 q 519 947 507 959 q 536 918 530 935 q 543 883 543 901 q 530 831 543 854 q 499 792 518 808 q 457 767 480 776 q 412 759 434 759 m 50 3 q 66 113 50 66 q 110 195 83 160 q 172 256 137 230 q 243 304 207 282 q 314 348 279 327 q 377 395 349 370 q 422 453 405 420 q 440 530 439 486 q 433 572 440 551 q 425 606 427 593 l 532 642 l 542 641 q 559 615 551 631 q 573 581 567 600 q 583 540 579 562 q 586 498 586 519 q 568 427 586 459 q 520 366 550 394 q 451 312 490 337 q 371 262 412 287 q 272 201 313 231 q 213 142 231 170 q 204 110 208 127 q 199 76 200 92 q 216 -12 198 28 q 267 -81 234 -52 q 344 -127 299 -111 q 443 -144 389 -144 q 509 -135 473 -144 q 574 -113 545 -127 l 546 -235 q 521 -250 538 -242 q 482 -264 504 -258 q 435 -274 460 -270 q 390 -277 411 -277 q 229 -253 294 -277 q 124 -190 163 -229 q 67 -100 84 -151 q 50 3 50 -50 z "},"ß":{"ha":810,"x_min":27,"x_max":775,"o":"m 105 629 q 144 803 119 730 q 204 925 170 876 q 278 1004 238 975 q 361 1050 319 1034 q 447 1070 404 1065 q 530 1075 490 1075 q 624 1062 579 1075 q 702 1024 669 1049 q 755 961 736 998 q 775 873 775 923 q 761 789 775 824 q 725 730 747 755 q 679 687 704 705 q 633 651 654 669 q 597 615 612 634 q 583 570 583 597 q 588 545 583 558 q 602 517 593 532 q 626 482 612 501 q 659 438 640 463 q 692 394 675 417 q 725 344 710 371 q 750 287 740 317 q 760 220 760 256 q 737 125 760 168 q 674 52 714 82 q 582 5 635 22 q 467 -11 528 -11 q 361 -1 404 -11 q 294 21 318 9 l 312 148 q 335 125 320 138 q 370 103 351 113 q 411 85 389 92 q 452 79 432 79 q 498 82 476 79 q 537 96 520 85 q 564 130 554 107 q 574 191 574 152 q 569 233 574 212 q 554 277 563 255 q 534 318 545 298 q 513 355 524 338 q 485 395 499 372 q 458 442 470 418 q 438 491 446 467 q 431 538 431 515 q 436 581 431 562 q 451 615 441 600 q 474 646 460 631 q 503 677 487 661 q 569 767 544 720 q 595 873 595 814 q 588 920 595 898 q 569 958 582 941 q 536 983 556 974 q 490 993 517 993 q 419 971 452 993 q 360 901 387 949 q 313 776 333 853 q 279 588 292 699 l 206 0 l 27 0 l 105 629 z "},"ø":{"ha":793,"x_min":41,"x_max":744,"o":"m 128 67 q 50 299 54 149 q 76 484 48 395 q 158 641 104 572 q 286 749 211 709 q 454 790 361 790 q 531 782 496 790 q 596 760 566 774 l 684 884 l 744 850 l 652 720 q 740 478 736 638 q 729 353 741 414 q 693 237 718 292 q 633 137 669 182 q 551 58 597 91 q 451 6 506 25 q 335 -12 397 -12 q 182 24 243 -12 l 102 -90 l 41 -56 l 128 67 m 513 652 q 431 702 484 702 q 368 684 396 702 q 319 636 340 666 q 282 565 298 606 q 258 480 267 525 q 244 388 248 435 q 241 298 240 342 q 245 229 242 260 l 513 652 m 268 138 q 362 73 297 73 q 424 91 397 73 q 473 139 452 109 q 508 210 494 170 q 532 296 523 251 q 545 388 541 341 q 547 479 548 435 q 545 526 547 505 q 541 568 544 548 l 268 138 z "},"–":{"ha":1046,"x_min":163,"x_max":930,"o":"m 186 584 l 930 584 l 907 464 l 163 464 l 186 584 z "},"—":{"ha":1379,"x_min":163,"x_max":1263,"o":"m 184 584 l 1263 584 l 1241 464 l 163 464 l 184 584 z "},"‘":{"ha":469,"x_min":136,"x_max":440,"o":"m 261 629 q 203 658 227 637 q 164 705 179 678 q 142 764 149 732 q 136 827 136 795 q 160 952 136 897 q 224 1052 185 1008 q 311 1126 263 1095 q 404 1176 358 1157 l 440 1116 l 439 1101 q 387 1070 412 1093 q 342 1018 361 1048 q 311 952 323 988 q 299 882 299 917 q 304 841 299 860 q 319 807 309 821 q 341 783 328 792 q 370 772 354 774 l 367 744 l 261 629 l 261 629 z "},"’":{"ha":469,"x_min":142,"x_max":446,"o":"m 321 1173 q 379 1144 355 1164 q 418 1097 403 1124 q 439 1038 433 1070 q 446 975 446 1006 q 421 849 446 905 q 358 750 397 794 q 271 676 319 707 q 178 626 224 645 l 142 686 l 143 701 q 195 731 170 709 q 240 784 220 754 q 271 849 259 814 q 283 920 283 885 q 278 961 283 942 q 263 995 273 981 q 241 1019 254 1010 q 212 1030 228 1028 l 215 1058 l 321 1173 l 321 1173 z "},"‚":{"ha":463,"x_min":26,"x_max":331,"o":"m 206 197 q 263 168 239 189 q 302 121 288 148 q 324 62 317 94 q 331 -1 331 31 q 306 -126 331 -70 q 242 -226 281 -182 q 156 -300 203 -269 q 62 -350 109 -331 l 26 -290 l 28 -275 q 80 -244 54 -266 q 124 -192 105 -222 q 156 -126 144 -162 q 168 -56 168 -91 q 162 -15 168 -34 q 148 19 157 5 q 125 43 138 34 q 96 54 113 52 l 100 82 l 206 197 l 206 197 z "},"“":{"ha":794,"x_min":136,"x_max":772,"o":"m 593 629 q 535 658 559 637 q 496 705 511 678 q 475 764 481 732 q 468 827 468 795 q 493 952 468 897 q 556 1052 517 1008 q 643 1126 595 1095 q 736 1176 690 1157 l 772 1116 l 771 1101 q 719 1070 745 1093 q 674 1018 694 1048 q 643 952 655 988 q 631 882 631 917 q 636 841 631 860 q 651 807 642 821 q 673 783 661 792 q 703 772 686 774 l 699 744 l 593 629 l 593 629 m 262 629 q 204 658 228 637 q 165 705 180 678 q 143 764 150 732 q 136 827 136 795 q 161 952 136 897 q 225 1052 186 1008 q 311 1126 264 1095 q 405 1176 359 1157 l 441 1116 l 439 1101 q 388 1070 413 1093 q 343 1018 362 1048 q 312 952 323 988 q 300 882 300 917 q 305 841 300 860 q 319 807 310 821 q 342 783 329 792 q 371 772 355 774 l 368 744 l 262 629 l 262 629 z "},"”":{"ha":794,"x_min":148,"x_max":784,"o":"m 659 1173 q 716 1144 692 1164 q 755 1097 741 1124 q 777 1038 770 1070 q 784 975 784 1006 q 759 849 784 905 q 695 750 734 794 q 609 676 656 707 q 515 626 562 645 l 479 686 l 481 701 q 533 731 507 709 q 577 784 558 754 q 609 849 597 814 q 621 920 621 885 q 615 961 621 942 q 601 995 610 981 q 578 1019 591 1010 q 549 1030 566 1028 l 553 1058 l 659 1173 l 659 1173 m 327 1173 q 385 1144 361 1164 q 424 1097 409 1124 q 446 1038 439 1070 q 452 975 452 1006 q 428 849 452 905 q 364 750 403 794 q 277 676 325 707 q 184 626 230 645 l 148 686 l 149 701 q 201 731 176 709 q 246 784 227 754 q 277 849 265 814 q 289 920 289 885 q 284 961 289 942 q 269 995 279 981 q 247 1019 260 1010 q 218 1030 234 1028 l 221 1058 l 327 1173 l 327 1173 z "},"„":{"ha":794,"x_min":20,"x_max":650,"o":"m 199 197 q 257 168 233 189 q 296 121 281 148 q 318 62 311 94 q 325 -1 325 31 q 300 -126 325 -70 q 236 -226 275 -182 q 150 -300 197 -269 q 56 -350 102 -331 l 20 -290 l 22 -275 q 74 -244 48 -266 q 118 -192 99 -222 q 150 -126 138 -162 q 161 -56 161 -91 q 156 -15 161 -34 q 142 19 151 5 q 119 43 132 34 q 90 54 106 52 l 94 82 l 199 197 l 199 197 m 524 197 q 582 168 558 189 q 621 121 606 148 q 643 62 636 94 q 650 -1 650 31 q 625 -126 650 -70 q 561 -226 600 -182 q 475 -300 522 -269 q 381 -350 427 -331 l 345 -290 l 347 -275 q 398 -244 373 -266 q 443 -192 424 -222 q 474 -126 463 -162 q 486 -56 486 -91 q 481 -15 486 -34 q 467 19 476 5 q 444 43 457 34 q 415 54 431 52 l 418 82 l 524 197 l 524 197 z "},"†":{"ha":553,"x_min":81,"x_max":592,"o":"m 248 684 l 264 758 l 81 758 l 98 873 l 296 873 q 296 899 296 882 q 297 935 296 916 q 297 971 297 954 q 298 996 297 988 l 312 1116 l 461 1116 l 441 996 l 401 873 l 592 873 l 576 758 l 399 758 l 396 684 l 280 102 l 180 102 l 248 684 z "},"•":{"ha":582,"x_min":134,"x_max":460,"o":"m 272 326 q 218 337 243 326 q 175 367 193 348 q 145 411 156 386 q 134 463 134 435 q 148 532 134 498 q 187 594 162 566 q 246 638 212 621 q 322 655 281 655 q 376 645 351 655 q 419 616 401 634 q 449 574 438 598 q 460 521 460 549 q 447 452 460 486 q 410 389 434 417 q 351 344 386 361 q 272 326 316 326 z "},"›":{"ha":807,"x_min":76,"x_max":606,"o":"m 591 372 l 109 100 l 76 198 l 405 426 l 138 650 l 195 740 l 606 480 l 591 372 z "},"\"":{"ha":717,"x_min":152,"x_max":718,"o":"m 205 1144 l 380 1144 l 267 655 l 152 655 l 205 1144 m 544 1144 l 718 1144 l 606 655 l 490 655 l 544 1144 z "},"µ":{"ha":925,"x_min":55,"x_max":814,"o":"m 208 -252 l 55 -252 l 128 243 q 142 338 134 291 q 157 432 150 385 q 172 530 165 480 q 183 633 178 580 q 177 668 184 658 q 161 678 171 678 q 140 673 151 678 q 113 659 128 668 l 93 703 q 111 722 98 709 q 146 749 125 735 q 198 774 168 763 q 267 785 229 785 q 309 780 290 785 q 341 766 328 776 q 362 739 355 755 q 368 697 369 722 q 356 582 364 643 q 338 462 347 522 q 328 404 333 432 q 319 346 323 375 q 312 288 315 317 q 310 227 310 258 q 317 164 310 189 q 335 124 323 139 q 363 103 347 109 q 397 98 379 98 q 445 107 422 98 q 486 130 467 116 q 520 160 505 144 q 550 192 536 177 l 628 779 l 804 779 l 720 141 q 741 90 713 90 q 766 97 751 90 q 794 115 781 105 l 814 72 q 794 49 809 63 q 758 21 780 35 q 708 -3 736 7 q 649 -13 680 -13 q 611 -9 629 -13 q 581 5 593 -5 q 563 33 569 15 q 561 80 557 52 q 529 50 547 66 q 487 20 511 34 q 431 -4 463 5 q 360 -14 400 -14 q 297 -4 328 -14 q 248 23 266 5 l 208 -252 z "},"¬":{"ha":929,"x_min":143,"x_max":812,"o":"m 155 585 l 812 585 l 770 218 l 637 218 l 667 482 l 143 482 l 155 585 z "},"¥":{"ha":1006,"x_min":123,"x_max":1060,"o":"m 231 66 l 399 86 l 419 255 l 159 255 l 170 349 l 430 349 l 447 486 l 185 486 l 196 581 l 404 581 l 202 959 l 123 974 l 132 1046 l 532 1046 l 524 974 l 403 960 l 528 685 l 560 600 l 614 688 l 792 962 l 705 974 l 713 1046 l 1060 1046 l 1051 975 l 961 956 l 676 581 l 871 581 l 861 486 l 608 486 l 591 349 l 844 349 l 833 255 l 580 255 l 559 86 l 733 66 l 727 0 l 224 0 l 231 66 z "},"÷":{"ha":929,"x_min":176,"x_max":801,"o":"m 506 699 q 471 706 488 699 q 442 726 454 713 q 423 756 430 739 q 418 796 416 774 q 431 844 419 823 q 460 881 442 866 q 499 905 477 897 q 542 913 521 913 q 584 905 566 913 q 613 884 602 897 q 629 853 625 871 q 633 817 634 836 q 620 766 632 788 q 590 730 608 745 q 550 707 572 715 q 506 699 528 699 m 188 585 l 801 585 l 789 465 l 176 465 l 188 585 m 347 233 q 360 281 349 260 q 389 318 372 303 q 428 342 407 334 q 471 351 450 351 q 513 342 496 351 q 542 321 531 334 q 558 290 553 308 q 562 254 563 273 q 549 203 561 225 q 519 167 537 182 q 479 144 501 152 q 435 136 457 136 q 400 143 416 136 q 371 163 383 151 q 352 194 359 176 q 347 233 346 212 z "},"Ç":{"ha":873,"x_min":51,"x_max":869,"o":"m 247 -205 q 269 -212 256 -210 q 298 -215 282 -215 q 341 -209 321 -215 q 378 -189 362 -203 q 404 -151 394 -174 q 417 -92 414 -127 q 416 -10 420 -43 q 249 31 317 -7 q 136 130 180 68 q 73 268 93 191 q 52 429 53 346 q 92 686 51 571 q 208 882 134 801 q 383 1006 281 962 q 603 1050 484 1050 q 692 1046 654 1050 q 758 1038 730 1043 q 807 1028 786 1034 q 845 1018 827 1022 l 869 1011 l 825 751 l 700 751 l 679 944 q 634 960 659 954 q 576 966 609 966 q 469 942 516 966 q 386 878 422 918 q 325 785 350 838 q 283 674 299 732 q 261 556 268 616 q 256 443 254 496 q 270 301 258 366 q 307 187 282 235 q 371 111 332 138 q 465 83 410 83 q 505 86 483 83 q 550 95 528 88 q 594 113 573 101 q 629 144 614 125 q 641 167 634 149 q 656 207 648 185 q 670 249 664 229 q 680 279 677 269 l 789 279 l 761 70 q 723 50 745 61 q 669 27 700 39 q 601 7 639 16 q 515 -7 562 -2 q 527 -71 523 -33 q 529 -142 530 -108 q 476 -279 523 -237 q 337 -320 430 -320 q 306 -319 323 -320 q 272 -315 289 -317 q 242 -309 256 -312 q 223 -301 229 -305 l 247 -205 l 247 -205 z "},"Æ":{"ha":1320,"x_min":-111,"x_max":1279,"o":"m 502 950 l 289 966 l 299 1038 l 1276 1038 l 1261 814 l 1154 814 l 1126 947 l 872 960 l 825 589 l 1109 599 l 1098 472 l 814 486 l 763 85 l 1099 106 l 1172 269 l 1279 254 l 1233 0 l 464 0 l 472 65 l 577 85 l 604 302 l 283 302 l 168 85 l 296 65 l 291 0 l -111 0 l -103 65 l 3 85 l 502 950 m 614 395 l 682 947 l 626 949 l 332 395 l 614 395 z "},"¢":{"ha":716,"x_min":85,"x_max":666,"o":"m 273 -6 q 136 92 184 15 q 86 298 87 169 q 94 398 85 347 q 121 498 103 449 q 168 593 140 548 q 232 676 195 639 q 315 740 269 713 q 417 779 361 767 l 450 921 l 552 921 l 520 788 q 597 780 557 787 q 666 760 637 772 l 617 588 q 584 613 603 597 q 545 646 565 630 q 504 674 524 662 q 465 686 483 686 q 394 659 429 686 q 332 583 359 632 q 288 465 304 534 q 273 312 271 396 q 282 214 273 255 q 307 148 291 174 q 347 110 323 122 q 401 98 371 98 q 454 103 430 98 q 499 120 477 109 q 540 145 520 130 q 581 180 559 161 l 615 117 q 581 80 603 100 q 529 40 559 59 q 459 7 498 22 q 374 -12 420 -7 l 349 -146 l 248 -146 l 273 -6 l 273 -6 z "},"æ":{"ha":1160,"x_min":49,"x_max":1127,"o":"m 253 -14 q 156 8 195 -14 q 93 67 117 30 q 59 156 69 105 q 49 266 49 208 q 63 387 49 325 q 105 506 77 448 q 174 616 133 564 q 267 706 214 667 q 385 766 320 744 q 525 789 449 789 q 597 782 559 789 q 666 765 635 774 l 734 789 l 725 731 q 817 774 768 759 q 920 789 866 789 q 1013 775 974 789 q 1076 739 1051 762 q 1114 685 1101 716 q 1126 618 1126 654 q 1106 520 1127 564 q 1049 443 1085 477 q 968 385 1014 409 q 874 344 922 360 q 780 319 827 328 q 696 311 733 311 q 700 223 694 262 q 721 155 706 183 q 760 110 735 126 q 822 94 785 94 q 945 123 890 94 q 1045 197 1000 152 l 1082 134 q 1041 87 1068 113 q 974 39 1013 61 q 886 1 935 16 q 777 -14 836 -14 q 681 -1 723 -14 q 607 36 638 12 q 555 92 576 59 q 522 165 534 125 q 477 103 504 134 q 417 45 451 71 q 342 3 383 20 q 253 -14 301 -14 m 698 389 q 749 397 721 390 q 804 416 777 404 q 859 447 832 429 q 905 489 885 465 q 937 542 925 513 q 948 604 949 570 q 929 679 947 654 q 879 703 911 703 q 825 688 849 703 q 781 648 800 673 q 747 591 762 623 q 723 523 733 558 q 707 453 713 488 q 698 389 701 418 m 310 102 q 371 119 342 102 q 426 159 400 135 q 472 213 451 184 q 507 267 492 241 l 507 286 l 494 273 l 560 694 q 537 699 549 698 q 511 700 525 700 q 425 681 464 700 q 355 629 386 661 q 301 553 324 596 q 264 464 279 511 q 241 369 249 417 q 234 277 234 321 q 238 207 234 239 q 251 152 242 175 q 275 115 260 128 q 310 102 290 102 z "},"ˆ":{"ha":539,"x_min":34,"x_max":526,"o":"m 34 872 l 269 1126 l 390 1126 l 526 872 l 458 833 l 312 991 l 90 833 l 34 872 z "},"ˇ":{"ha":538,"x_min":41,"x_max":532,"o":"m 41 1086 l 106 1126 l 258 972 q 283 991 266 979 q 321 1018 300 1003 q 366 1049 342 1033 q 412 1080 390 1065 q 450 1107 433 1095 q 475 1126 467 1119 l 532 1087 l 307 846 l 188 846 l 41 1086 z "},"˘":{"ha":486,"x_min":37,"x_max":471,"o":"m 241 882 q 149 901 187 882 q 85 951 111 920 q 49 1022 60 983 q 37 1101 37 1061 q 39 1130 37 1116 l 138 1130 q 138 1118 138 1124 q 138 1104 138 1112 q 146 1070 140 1088 q 163 1038 151 1053 q 194 1015 174 1024 q 245 1005 214 1005 q 306 1018 282 1005 q 344 1050 330 1031 q 365 1090 358 1069 q 375 1130 372 1112 l 471 1130 q 471 1119 471 1124 q 471 1107 471 1113 q 452 1027 468 1067 q 407 955 435 987 q 336 902 378 922 q 241 882 295 882 z "},"˚":{"ha":490,"x_min":48,"x_max":496,"o":"m 250 850 q 161 862 199 850 q 98 897 123 874 q 60 952 73 920 q 51 1025 48 985 q 78 1115 54 1078 q 139 1174 102 1152 q 218 1207 175 1197 q 299 1217 260 1217 q 382 1206 345 1217 q 445 1172 420 1194 q 484 1119 471 1150 q 494 1047 496 1087 q 469 959 492 996 q 412 898 447 922 q 335 862 378 873 q 250 850 293 850 m 262 928 q 306 932 285 928 q 343 949 327 937 q 370 983 359 962 q 382 1036 380 1004 q 376 1078 383 1059 q 356 1111 369 1097 q 325 1132 343 1124 q 286 1140 307 1140 q 242 1135 263 1140 q 204 1117 220 1129 q 176 1083 187 1104 q 164 1033 165 1063 q 170 992 163 1011 q 191 959 178 973 q 223 936 205 945 q 262 928 241 928 z "},"˜":{"ha":553,"x_min":24,"x_max":530,"o":"m 24 1015 q 53 1057 35 1036 q 94 1094 71 1078 q 143 1119 117 1109 q 195 1129 169 1129 q 238 1122 219 1129 q 271 1104 256 1115 q 298 1080 286 1093 q 322 1056 311 1067 q 347 1038 334 1045 q 376 1031 360 1031 q 410 1037 395 1031 q 437 1054 425 1044 q 460 1077 450 1065 q 480 1102 471 1090 l 530 1027 q 504 981 521 1003 q 464 941 486 958 q 414 914 441 924 q 359 904 387 904 q 310 911 330 904 q 275 929 290 918 q 249 952 260 940 q 225 976 237 965 q 199 995 213 987 q 165 1002 185 1002 q 138 997 152 1002 q 112 984 125 992 q 87 965 99 975 q 66 944 75 954 l 24 1015 z "},"˝":{"ha":622,"x_min":1,"x_max":588,"o":"m 309 879 l 483 1171 l 588 1093 q 570 1052 583 1075 q 538 1002 557 1028 q 497 951 519 977 q 452 904 475 926 q 406 866 429 882 q 366 842 384 849 l 309 879 m 1 879 l 170 1171 l 277 1092 q 259 1049 272 1073 q 228 1001 246 1025 q 187 951 209 976 q 142 906 165 927 q 98 868 119 884 q 58 842 76 851 l 1 879 z "},"˛":{"ha":384,"x_min":23,"x_max":328,"o":"m 51 -115 q 93 -63 71 -84 q 135 -26 114 -42 q 178 1 157 -11 q 218 24 199 12 l 257 40 l 305 16 q 257 -25 279 -5 q 217 -64 234 -45 q 191 -102 201 -84 q 180 -138 180 -121 q 190 -178 180 -167 q 216 -190 201 -190 q 259 -179 238 -190 q 307 -146 280 -168 l 328 -214 q 291 -244 311 -229 q 247 -270 271 -258 q 194 -288 222 -281 q 135 -294 166 -294 q 85 -287 106 -294 q 51 -265 64 -279 q 30 -233 37 -251 q 23 -195 23 -215 q 32 -154 24 -176 q 51 -115 39 -132 z "},"⁄":{"ha":696,"x_min":65,"x_max":655,"o":"m 527 1038 l 655 1038 l 193 0 l 65 0 l 527 1038 z "},"$":{"ha":817,"x_min":43,"x_max":764,"o":"m 79 250 l 191 250 l 201 116 q 270 79 231 94 q 357 64 309 64 q 433 75 398 64 q 492 106 467 85 q 532 157 517 127 q 549 224 547 186 q 538 290 550 260 q 502 346 526 319 q 445 396 479 372 q 370 446 411 420 q 285 504 326 473 q 212 572 244 535 q 161 653 180 608 q 142 753 142 698 q 166 870 142 818 q 232 961 190 923 q 332 1021 275 998 q 457 1049 390 1044 l 477 1173 l 600 1173 l 579 1048 q 695 1026 649 1041 q 764 997 741 1012 l 730 812 l 626 812 l 605 934 q 545 962 579 952 q 473 972 511 972 q 412 963 441 972 q 361 935 383 954 q 326 889 339 917 q 311 825 312 862 q 322 753 309 785 q 361 694 336 722 q 421 641 386 666 q 500 589 457 615 q 583 534 543 563 q 654 470 623 505 q 704 393 685 435 q 723 296 723 350 q 701 181 723 234 q 637 87 679 127 q 535 20 595 46 q 398 -13 475 -6 l 375 -156 l 253 -156 l 276 -13 q 196 -2 234 -9 q 127 13 158 5 q 74 31 96 22 q 43 47 52 39 l 79 250 z "},"ª":{"ha":579,"x_min":47,"x_max":607,"o":"m 209 504 q 139 518 170 504 q 89 558 109 532 q 57 621 68 584 q 47 705 47 659 q 59 792 47 748 q 94 876 71 836 q 149 951 117 916 q 221 1013 181 987 q 308 1054 261 1039 q 406 1069 354 1069 q 468 1064 436 1069 q 522 1050 499 1058 l 607 1076 l 526 614 q 527 588 524 597 q 534 578 529 578 q 548 580 540 578 q 572 591 557 583 l 591 559 q 575 546 589 555 q 541 528 561 537 q 498 511 521 518 q 453 504 475 504 q 394 528 414 504 q 380 589 374 552 q 352 558 368 574 q 315 531 336 543 q 268 511 294 519 q 209 504 242 504 m 280 591 q 307 595 293 591 q 333 606 320 599 q 359 622 347 613 q 381 640 371 631 l 439 978 q 389 1000 415 1000 q 304 974 339 1000 q 248 907 269 948 q 216 815 226 866 q 205 715 205 765 q 222 623 205 654 q 280 591 238 591 z "},"º":{"ha":579,"x_min":50,"x_max":602,"o":"m 280 497 q 187 515 229 498 q 114 563 144 532 q 66 638 83 594 q 50 736 50 682 q 79 882 50 818 q 154 990 108 946 q 257 1056 200 1034 q 371 1078 315 1078 q 470 1059 427 1077 q 543 1009 513 1041 q 587 933 572 977 q 602 837 602 889 q 574 691 602 754 q 502 584 547 627 q 398 518 456 541 q 280 497 340 496 m 288 572 q 366 594 335 571 q 414 653 396 616 q 439 735 432 690 q 446 825 446 780 q 439 899 446 865 q 422 957 433 932 q 393 995 410 981 q 355 1008 376 1008 q 304 996 326 1008 q 264 964 281 984 q 236 919 248 945 q 218 864 225 892 q 208 805 211 835 q 205 748 205 775 q 211 675 205 707 q 229 620 218 642 q 255 584 240 597 q 288 572 270 572 z "},"%":{"ha":1296,"x_min":122,"x_max":1185,"o":"m 901 1038 l 1029 1038 l 387 0 l 258 0 l 901 1038 m 321 502 q 235 518 273 502 q 173 564 198 535 q 135 632 148 593 q 122 715 122 671 q 143 822 122 769 q 203 915 165 874 q 294 982 241 956 q 409 1007 347 1007 q 499 992 461 1007 q 562 949 537 977 q 598 884 587 922 q 610 804 610 847 q 590 694 610 748 q 531 597 569 640 q 440 528 493 554 q 321 502 387 502 m 340 575 q 398 598 374 575 q 438 655 422 621 q 460 728 453 690 q 468 798 468 767 q 449 898 468 861 q 390 935 431 935 q 331 912 356 935 q 290 858 307 890 q 266 787 274 825 q 258 717 258 749 q 263 659 258 685 q 278 614 268 633 q 303 585 288 595 q 340 575 319 575 m 696 255 q 718 361 696 309 q 778 455 739 414 q 868 521 816 496 q 983 547 921 547 q 1074 531 1036 547 q 1136 489 1112 516 q 1173 424 1161 461 q 1185 343 1185 387 q 1164 233 1185 288 q 1105 136 1143 179 q 1014 67 1067 94 q 895 41 961 41 q 810 58 847 41 q 747 103 772 75 q 709 171 722 132 q 696 255 696 210 m 833 256 q 838 199 833 224 q 852 154 842 173 q 878 125 862 135 q 915 115 893 115 q 972 138 948 115 q 1012 195 997 161 q 1035 268 1027 229 q 1042 338 1042 307 q 1024 437 1042 401 q 964 474 1005 474 q 906 452 930 474 q 865 397 881 430 q 841 326 848 364 q 833 256 833 288 z "},"Ø":{"ha":979,"x_min":54,"x_max":941,"o":"m 161 100 q 83 242 109 159 q 55 428 56 325 q 70 591 54 512 q 115 740 85 671 q 190 867 145 809 q 291 966 234 924 q 417 1030 348 1007 q 567 1053 487 1053 q 674 1039 625 1053 q 762 1000 722 1025 l 853 1133 l 913 1099 l 816 957 q 908 804 878 895 q 940 610 939 714 q 926 450 941 528 q 884 302 912 372 q 812 175 855 233 q 713 76 769 117 q 586 11 656 34 q 433 -12 516 -12 q 311 4 366 -12 q 212 53 256 21 l 117 -86 l 57 -53 l 161 100 m 680 893 q 623 949 656 930 q 546 968 589 968 q 463 949 502 968 q 391 897 424 930 q 332 815 358 863 q 289 712 307 768 q 262 592 271 656 q 254 463 253 529 q 259 349 254 403 q 275 249 263 296 l 680 893 m 304 168 q 363 96 327 122 q 453 70 399 70 q 575 110 521 70 q 667 221 629 150 q 724 387 705 292 q 743 593 743 483 q 713 819 741 730 l 304 168 z "},"à":{"ha":810,"x_min":49,"x_max":758,"o":"m 49 276 q 62 396 49 335 q 101 514 75 457 q 165 621 127 571 q 254 708 203 671 q 366 767 304 745 q 501 789 428 789 q 539 786 519 789 q 578 781 559 784 q 616 772 597 777 q 649 762 634 767 l 741 789 l 652 140 q 657 101 649 113 q 676 89 665 89 q 700 95 686 89 q 737 120 713 101 l 758 77 q 738 55 753 70 q 702 24 724 39 q 650 -2 680 9 q 587 -14 621 -14 q 512 9 540 -14 q 486 78 484 31 l 485 80 q 447 45 469 62 q 400 15 426 28 q 344 -6 374 2 q 280 -14 314 -14 q 176 9 220 -14 q 104 70 132 31 q 62 162 76 109 q 49 276 49 215 m 340 94 q 381 100 361 94 q 419 117 401 106 q 453 141 437 127 q 481 170 469 155 l 551 689 q 482 700 521 700 q 402 681 437 700 q 339 631 366 663 q 292 559 311 600 q 259 472 272 517 q 241 379 247 426 q 235 288 235 332 q 263 145 235 196 q 340 94 292 94 m 484 845 q 448 864 470 851 q 401 896 427 878 q 349 936 376 914 q 297 980 321 958 q 253 1024 273 1002 q 222 1065 233 1046 l 343 1182 l 538 889 l 484 845 l 484 845 z "},"á":{"ha":810,"x_min":49,"x_max":758,"o":"m 49 276 q 62 396 49 335 q 101 514 75 457 q 165 621 127 571 q 254 708 203 671 q 366 767 304 745 q 501 789 428 789 q 539 786 519 789 q 578 781 559 784 q 616 772 597 777 q 649 762 634 767 l 741 789 l 652 140 q 657 101 649 113 q 676 89 665 89 q 700 95 686 89 q 737 120 713 101 l 758 77 q 738 55 753 70 q 702 24 724 39 q 650 -2 680 9 q 587 -14 621 -14 q 512 9 540 -14 q 486 78 484 31 l 485 80 q 447 45 469 62 q 400 15 426 28 q 344 -6 374 2 q 280 -14 314 -14 q 176 9 220 -14 q 104 70 132 31 q 62 162 76 109 q 49 276 49 215 m 340 94 q 381 100 361 94 q 419 117 401 106 q 453 141 437 127 q 481 170 469 155 l 551 689 q 482 700 521 700 q 402 681 437 700 q 339 631 366 663 q 292 559 311 600 q 259 472 272 517 q 241 379 247 426 q 235 288 235 332 q 263 145 235 196 q 340 94 292 94 m 428 890 l 643 1182 l 756 1062 q 733 1032 750 1050 q 692 991 715 1013 q 640 946 668 969 q 583 902 611 923 q 528 865 554 882 q 481 842 501 849 l 428 890 z "},"â":{"ha":810,"x_min":49,"x_max":758,"o":"m 49 276 q 62 396 49 335 q 101 514 75 457 q 165 621 127 571 q 254 708 203 671 q 366 767 304 745 q 501 789 428 789 q 539 786 519 789 q 578 781 559 784 q 616 772 597 777 q 649 762 634 767 l 741 789 l 652 140 q 657 101 649 113 q 676 89 665 89 q 700 95 686 89 q 737 120 713 101 l 758 77 q 738 55 753 70 q 702 24 724 39 q 650 -2 680 9 q 587 -14 621 -14 q 512 9 540 -14 q 486 78 484 31 l 485 80 q 447 45 469 62 q 400 15 426 28 q 344 -6 374 2 q 280 -14 314 -14 q 176 9 220 -14 q 104 70 132 31 q 62 162 76 109 q 49 276 49 215 m 340 94 q 381 100 361 94 q 419 117 401 106 q 453 141 437 127 q 481 170 469 155 l 551 689 q 482 700 521 700 q 402 681 437 700 q 339 631 366 663 q 292 559 311 600 q 259 472 272 517 q 241 379 247 426 q 235 288 235 332 q 263 145 235 196 q 340 94 292 94 m 255 872 l 490 1126 l 611 1126 l 747 872 l 680 833 l 533 991 l 311 833 l 255 872 z "},"ã":{"ha":810,"x_min":49,"x_max":765,"o":"m 49 276 q 62 396 49 335 q 101 514 75 457 q 165 621 127 571 q 254 708 203 671 q 366 767 304 745 q 501 789 428 789 q 539 786 519 789 q 578 781 559 784 q 616 772 597 777 q 649 762 634 767 l 741 789 l 652 140 q 657 101 649 113 q 676 89 665 89 q 700 95 686 89 q 737 120 713 101 l 758 77 q 738 55 753 70 q 702 24 724 39 q 650 -2 680 9 q 587 -14 621 -14 q 512 9 540 -14 q 486 78 484 31 l 485 80 q 447 45 469 62 q 400 15 426 28 q 344 -6 374 2 q 280 -14 314 -14 q 176 9 220 -14 q 104 70 132 31 q 62 162 76 109 q 49 276 49 215 m 340 94 q 381 100 361 94 q 419 117 401 106 q 453 141 437 127 q 481 170 469 155 l 551 689 q 482 700 521 700 q 402 681 437 700 q 339 631 366 663 q 292 559 311 600 q 259 472 272 517 q 241 379 247 426 q 235 288 235 332 q 263 145 235 196 q 340 94 292 94 m 259 1015 q 288 1057 270 1036 q 329 1094 307 1078 q 378 1119 352 1109 q 430 1129 404 1129 q 473 1122 454 1129 q 506 1104 492 1115 q 533 1080 521 1093 q 558 1056 546 1067 q 583 1038 570 1045 q 612 1031 595 1031 q 646 1037 631 1031 q 673 1054 661 1044 q 695 1077 685 1065 q 715 1102 706 1090 l 765 1027 q 739 981 756 1003 q 699 941 722 958 q 649 914 676 924 q 595 904 623 904 q 546 911 566 904 q 511 929 526 918 q 484 952 496 940 q 460 976 473 965 q 434 995 448 987 q 401 1002 420 1002 q 374 997 387 1002 q 347 984 360 992 q 322 965 334 975 q 301 944 311 954 l 259 1015 z "},"ä":{"ha":810,"x_min":49,"x_max":768,"o":"m 49 276 q 62 396 49 335 q 101 514 75 457 q 165 621 127 571 q 254 708 203 671 q 366 767 304 745 q 501 789 428 789 q 539 786 519 789 q 578 781 559 784 q 616 772 597 777 q 649 762 634 767 l 741 789 l 652 140 q 657 101 649 113 q 676 89 665 89 q 700 95 686 89 q 737 120 713 101 l 758 77 q 738 55 753 70 q 702 24 724 39 q 650 -2 680 9 q 587 -14 621 -14 q 512 9 540 -14 q 486 78 484 31 l 485 80 q 447 45 469 62 q 400 15 426 28 q 344 -6 374 2 q 280 -14 314 -14 q 176 9 220 -14 q 104 70 132 31 q 62 162 76 109 q 49 276 49 215 m 340 94 q 381 100 361 94 q 419 117 401 106 q 453 141 437 127 q 481 170 469 155 l 551 689 q 482 700 521 700 q 402 681 437 700 q 339 631 366 663 q 292 559 311 600 q 259 472 272 517 q 241 379 247 426 q 235 288 235 332 q 263 145 235 196 q 340 94 292 94 m 654 924 q 619 932 635 924 q 591 954 603 941 q 572 985 579 968 q 566 1022 566 1003 q 575 1066 567 1045 q 598 1103 584 1087 q 632 1127 612 1118 q 675 1137 652 1137 q 714 1129 697 1137 q 744 1108 732 1121 q 762 1078 755 1095 q 768 1043 768 1061 q 759 998 767 1019 q 736 960 751 976 q 701 934 722 943 q 654 924 680 924 m 358 924 q 323 932 340 924 q 295 954 307 941 q 277 985 283 968 q 271 1022 270 1003 q 280 1066 271 1045 q 302 1103 288 1087 q 336 1127 317 1118 q 380 1137 356 1137 q 419 1129 401 1137 q 448 1108 436 1121 q 466 1078 460 1095 q 472 1043 473 1061 q 463 998 471 1019 q 440 960 455 976 q 405 934 426 943 q 358 924 385 924 z "},"ç":{"ha":627,"x_min":50,"x_max":630,"o":"m 109 -206 q 131 -214 118 -211 q 160 -216 144 -216 q 204 -210 183 -216 q 240 -190 224 -204 q 267 -152 256 -176 q 279 -93 277 -128 q 278 -13 282 -45 q 111 75 171 -4 q 50 298 52 155 q 61 411 50 353 q 96 523 73 469 q 154 626 119 577 q 235 710 189 674 q 340 768 281 747 q 469 789 398 789 q 510 787 488 789 q 553 781 532 785 q 594 772 574 778 q 630 760 614 766 l 581 588 q 548 613 567 597 q 509 646 529 630 q 468 674 488 662 q 429 686 447 686 q 358 659 393 686 q 296 583 323 632 q 252 465 269 534 q 237 312 235 396 q 246 214 237 255 q 271 148 255 174 q 311 110 288 122 q 366 98 335 98 q 418 103 394 98 q 463 120 441 109 q 504 145 484 130 q 545 180 524 161 l 579 117 q 550 84 568 102 q 506 48 531 66 q 448 16 480 31 q 376 -6 415 1 q 389 -71 385 -33 q 391 -144 393 -109 q 339 -280 385 -239 q 199 -321 292 -321 q 169 -320 186 -321 q 135 -316 151 -319 q 104 -310 118 -313 q 85 -302 91 -307 l 109 -206 l 109 -206 z "},"è":{"ha":712,"x_min":50,"x_max":679,"o":"m 50 292 q 66 423 51 359 q 107 542 81 486 q 172 642 134 597 q 257 720 210 688 q 357 771 303 753 q 470 789 411 789 q 563 776 524 789 q 627 740 602 763 q 665 686 652 717 q 678 619 677 655 q 657 521 679 565 q 600 444 636 477 q 518 385 564 410 q 423 344 472 360 q 327 320 374 328 q 243 311 280 311 q 248 229 241 268 q 271 160 255 190 q 314 112 288 130 q 379 94 341 94 q 499 123 445 94 q 595 197 553 152 l 633 134 q 592 87 618 113 q 527 39 565 61 q 440 1 488 16 q 334 -14 391 -14 q 203 12 258 -14 q 115 81 149 38 q 65 178 81 123 q 50 292 50 233 m 244 389 q 296 397 268 390 q 353 416 324 404 q 408 447 382 429 q 455 489 435 465 q 488 542 476 513 q 500 604 500 570 q 480 679 498 654 q 429 703 462 703 q 374 688 399 703 q 330 648 349 673 q 295 591 310 623 q 270 523 281 558 q 253 453 260 488 q 244 389 247 418 m 438 845 q 402 864 424 851 q 355 896 380 878 q 302 936 330 914 q 251 980 275 958 q 207 1024 227 1002 q 176 1065 187 1046 l 297 1182 l 492 889 l 438 845 l 438 845 z "},"é":{"ha":712,"x_min":50,"x_max":710,"o":"m 382 890 l 597 1182 l 710 1062 q 687 1032 704 1050 q 646 991 669 1013 q 593 946 622 969 q 536 902 565 923 q 481 865 508 882 q 435 842 455 849 l 382 890 m 50 292 q 66 423 51 359 q 107 542 81 486 q 172 642 134 597 q 257 720 210 688 q 357 771 303 753 q 470 789 411 789 q 563 776 524 789 q 627 740 602 763 q 665 686 652 717 q 678 619 677 655 q 657 521 679 565 q 600 444 636 477 q 518 385 564 410 q 423 344 472 360 q 327 320 374 328 q 243 311 280 311 q 248 229 241 268 q 271 160 255 190 q 314 112 288 130 q 379 94 341 94 q 499 123 445 94 q 595 197 553 152 l 633 134 q 592 87 618 113 q 527 39 565 61 q 440 1 488 16 q 334 -14 391 -14 q 203 12 258 -14 q 115 81 149 38 q 65 178 81 123 q 50 292 50 233 m 244 389 q 296 397 268 390 q 353 416 324 404 q 408 447 382 429 q 455 489 435 465 q 488 542 476 513 q 500 604 500 570 q 480 679 498 654 q 429 703 462 703 q 374 688 399 703 q 330 648 349 673 q 295 591 310 623 q 270 523 281 558 q 253 453 260 488 q 244 389 247 418 z "},"ê":{"ha":712,"x_min":50,"x_max":701,"o":"m 209 872 l 444 1126 l 565 1126 l 701 872 l 633 833 l 487 991 l 264 833 l 209 872 m 50 292 q 66 423 51 359 q 107 542 81 486 q 172 642 134 597 q 257 720 210 688 q 357 771 303 753 q 470 789 411 789 q 563 776 524 789 q 627 740 602 763 q 665 686 652 717 q 678 619 677 655 q 657 521 679 565 q 600 444 636 477 q 518 385 564 410 q 423 344 472 360 q 327 320 374 328 q 243 311 280 311 q 248 229 241 268 q 271 160 255 190 q 314 112 288 130 q 379 94 341 94 q 499 123 445 94 q 595 197 553 152 l 633 134 q 592 87 618 113 q 527 39 565 61 q 440 1 488 16 q 334 -14 391 -14 q 203 12 258 -14 q 115 81 149 38 q 65 178 81 123 q 50 292 50 233 m 244 389 q 296 397 268 390 q 353 416 324 404 q 408 447 382 429 q 455 489 435 465 q 488 542 476 513 q 500 604 500 570 q 480 679 498 654 q 429 703 462 703 q 374 688 399 703 q 330 648 349 673 q 295 591 310 623 q 270 523 281 558 q 253 453 260 488 q 244 389 247 418 z "},"ë":{"ha":712,"x_min":50,"x_max":722,"o":"m 608 924 q 573 932 589 924 q 545 954 557 941 q 526 985 533 968 q 520 1022 519 1003 q 529 1066 521 1045 q 552 1103 538 1087 q 586 1127 566 1118 q 629 1137 606 1137 q 668 1129 651 1137 q 697 1108 686 1121 q 716 1078 709 1095 q 722 1043 722 1061 q 713 998 721 1019 q 690 960 705 976 q 655 934 675 943 q 608 924 634 924 m 312 924 q 277 932 294 924 q 249 954 261 941 q 231 985 237 968 q 224 1022 224 1003 q 234 1066 225 1045 q 256 1103 242 1087 q 290 1127 271 1118 q 334 1137 310 1137 q 373 1129 355 1137 q 402 1108 390 1121 q 420 1078 414 1095 q 426 1043 427 1061 q 417 998 425 1019 q 394 960 409 976 q 359 934 380 943 q 312 924 338 924 m 50 292 q 66 423 51 359 q 107 542 81 486 q 172 642 134 597 q 257 720 210 688 q 357 771 303 753 q 470 789 411 789 q 563 776 524 789 q 627 740 602 763 q 665 686 652 717 q 678 619 677 655 q 657 521 679 565 q 600 444 636 477 q 518 385 564 410 q 423 344 472 360 q 327 320 374 328 q 243 311 280 311 q 248 229 241 268 q 271 160 255 190 q 314 112 288 130 q 379 94 341 94 q 499 123 445 94 q 595 197 553 152 l 633 134 q 592 87 618 113 q 527 39 565 61 q 440 1 488 16 q 334 -14 391 -14 q 203 12 258 -14 q 115 81 149 38 q 65 178 81 123 q 50 292 50 233 m 244 389 q 296 397 268 390 q 353 416 324 404 q 408 447 382 429 q 455 489 435 465 q 488 542 476 513 q 500 604 500 570 q 480 679 498 654 q 429 703 462 703 q 374 688 399 703 q 330 648 349 673 q 295 591 310 623 q 270 523 281 558 q 253 453 260 488 q 244 389 247 418 z "},"ï":{"ha":444,"x_min":54,"x_max":553,"o":"m 438 924 q 404 932 420 924 q 375 954 387 941 q 357 985 363 968 q 351 1022 350 1003 q 360 1066 351 1045 q 382 1103 368 1087 q 416 1127 397 1118 q 460 1137 436 1137 q 499 1129 481 1137 q 528 1108 516 1121 q 546 1078 540 1095 q 552 1043 553 1061 q 543 998 551 1019 q 520 960 535 976 q 485 934 506 943 q 438 924 465 924 m 142 924 q 108 932 124 924 q 80 954 92 941 q 61 985 68 968 q 55 1022 54 1003 q 64 1066 56 1045 q 87 1103 73 1087 q 121 1127 101 1118 q 164 1137 140 1137 q 203 1129 186 1137 q 232 1108 220 1121 q 251 1078 244 1095 q 256 1043 257 1061 q 248 998 256 1019 q 225 960 239 976 q 190 934 210 943 q 142 924 169 924 m 92 82 q 105 182 97 123 q 124 316 113 241 q 147 479 134 391 q 173 665 159 567 l 67 699 l 79 754 l 333 789 l 368 772 l 277 140 q 297 89 270 89 q 323 97 309 89 q 364 127 338 105 l 385 85 q 364 61 379 77 q 325 28 349 45 q 270 -1 302 12 q 201 -14 239 -14 q 116 11 144 -14 q 92 82 87 35 z "},"ì":{"ha":444,"x_min":8,"x_max":385,"o":"m 92 82 q 105 182 97 123 q 124 316 113 241 q 147 479 134 391 q 173 665 159 567 l 67 699 l 79 754 l 333 789 l 368 772 l 277 140 q 297 89 270 89 q 323 97 309 89 q 364 127 338 105 l 385 85 q 364 61 379 77 q 325 28 349 45 q 270 -1 302 12 q 201 -14 239 -14 q 116 11 144 -14 q 92 82 87 35 m 270 845 q 234 864 256 851 q 187 896 212 878 q 134 936 161 914 q 83 980 107 958 q 39 1024 58 1002 q 8 1065 19 1046 l 129 1182 l 324 889 l 270 845 l 270 845 z "},"í":{"ha":444,"x_min":67,"x_max":541,"o":"m 212 890 l 427 1182 l 541 1062 q 517 1032 534 1050 q 476 991 500 1013 q 424 946 452 969 q 367 902 395 923 q 312 865 338 882 q 265 842 286 849 l 212 890 m 92 82 q 105 182 97 123 q 124 316 113 241 q 147 479 134 391 q 173 665 159 567 l 67 699 l 79 754 l 333 789 l 368 772 l 277 140 q 297 89 270 89 q 323 97 309 89 q 364 127 338 105 l 385 85 q 364 61 379 77 q 325 28 349 45 q 270 -1 302 12 q 201 -14 239 -14 q 116 11 144 -14 q 92 82 87 35 z "},"î":{"ha":444,"x_min":39,"x_max":531,"o":"m 39 872 l 275 1126 l 395 1126 l 531 872 l 464 833 l 317 991 l 95 833 l 39 872 m 92 82 q 105 182 97 123 q 124 316 113 241 q 147 479 134 391 q 173 665 159 567 l 67 699 l 79 754 l 333 789 l 368 772 l 277 140 q 297 89 270 89 q 323 97 309 89 q 364 127 338 105 l 385 85 q 364 61 379 77 q 325 28 349 45 q 270 -1 302 12 q 201 -14 239 -14 q 116 11 144 -14 q 92 82 87 35 z "},"ò":{"ha":793,"x_min":48,"x_max":741,"o":"m 50 298 q 76 483 48 394 q 158 639 104 571 q 286 748 211 707 q 454 789 361 789 q 575 768 523 789 q 664 707 628 747 q 719 609 700 667 q 740 477 738 551 q 729 352 741 413 q 693 236 718 290 q 633 135 669 181 q 551 57 597 90 q 451 5 506 24 q 335 -14 397 -14 q 214 7 267 -14 q 126 68 162 28 q 71 166 90 108 q 50 298 52 224 m 362 71 q 424 89 397 71 q 473 138 452 107 q 508 209 494 168 q 532 295 523 250 q 545 387 541 340 q 547 478 548 434 q 517 646 545 591 q 431 701 488 701 q 368 683 396 701 q 319 634 340 665 q 282 564 298 604 q 258 478 267 524 q 244 387 248 433 q 241 297 240 340 q 272 127 244 183 q 362 71 300 71 m 439 845 q 404 864 425 851 q 356 896 382 878 q 304 936 331 914 q 252 980 277 958 q 208 1024 228 1002 q 178 1065 189 1046 l 298 1182 l 494 889 l 439 845 l 439 845 z "},"ó":{"ha":793,"x_min":48,"x_max":741,"o":"m 383 890 l 598 1182 l 711 1062 q 688 1032 705 1050 q 647 991 671 1013 q 595 946 623 969 q 538 902 566 923 q 483 865 509 882 q 436 842 456 849 l 383 890 m 50 298 q 76 483 48 394 q 158 639 104 571 q 286 748 211 707 q 454 789 361 789 q 575 768 523 789 q 664 707 628 747 q 719 609 700 667 q 740 477 738 551 q 729 352 741 413 q 693 236 718 290 q 633 135 669 181 q 551 57 597 90 q 451 5 506 24 q 335 -14 397 -14 q 214 7 267 -14 q 126 68 162 28 q 71 166 90 108 q 50 298 52 224 m 362 71 q 424 89 397 71 q 473 138 452 107 q 508 209 494 168 q 532 295 523 250 q 545 387 541 340 q 547 478 548 434 q 517 646 545 591 q 431 701 488 701 q 368 683 396 701 q 319 634 340 665 q 282 564 298 604 q 258 478 267 524 q 244 387 248 433 q 241 297 240 340 q 272 127 244 183 q 362 71 300 71 z "},"ô":{"ha":793,"x_min":48,"x_max":741,"o":"m 210 872 l 446 1126 l 566 1126 l 702 872 l 635 833 l 488 991 l 266 833 l 210 872 m 50 298 q 76 483 48 394 q 158 639 104 571 q 286 748 211 707 q 454 789 361 789 q 575 768 523 789 q 664 707 628 747 q 719 609 700 667 q 740 477 738 551 q 729 352 741 413 q 693 236 718 290 q 633 135 669 181 q 551 57 597 90 q 451 5 506 24 q 335 -14 397 -14 q 214 7 267 -14 q 126 68 162 28 q 71 166 90 108 q 50 298 52 224 m 362 71 q 424 89 397 71 q 473 138 452 107 q 508 209 494 168 q 532 295 523 250 q 545 387 541 340 q 547 478 548 434 q 517 646 545 591 q 431 701 488 701 q 368 683 396 701 q 319 634 340 665 q 282 564 298 604 q 258 478 267 524 q 244 387 248 433 q 241 297 240 340 q 272 127 244 183 q 362 71 300 71 z "},"ù":{"ha":842,"x_min":78,"x_max":787,"o":"m 93 166 q 95 218 93 189 q 101 278 98 247 q 110 342 105 309 q 119 405 115 374 l 155 652 l 78 700 l 90 760 l 309 789 l 342 772 l 296 399 q 280 286 288 338 q 273 193 273 233 q 278 143 273 163 q 294 112 283 123 q 319 95 304 100 q 353 90 334 90 q 396 97 375 90 q 437 114 418 103 q 475 138 457 124 q 507 168 492 152 l 589 783 l 765 783 l 680 141 q 701 90 673 90 q 712 91 706 90 q 725 97 718 93 q 743 109 733 102 q 768 128 753 117 l 787 85 q 767 61 783 77 q 729 28 752 45 q 675 0 705 12 q 609 -13 644 -13 q 526 16 550 -13 q 509 92 502 45 q 469 53 492 72 q 418 20 446 35 q 355 -4 389 5 q 278 -14 320 -14 q 210 -5 243 -14 q 151 25 177 4 q 109 81 125 46 q 93 166 93 115 m 450 845 q 414 864 436 851 q 367 896 393 878 q 315 936 342 914 q 263 980 288 958 q 219 1024 239 1002 q 189 1065 199 1046 l 309 1182 l 505 889 l 450 845 l 450 845 z "},"ú":{"ha":842,"x_min":78,"x_max":787,"o":"m 394 890 l 609 1182 l 722 1062 q 699 1032 716 1050 q 658 991 682 1013 q 606 946 634 969 q 549 902 577 923 q 494 865 520 882 q 447 842 467 849 l 394 890 m 93 166 q 95 218 93 189 q 101 278 98 247 q 110 342 105 309 q 119 405 115 374 l 155 652 l 78 700 l 90 760 l 309 789 l 342 772 l 296 399 q 280 286 288 338 q 273 193 273 233 q 278 143 273 163 q 294 112 283 123 q 319 95 304 100 q 353 90 334 90 q 396 97 375 90 q 437 114 418 103 q 475 138 457 124 q 507 168 492 152 l 589 783 l 765 783 l 680 141 q 701 90 673 90 q 712 91 706 90 q 725 97 718 93 q 743 109 733 102 q 768 128 753 117 l 787 85 q 767 61 783 77 q 729 28 752 45 q 675 0 705 12 q 609 -13 644 -13 q 526 16 550 -13 q 509 92 502 45 q 469 53 492 72 q 418 20 446 35 q 355 -4 389 5 q 278 -14 320 -14 q 210 -5 243 -14 q 151 25 177 4 q 109 81 125 46 q 93 166 93 115 z "},"û":{"ha":842,"x_min":78,"x_max":787,"o":"m 221 872 l 456 1126 l 577 1126 l 713 872 l 646 833 l 499 991 l 277 833 l 221 872 m 93 166 q 95 218 93 189 q 101 278 98 247 q 110 342 105 309 q 119 405 115 374 l 155 652 l 78 700 l 90 760 l 309 789 l 342 772 l 296 399 q 280 286 288 338 q 273 193 273 233 q 278 143 273 163 q 294 112 283 123 q 319 95 304 100 q 353 90 334 90 q 396 97 375 90 q 437 114 418 103 q 475 138 457 124 q 507 168 492 152 l 589 783 l 765 783 l 680 141 q 701 90 673 90 q 712 91 706 90 q 725 97 718 93 q 743 109 733 102 q 768 128 753 117 l 787 85 q 767 61 783 77 q 729 28 752 45 q 675 0 705 12 q 609 -13 644 -13 q 526 16 550 -13 q 509 92 502 45 q 469 53 492 72 q 418 20 446 35 q 355 -4 389 5 q 278 -14 320 -14 q 210 -5 243 -14 q 151 25 177 4 q 109 81 125 46 q 93 166 93 115 z "},"ü":{"ha":842,"x_min":78,"x_max":787,"o":"m 620 924 q 585 932 602 924 q 557 954 569 941 q 538 985 545 968 q 532 1022 532 1003 q 542 1066 533 1045 q 564 1103 550 1087 q 598 1127 578 1118 q 642 1137 618 1137 q 681 1129 663 1137 q 710 1108 698 1121 q 728 1078 722 1095 q 734 1043 734 1061 q 725 998 733 1019 q 702 960 717 976 q 667 934 688 943 q 620 924 646 924 m 324 924 q 290 932 306 924 q 261 954 273 941 q 243 985 250 968 q 237 1022 236 1003 q 246 1066 237 1045 q 269 1103 254 1087 q 302 1127 283 1118 q 346 1137 322 1137 q 385 1129 368 1137 q 414 1108 402 1121 q 432 1078 426 1095 q 438 1043 439 1061 q 429 998 437 1019 q 407 960 421 976 q 371 934 392 943 q 324 924 351 924 m 93 166 q 95 218 93 189 q 101 278 98 247 q 110 342 105 309 q 119 405 115 374 l 155 652 l 78 700 l 90 760 l 309 789 l 342 772 l 296 399 q 280 286 288 338 q 273 193 273 233 q 278 143 273 163 q 294 112 283 123 q 319 95 304 100 q 353 90 334 90 q 396 97 375 90 q 437 114 418 103 q 475 138 457 124 q 507 168 492 152 l 589 783 l 765 783 l 680 141 q 701 90 673 90 q 712 91 706 90 q 725 97 718 93 q 743 109 733 102 q 768 128 753 117 l 787 85 q 767 61 783 77 q 729 28 752 45 q 675 0 705 12 q 609 -13 644 -13 q 526 16 550 -13 q 509 92 502 45 q 469 53 492 72 q 418 20 446 35 q 355 -4 389 5 q 278 -14 320 -14 q 210 -5 243 -14 q 151 25 177 4 q 109 81 125 46 q 93 166 93 115 z "},"ÿ":{"ha":731,"x_min":-83,"x_max":717,"o":"m -50 -196 q -30 -208 -44 -200 q 4 -222 -16 -215 q 48 -235 24 -230 q 100 -241 73 -241 q 154 -231 126 -241 q 209 -198 181 -221 q 263 -136 236 -174 q 318 -42 291 -98 l 231 -42 l 102 641 q 91 670 97 662 q 75 679 85 679 q 54 675 66 679 q 21 653 41 671 l 1 701 q 21 722 6 707 q 57 751 35 736 q 107 778 79 766 q 166 789 136 789 q 215 782 195 789 q 248 764 235 776 q 268 734 260 751 q 279 696 275 717 q 289 633 283 673 q 302 543 295 593 q 317 438 309 493 q 332 334 325 384 q 344 244 338 284 q 353 181 350 203 l 366 35 l 441 184 q 483 280 464 235 q 515 370 501 326 q 538 459 529 414 q 551 555 547 505 q 548 600 551 581 q 541 635 545 618 q 532 667 536 651 q 528 705 528 684 q 551 766 528 744 q 615 789 574 789 q 663 779 644 789 q 694 751 682 769 q 712 708 707 733 q 717 651 717 682 q 702 542 717 599 q 664 427 687 484 q 614 314 642 370 q 562 210 587 258 q 477 43 513 112 q 413 -73 441 -25 q 365 -154 386 -121 q 323 -212 343 -186 q 283 -261 307 -237 q 228 -304 259 -285 q 156 -335 196 -323 q 66 -347 116 -347 q 23 -345 46 -347 q -20 -338 1 -342 q -57 -330 -40 -334 q -83 -323 -74 -326 l -50 -196 l -50 -196 m 563 924 q 528 932 545 924 q 500 954 512 941 q 481 985 488 968 q 475 1022 475 1003 q 485 1066 476 1045 q 507 1103 493 1087 q 541 1127 522 1118 q 585 1137 561 1137 q 624 1129 606 1137 q 653 1108 641 1121 q 671 1078 665 1095 q 677 1043 677 1061 q 668 998 676 1019 q 645 960 660 976 q 610 934 631 943 q 563 924 589 924 m 267 924 q 233 932 249 924 q 204 954 216 941 q 186 985 193 968 q 180 1022 179 1003 q 189 1066 180 1045 q 212 1103 197 1087 q 245 1127 226 1118 q 289 1137 265 1137 q 328 1129 311 1137 q 357 1108 345 1121 q 375 1078 369 1095 q 381 1043 382 1061 q 372 998 380 1019 q 350 960 364 976 q 314 934 335 943 q 267 924 294 924 z "},"È":{"ha":864,"x_min":-9,"x_max":822,"o":"m 547 1080 q 488 1106 522 1088 q 419 1148 453 1124 q 355 1198 385 1171 q 313 1252 326 1225 l 422 1361 l 605 1129 l 547 1080 l 547 1080 m -1 65 l 104 85 l 214 949 l 120 966 l 127 1038 l 821 1038 l 806 807 l 695 807 l 667 947 l 403 960 l 354 589 l 653 599 l 641 472 l 343 486 l 289 85 l 635 106 l 715 277 l 822 261 l 768 0 l -9 0 l -1 65 z "},"É":{"ha":864,"x_min":-9,"x_max":822,"o":"m 486 1129 l 673 1361 l 778 1252 q 735 1198 764 1225 q 671 1148 706 1171 q 602 1106 637 1124 q 543 1080 567 1088 l 486 1129 m -1 65 l 104 85 l 214 949 l 120 966 l 127 1038 l 821 1038 l 806 807 l 695 807 l 667 947 l 403 960 l 354 589 l 653 599 l 641 472 l 343 486 l 289 85 l 635 106 l 715 277 l 822 261 l 768 0 l -9 0 l -1 65 z "},"Ê":{"ha":864,"x_min":-9,"x_max":822,"o":"m -1 65 l 104 85 l 214 949 l 120 966 l 127 1038 l 821 1038 l 806 807 l 695 807 l 667 947 l 403 960 l 354 589 l 653 599 l 641 472 l 343 486 l 289 85 l 635 106 l 715 277 l 822 261 l 768 0 l -9 0 l -1 65 m 304 1129 l 532 1361 l 652 1361 l 795 1129 l 730 1089 l 581 1237 l 361 1090 l 304 1129 z "},"Ë":{"ha":864,"x_min":-9,"x_max":822,"o":"m 682 1139 q 648 1145 664 1139 q 622 1164 633 1152 q 604 1193 610 1177 q 597 1229 597 1210 q 606 1273 597 1253 q 630 1307 615 1293 q 664 1329 644 1321 q 704 1337 683 1337 q 743 1331 726 1337 q 771 1312 760 1324 q 788 1284 783 1300 q 793 1250 794 1268 q 785 1206 793 1226 q 762 1171 777 1185 q 728 1147 748 1156 q 682 1139 707 1139 m 387 1139 q 353 1146 369 1139 q 326 1165 338 1153 q 309 1194 315 1177 q 303 1229 302 1210 q 312 1273 304 1253 q 335 1307 321 1293 q 368 1329 349 1321 q 408 1337 387 1337 q 447 1331 430 1337 q 475 1312 464 1324 q 493 1284 487 1300 q 498 1250 498 1268 q 489 1206 497 1226 q 467 1171 481 1185 q 432 1147 452 1156 q 387 1139 412 1139 m -1 65 l 104 85 l 214 949 l 120 966 l 127 1038 l 821 1038 l 806 807 l 695 807 l 667 947 l 403 960 l 354 589 l 653 599 l 641 472 l 343 486 l 289 85 l 635 106 l 715 277 l 822 261 l 768 0 l -9 0 l -1 65 z "},"Ì":{"ha":505,"x_min":4,"x_max":528,"o":"m 12 65 l 113 85 l 223 949 l 128 966 l 136 1038 l 528 1038 l 520 966 l 410 949 l 299 85 l 412 66 l 407 0 l 4 0 l 12 65 m 365 1080 q 306 1106 340 1088 q 237 1148 271 1124 q 174 1198 203 1171 q 132 1252 144 1225 l 240 1361 l 423 1129 l 365 1080 l 365 1080 z "},"Í":{"ha":505,"x_min":4,"x_max":596,"o":"m 12 65 l 113 85 l 223 949 l 128 966 l 136 1038 l 528 1038 l 520 966 l 410 949 l 299 85 l 412 66 l 407 0 l 4 0 l 12 65 m 304 1129 l 491 1361 l 596 1252 q 553 1198 583 1225 q 490 1148 524 1171 q 420 1106 455 1124 q 361 1080 385 1088 l 304 1129 z "},"Î":{"ha":505,"x_min":4,"x_max":614,"o":"m 12 65 l 113 85 l 223 949 l 128 966 l 136 1038 l 528 1038 l 520 966 l 410 949 l 299 85 l 412 66 l 407 0 l 4 0 l 12 65 m 122 1129 l 350 1361 l 471 1361 l 614 1129 l 549 1089 l 399 1237 l 179 1090 l 122 1129 z "},"Ï":{"ha":505,"x_min":4,"x_max":612,"o":"m 12 65 l 113 85 l 223 949 l 128 966 l 136 1038 l 528 1038 l 520 966 l 410 949 l 299 85 l 412 66 l 407 0 l 4 0 l 12 65 m 500 1139 q 467 1145 482 1139 q 440 1164 451 1152 q 422 1193 429 1177 q 416 1229 416 1210 q 425 1273 416 1253 q 448 1307 433 1293 q 482 1329 463 1321 q 522 1337 501 1337 q 561 1331 544 1337 q 589 1312 578 1324 q 607 1284 601 1300 q 612 1250 612 1268 q 603 1206 611 1226 q 581 1171 595 1185 q 546 1147 566 1156 q 500 1139 526 1139 m 205 1139 q 172 1146 187 1139 q 144 1165 156 1153 q 127 1194 133 1177 q 121 1229 121 1210 q 131 1273 122 1253 q 153 1307 139 1293 q 186 1329 168 1321 q 227 1337 205 1337 q 265 1331 248 1337 q 294 1312 282 1324 q 311 1284 305 1300 q 316 1250 317 1268 q 308 1206 315 1226 q 285 1171 300 1185 q 251 1147 271 1156 q 205 1139 231 1139 z "},"Ñ":{"ha":1038,"x_min":1,"x_max":1082,"o":"m 406 1221 q 435 1264 416 1243 q 476 1300 453 1284 q 525 1326 498 1316 q 576 1336 551 1336 q 620 1329 601 1336 q 653 1311 638 1322 q 680 1287 667 1299 q 704 1263 692 1274 q 729 1245 716 1252 q 758 1238 742 1238 q 792 1244 777 1238 q 819 1261 807 1251 q 842 1284 831 1272 q 862 1309 852 1297 l 911 1234 q 885 1187 903 1210 q 845 1148 868 1165 q 796 1121 823 1131 q 741 1111 769 1111 q 692 1118 712 1111 q 657 1136 672 1125 q 631 1159 642 1147 q 607 1183 619 1172 q 581 1201 595 1194 q 547 1209 567 1208 q 520 1204 534 1209 q 494 1191 507 1199 q 469 1172 481 1182 q 448 1151 457 1161 l 406 1221 m 6 65 l 102 85 l 223 949 l 116 966 l 127 1038 l 431 1038 l 718 323 l 765 180 l 857 950 l 751 966 l 760 1038 l 1082 1038 l 1076 966 l 984 949 l 844 0 l 659 0 l 363 720 l 318 868 l 235 85 l 351 66 l 345 0 l 1 0 l 6 65 z "},"Ò":{"ha":979,"x_min":54,"x_max":941,"o":"m 589 1080 q 530 1106 565 1088 q 461 1148 496 1124 q 398 1198 427 1171 q 356 1252 369 1225 l 465 1361 l 648 1129 l 589 1080 l 589 1080 m 55 427 q 70 590 54 511 q 115 739 85 669 q 190 865 145 808 q 291 964 234 923 q 417 1028 348 1006 q 567 1051 487 1051 q 732 1015 663 1051 q 848 919 802 979 q 917 778 894 858 q 940 609 939 698 q 926 448 941 526 q 884 301 912 370 q 812 174 855 232 q 713 74 769 116 q 586 9 656 33 q 433 -14 516 -14 q 271 18 341 -14 q 153 108 201 50 q 80 247 105 166 q 55 427 56 328 m 453 68 q 575 109 521 68 q 667 219 629 149 q 724 386 705 290 q 743 592 743 481 q 730 751 742 682 q 693 869 718 821 q 632 942 669 917 q 546 967 595 967 q 463 948 502 967 q 391 895 424 929 q 332 814 358 861 q 289 711 307 767 q 262 591 271 654 q 254 461 253 528 q 264 309 254 380 q 296 184 273 238 q 356 100 318 131 q 453 68 395 68 z "},"Ó":{"ha":979,"x_min":54,"x_max":941,"o":"m 528 1129 l 715 1361 l 821 1252 q 778 1198 807 1225 q 714 1148 749 1171 q 645 1106 680 1124 q 585 1080 610 1088 l 528 1129 m 55 427 q 70 590 54 511 q 115 739 85 669 q 190 865 145 808 q 291 964 234 923 q 417 1028 348 1006 q 567 1051 487 1051 q 732 1015 663 1051 q 848 919 802 979 q 917 778 894 858 q 940 609 939 698 q 926 448 941 526 q 884 301 912 370 q 812 174 855 232 q 713 74 769 116 q 586 9 656 33 q 433 -14 516 -14 q 271 18 341 -14 q 153 108 201 50 q 80 247 105 166 q 55 427 56 328 m 453 68 q 575 109 521 68 q 667 219 629 149 q 724 386 705 290 q 743 592 743 481 q 730 751 742 682 q 693 869 718 821 q 632 942 669 917 q 546 967 595 967 q 463 948 502 967 q 391 895 424 929 q 332 814 358 861 q 289 711 307 767 q 262 591 271 654 q 254 461 253 528 q 264 309 254 380 q 296 184 273 238 q 356 100 318 131 q 453 68 395 68 z "},"Ô":{"ha":979,"x_min":54,"x_max":941,"o":"m 55 427 q 70 590 54 511 q 115 739 85 669 q 190 865 145 808 q 291 964 234 923 q 417 1028 348 1006 q 567 1051 487 1051 q 732 1015 663 1051 q 848 919 802 979 q 917 778 894 858 q 940 609 939 698 q 926 448 941 526 q 884 301 912 370 q 812 174 855 232 q 713 74 769 116 q 586 9 656 33 q 433 -14 516 -14 q 271 18 341 -14 q 153 108 201 50 q 80 247 105 166 q 55 427 56 328 m 453 68 q 575 109 521 68 q 667 219 629 149 q 724 386 705 290 q 743 592 743 481 q 730 751 742 682 q 693 869 718 821 q 632 942 669 917 q 546 967 595 967 q 463 948 502 967 q 391 895 424 929 q 332 814 358 861 q 289 711 307 767 q 262 591 271 654 q 254 461 253 528 q 264 309 254 380 q 296 184 273 238 q 356 100 318 131 q 453 68 395 68 m 347 1129 l 574 1361 l 695 1361 l 838 1129 l 773 1089 l 623 1237 l 404 1090 l 347 1129 z "},"Õ":{"ha":979,"x_min":54,"x_max":941,"o":"m 361 1221 q 390 1264 372 1243 q 431 1300 408 1284 q 480 1326 454 1316 q 532 1336 506 1336 q 575 1329 556 1336 q 608 1311 593 1322 q 635 1287 623 1299 q 660 1263 648 1274 q 684 1245 671 1252 q 713 1238 697 1238 q 747 1244 732 1238 q 774 1261 762 1251 q 797 1284 787 1272 q 817 1309 808 1297 l 867 1234 q 841 1187 858 1210 q 801 1148 823 1165 q 751 1121 778 1131 q 696 1111 724 1111 q 647 1118 667 1111 q 612 1136 627 1125 q 586 1159 597 1147 q 562 1183 574 1172 q 536 1201 550 1194 q 503 1209 522 1208 q 475 1204 489 1209 q 449 1191 462 1199 q 424 1172 436 1182 q 403 1151 412 1161 l 361 1221 m 55 427 q 70 590 54 511 q 115 739 85 669 q 190 865 145 808 q 291 964 234 923 q 417 1028 348 1006 q 567 1051 487 1051 q 732 1015 663 1051 q 848 919 802 979 q 917 778 894 858 q 940 609 939 698 q 926 448 941 526 q 884 301 912 370 q 812 174 855 232 q 713 74 769 116 q 586 9 656 33 q 433 -14 516 -14 q 271 18 341 -14 q 153 108 201 50 q 80 247 105 166 q 55 427 56 328 m 453 68 q 575 109 521 68 q 667 219 629 149 q 724 386 705 290 q 743 592 743 481 q 730 751 742 682 q 693 869 718 821 q 632 942 669 917 q 546 967 595 967 q 463 948 502 967 q 391 895 424 929 q 332 814 358 861 q 289 711 307 767 q 262 591 271 654 q 254 461 253 528 q 264 309 254 380 q 296 184 273 238 q 356 100 318 131 q 453 68 395 68 z "},"Ö":{"ha":979,"x_min":54,"x_max":941,"o":"m 725 1139 q 691 1145 707 1139 q 664 1164 675 1152 q 647 1193 653 1177 q 640 1229 640 1210 q 649 1273 640 1253 q 672 1307 658 1293 q 706 1329 687 1321 q 747 1337 726 1337 q 785 1331 768 1337 q 814 1312 802 1324 q 831 1284 825 1300 q 836 1250 837 1268 q 827 1206 836 1226 q 805 1171 819 1185 q 770 1147 791 1156 q 725 1139 750 1139 m 430 1139 q 396 1146 412 1139 q 369 1165 380 1153 q 351 1194 357 1177 q 346 1229 345 1210 q 355 1273 347 1253 q 378 1307 363 1293 q 411 1329 392 1321 q 451 1337 430 1337 q 490 1331 473 1337 q 518 1312 507 1324 q 535 1284 530 1300 q 541 1250 541 1268 q 532 1206 540 1226 q 510 1171 524 1185 q 475 1147 495 1156 q 430 1139 455 1139 m 55 427 q 70 590 54 511 q 115 739 85 669 q 190 865 145 808 q 291 964 234 923 q 417 1028 348 1006 q 567 1051 487 1051 q 732 1015 663 1051 q 848 919 802 979 q 917 778 894 858 q 940 609 939 698 q 926 448 941 526 q 884 301 912 370 q 812 174 855 232 q 713 74 769 116 q 586 9 656 33 q 433 -14 516 -14 q 271 18 341 -14 q 153 108 201 50 q 80 247 105 166 q 55 427 56 328 m 453 68 q 575 109 521 68 q 667 219 629 149 q 724 386 705 290 q 743 592 743 481 q 730 751 742 682 q 693 869 718 821 q 632 942 669 917 q 546 967 595 967 q 463 948 502 967 q 391 895 424 929 q 332 814 358 861 q 289 711 307 767 q 262 591 271 654 q 254 461 253 528 q 264 309 254 380 q 296 184 273 238 q 356 100 318 131 q 453 68 395 68 z "},"Ù":{"ha":958,"x_min":74,"x_max":1014,"o":"m 608 1080 q 549 1106 584 1088 q 480 1148 515 1124 q 417 1198 446 1171 q 375 1252 388 1225 l 484 1361 l 667 1129 l 608 1080 l 608 1080 m 93 290 q 93 344 92 317 q 98 402 94 372 l 168 950 l 74 966 l 83 1038 l 485 1038 l 478 967 l 360 949 l 292 418 q 285 345 288 379 q 282 285 282 311 q 294 193 283 233 q 328 124 306 152 q 384 81 351 96 q 461 66 417 66 q 566 90 521 66 q 644 161 612 115 q 697 273 676 207 q 728 425 718 340 l 798 949 l 696 966 l 703 1038 l 1014 1038 l 1005 966 l 920 950 l 851 425 q 802 222 836 305 q 715 86 768 138 q 591 10 663 34 q 430 -14 520 -14 q 276 9 340 -14 q 172 72 212 31 q 112 168 131 112 q 93 290 94 224 z "},"Ú":{"ha":958,"x_min":74,"x_max":1014,"o":"m 547 1129 l 734 1361 l 840 1252 q 797 1198 826 1225 q 733 1148 768 1171 q 664 1106 699 1124 q 604 1080 629 1088 l 547 1129 m 93 290 q 93 344 92 317 q 98 402 94 372 l 168 950 l 74 966 l 83 1038 l 485 1038 l 478 967 l 360 949 l 292 418 q 285 345 288 379 q 282 285 282 311 q 294 193 283 233 q 328 124 306 152 q 384 81 351 96 q 461 66 417 66 q 566 90 521 66 q 644 161 612 115 q 697 273 676 207 q 728 425 718 340 l 798 949 l 696 966 l 703 1038 l 1014 1038 l 1005 966 l 920 950 l 851 425 q 802 222 836 305 q 715 86 768 138 q 591 10 663 34 q 430 -14 520 -14 q 276 9 340 -14 q 172 72 212 31 q 112 168 131 112 q 93 290 94 224 z "},"Û":{"ha":958,"x_min":74,"x_max":1014,"o":"m 93 290 q 93 344 92 317 q 98 402 94 372 l 168 950 l 74 966 l 83 1038 l 485 1038 l 478 967 l 360 949 l 292 418 q 285 345 288 379 q 282 285 282 311 q 294 193 283 233 q 328 124 306 152 q 384 81 351 96 q 461 66 417 66 q 566 90 521 66 q 644 161 612 115 q 697 273 676 207 q 728 425 718 340 l 798 949 l 696 966 l 703 1038 l 1014 1038 l 1005 966 l 920 950 l 851 425 q 802 222 836 305 q 715 86 768 138 q 591 10 663 34 q 430 -14 520 -14 q 276 9 340 -14 q 172 72 212 31 q 112 168 131 112 q 93 290 94 224 m 366 1129 l 593 1361 l 714 1361 l 857 1129 l 792 1089 l 642 1237 l 422 1090 l 366 1129 z "},"Ü":{"ha":958,"x_min":74,"x_max":1014,"o":"m 744 1139 q 710 1145 726 1139 q 683 1164 694 1152 q 666 1193 672 1177 q 659 1229 659 1210 q 668 1273 659 1253 q 691 1307 677 1293 q 725 1329 706 1321 q 766 1337 745 1337 q 804 1331 787 1337 q 833 1312 821 1324 q 850 1284 844 1300 q 855 1250 856 1268 q 846 1206 854 1226 q 824 1171 838 1185 q 789 1147 810 1156 q 744 1139 769 1139 m 449 1139 q 415 1146 431 1139 q 388 1165 399 1153 q 370 1194 376 1177 q 365 1229 364 1210 q 374 1273 366 1253 q 397 1307 382 1293 q 430 1329 411 1321 q 470 1337 449 1337 q 509 1331 492 1337 q 537 1312 526 1324 q 554 1284 549 1300 q 559 1250 560 1268 q 551 1206 559 1226 q 529 1171 543 1185 q 494 1147 514 1156 q 449 1139 474 1139 m 93 290 q 93 344 92 317 q 98 402 94 372 l 168 950 l 74 966 l 83 1038 l 485 1038 l 478 967 l 360 949 l 292 418 q 285 345 288 379 q 282 285 282 311 q 294 193 283 233 q 328 124 306 152 q 384 81 351 96 q 461 66 417 66 q 566 90 521 66 q 644 161 612 115 q 697 273 676 207 q 728 425 718 340 l 798 949 l 696 966 l 703 1038 l 1014 1038 l 1005 966 l 920 950 l 851 425 q 802 222 836 305 q 715 86 768 138 q 591 10 663 34 q 430 -14 520 -14 q 276 9 340 -14 q 172 72 212 31 q 112 168 131 112 q 93 290 94 224 z "},"õ":{"ha":793,"x_min":48,"x_max":741,"o":"m 50 298 q 76 483 48 394 q 158 639 104 571 q 286 748 211 707 q 454 789 361 789 q 575 768 523 789 q 664 707 628 747 q 719 609 700 667 q 740 477 738 551 q 729 352 741 413 q 693 236 718 290 q 633 135 669 181 q 551 57 597 90 q 451 5 506 24 q 335 -14 397 -14 q 214 7 267 -14 q 126 68 162 28 q 71 166 90 108 q 50 298 52 224 m 362 71 q 424 89 397 71 q 473 138 452 107 q 508 209 494 168 q 532 295 523 250 q 545 387 541 340 q 547 478 548 434 q 517 646 545 591 q 431 701 488 701 q 368 683 396 701 q 319 634 340 665 q 282 564 298 604 q 258 478 267 524 q 244 387 248 433 q 241 297 240 340 q 272 127 244 183 q 362 71 300 71 m 214 1015 q 243 1057 225 1036 q 284 1094 262 1078 q 333 1119 307 1109 q 385 1129 359 1129 q 428 1122 410 1129 q 461 1104 447 1115 q 489 1080 476 1093 q 513 1056 501 1067 q 538 1038 525 1045 q 567 1031 551 1031 q 601 1037 586 1031 q 628 1054 616 1044 q 651 1077 640 1065 q 671 1102 661 1090 l 720 1027 q 694 981 711 1003 q 654 941 677 958 q 605 914 631 924 q 550 904 578 904 q 501 911 521 904 q 466 929 481 918 q 439 952 451 940 q 416 976 428 965 q 390 995 404 987 q 356 1002 376 1002 q 329 997 342 1002 q 302 984 315 992 q 278 965 290 975 q 256 944 266 954 l 214 1015 z "},"ö":{"ha":793,"x_min":48,"x_max":741,"o":"m 609 924 q 574 932 591 924 q 546 954 558 941 q 528 985 534 968 q 522 1022 521 1003 q 531 1066 522 1045 q 553 1103 539 1087 q 587 1127 568 1118 q 631 1137 607 1137 q 670 1129 652 1137 q 699 1108 687 1121 q 717 1078 711 1095 q 723 1043 724 1061 q 714 998 722 1019 q 691 960 706 976 q 656 934 677 943 q 609 924 635 924 m 313 924 q 279 932 295 924 q 251 954 262 941 q 232 985 239 968 q 226 1022 225 1003 q 235 1066 227 1045 q 258 1103 243 1087 q 292 1127 272 1118 q 335 1137 311 1137 q 374 1129 357 1137 q 403 1108 391 1121 q 421 1078 415 1095 q 427 1043 428 1061 q 418 998 427 1019 q 396 960 410 976 q 360 934 381 943 q 313 924 340 924 m 50 298 q 76 483 48 394 q 158 639 104 571 q 286 748 211 707 q 454 789 361 789 q 575 768 523 789 q 664 707 628 747 q 719 609 700 667 q 740 477 738 551 q 729 352 741 413 q 693 236 718 290 q 633 135 669 181 q 551 57 597 90 q 451 5 506 24 q 335 -14 397 -14 q 214 7 267 -14 q 126 68 162 28 q 71 166 90 108 q 50 298 52 224 m 362 71 q 424 89 397 71 q 473 138 452 107 q 508 209 494 168 q 532 295 523 250 q 545 387 541 340 q 547 478 548 434 q 517 646 545 591 q 431 701 488 701 q 368 683 396 701 q 319 634 340 665 q 282 564 298 604 q 258 478 267 524 q 244 387 248 433 q 241 297 240 340 q 272 127 244 183 q 362 71 300 71 z "},"ñ":{"ha":870,"x_min":74,"x_max":804,"o":"m 162 653 l 93 693 l 104 753 l 313 789 l 347 772 l 335 631 q 390 694 360 665 q 454 744 420 723 q 525 777 488 765 q 600 789 562 789 q 668 778 637 789 q 721 744 699 768 q 755 680 743 720 q 767 584 767 641 q 764 534 767 564 q 755 471 760 505 q 744 405 750 438 q 733 342 738 371 q 724 289 728 317 q 714 235 719 262 q 707 181 710 208 q 703 133 704 155 q 708 99 703 109 q 724 89 714 89 q 747 95 734 89 q 784 120 760 101 l 804 77 q 784 55 799 71 q 747 25 770 40 q 693 -2 724 9 q 626 -14 663 -14 q 571 -6 593 -14 q 537 15 549 1 q 519 48 524 29 q 515 89 515 66 q 519 133 516 108 q 527 185 522 157 q 536 242 531 213 q 547 300 542 272 q 558 363 552 329 q 570 432 565 397 q 578 503 575 467 q 582 568 582 538 q 577 620 582 601 q 565 650 573 640 q 544 665 556 661 q 516 668 532 668 q 468 655 494 668 q 415 621 441 643 q 364 569 389 599 q 319 505 339 539 l 250 0 l 74 0 l 162 653 m 252 1015 q 281 1057 262 1036 q 322 1094 299 1078 q 371 1119 345 1109 q 422 1129 397 1129 q 466 1122 447 1129 q 499 1104 484 1115 q 526 1080 513 1093 q 550 1056 538 1067 q 575 1038 562 1045 q 604 1031 588 1031 q 638 1037 623 1031 q 665 1054 653 1044 q 688 1077 677 1065 q 708 1102 699 1090 l 758 1027 q 731 981 749 1003 q 691 941 714 958 q 642 914 669 924 q 587 904 615 904 q 538 911 558 904 q 503 929 518 918 q 477 952 488 940 q 453 976 465 965 q 427 995 441 987 q 393 1002 413 1002 q 366 997 380 1002 q 340 984 353 992 q 315 965 327 975 q 294 944 303 954 l 252 1015 z "}," ":{"ha":329,"x_min":0,"x_max":0,"o":"z "},"œ":{"ha":1194,"x_min":47,"x_max":1161,"o":"m 50 298 q 75 483 47 394 q 157 639 103 571 q 286 748 210 707 q 456 789 362 789 q 594 759 538 789 q 684 674 651 730 q 807 758 739 728 q 953 789 875 789 q 1045 776 1006 789 q 1109 740 1084 763 q 1147 686 1135 717 q 1160 619 1160 655 q 1140 521 1161 565 q 1082 444 1118 477 q 1000 385 1046 410 q 905 344 954 360 q 809 320 857 328 q 725 311 762 311 q 730 229 723 268 q 753 160 737 190 q 797 112 770 130 q 861 94 823 94 q 981 123 928 94 q 1078 197 1035 152 l 1115 134 q 1074 87 1101 113 q 1009 39 1047 61 q 923 1 971 16 q 817 -14 874 -14 q 680 15 735 -14 q 590 90 625 43 q 474 14 539 41 q 334 -14 410 -14 q 213 7 265 -14 q 126 68 161 28 q 71 166 90 108 q 50 298 52 224 m 727 389 q 779 397 751 390 q 836 416 807 404 q 891 447 864 429 q 938 489 918 465 q 970 542 958 513 q 982 604 983 570 q 963 679 981 654 q 911 703 944 703 q 856 688 881 703 q 812 648 831 673 q 778 591 792 623 q 752 523 763 558 q 736 453 742 488 q 727 389 730 418 m 361 71 q 423 89 395 71 q 472 138 451 107 q 509 210 494 169 q 532 299 524 252 q 537 358 534 330 q 546 414 540 386 q 545 518 548 467 q 530 610 543 569 q 494 675 518 650 q 430 701 471 701 q 368 683 395 701 q 319 634 340 665 q 282 563 298 604 q 258 477 267 522 q 244 386 248 433 q 241 296 240 339 q 272 130 244 188 q 361 71 300 71 z "},"‡":{"ha":553,"x_min":79,"x_max":596,"o":"m 202 338 l 226 419 l 79 419 l 98 536 l 250 536 l 247 665 l 279 758 l 102 758 l 120 873 l 311 873 l 309 996 l 322 1116 l 472 1116 l 453 996 l 416 873 l 596 873 l 579 758 l 410 758 q 409 739 410 751 q 409 711 409 726 q 409 684 409 697 q 409 665 409 671 l 362 536 l 525 536 l 508 419 l 361 419 q 361 402 361 414 q 360 379 361 391 q 359 355 360 366 q 357 338 358 343 l 283 -35 l 183 -35 l 202 338 z "},"€":{"ha":941,"x_min":22,"x_max":923,"o":"m 33 471 l 155 471 q 161 543 157 508 q 171 610 165 577 l 67 610 l 80 705 l 197 705 q 273 853 226 789 q 380 961 321 918 q 509 1026 439 1004 q 651 1048 578 1048 q 722 1045 690 1048 q 779 1036 753 1042 q 825 1024 804 1031 q 864 1012 846 1018 q 879 1008 870 1010 q 896 1004 887 1006 q 911 1001 904 1002 q 923 998 919 999 l 883 805 l 801 805 l 785 909 q 759 930 774 920 q 724 946 744 939 q 678 957 704 954 q 618 961 652 961 q 536 943 574 961 q 468 892 498 926 q 413 812 437 859 q 373 705 389 764 l 712 705 l 699 610 l 353 610 q 344 543 347 577 q 340 471 341 508 l 664 471 l 655 376 l 340 376 q 390 160 345 237 q 520 84 435 84 q 623 100 580 84 q 690 146 667 115 l 737 256 l 825 255 l 793 47 q 747 41 773 46 q 696 30 721 37 q 654 17 676 24 q 607 3 632 9 q 552 -7 581 -3 q 487 -11 522 -11 q 346 20 405 -11 q 246 104 286 51 q 185 227 206 157 q 157 376 163 297 l 22 376 l 33 471 z "},"∞":{"ha":1457,"x_min":125,"x_max":1335,"o":"m 125 403 q 148 527 125 470 q 213 627 171 585 q 312 693 254 669 q 437 717 369 717 q 534 701 490 717 q 613 660 577 685 q 681 601 650 634 q 739 535 711 568 q 797 602 765 570 q 867 660 829 635 q 950 701 905 686 q 1045 717 994 716 q 1165 695 1112 718 q 1256 635 1218 673 q 1314 547 1293 597 q 1335 441 1334 497 q 1314 315 1335 373 q 1251 215 1292 257 q 1152 149 1211 172 q 1022 125 1094 125 q 925 141 968 125 q 846 182 882 157 q 780 241 810 208 q 722 307 749 273 q 666 240 696 273 q 599 181 636 207 q 518 140 562 156 q 420 125 473 125 q 299 147 354 124 q 206 208 245 170 q 146 297 168 246 q 125 403 125 347 m 279 429 q 293 359 281 393 q 328 299 305 325 q 382 258 350 273 q 455 242 414 242 q 512 253 484 242 q 564 284 539 264 q 612 330 589 303 q 657 386 635 356 q 612 454 636 416 q 560 525 589 492 q 495 581 531 558 q 412 603 458 603 q 356 588 381 603 q 314 547 331 572 q 287 491 296 522 q 279 429 278 460 m 804 457 q 854 386 827 425 q 913 313 881 347 q 985 255 946 279 q 1070 232 1023 232 q 1122 246 1100 232 q 1159 285 1145 260 q 1180 343 1174 310 q 1186 413 1187 376 q 1174 482 1185 448 q 1142 542 1164 515 q 1089 584 1121 568 q 1014 600 1057 600 q 957 588 985 600 q 902 558 928 577 q 851 512 876 538 q 804 457 827 486 z "},"≤":{"ha":925,"x_min":95,"x_max":817,"o":"m 140 520 l 817 817 l 801 675 l 342 492 l 758 307 l 742 167 l 134 467 l 140 520 m 109 108 l 751 108 l 738 -1 l 95 -1 l 109 108 z "},"≥":{"ha":925,"x_min":96,"x_max":821,"o":"m 153 309 l 614 494 l 199 677 l 216 819 l 821 520 l 814 467 l 134 167 l 153 309 m 109 108 l 752 108 l 739 -1 l 96 -1 l 109 108 z "},"∂":{"ha":925,"x_min":106,"x_max":838,"o":"m 108 294 q 144 460 112 387 q 230 586 176 534 q 356 665 284 637 q 510 693 428 693 q 604 679 561 693 q 677 646 646 665 q 671 747 677 697 q 651 841 665 797 q 617 922 638 885 q 565 987 595 960 q 492 1029 534 1014 q 397 1044 450 1044 q 363 1042 380 1044 q 328 1035 347 1040 q 289 1019 310 1029 q 244 994 269 1009 l 179 1052 q 240 1092 208 1075 q 308 1120 273 1109 q 377 1136 342 1131 q 444 1141 412 1141 q 580 1118 521 1141 q 683 1057 639 1095 q 756 968 726 1019 q 804 864 786 918 q 830 755 822 810 q 838 652 838 700 q 830 503 838 580 q 803 351 822 425 q 752 210 784 277 q 671 93 720 144 q 555 13 623 43 q 398 -16 488 -16 q 269 12 325 -16 q 177 84 214 39 q 123 184 140 128 q 108 294 106 239 m 271 330 q 277 245 269 290 q 304 163 285 201 q 353 101 323 125 q 428 76 384 76 q 497 91 467 76 q 553 132 528 106 q 595 192 577 157 q 627 268 614 227 q 649 351 640 308 q 664 437 659 394 q 669 477 667 456 q 673 519 671 498 q 591 574 641 553 q 467 595 541 595 q 408 581 441 595 q 346 534 376 566 q 296 451 317 502 q 271 330 275 401 z "},"∑":{"ha":1076,"x_min":147,"x_max":943,"o":"m 493 456 l 154 949 l 167 1043 l 894 1043 l 914 814 l 812 814 l 762 940 l 348 957 l 686 477 l 336 -25 l 764 -7 l 845 144 l 943 123 l 902 -119 l 159 -119 l 147 -45 l 493 456 z "},"∏":{"ha":1193,"x_min":116,"x_max":1128,"o":"m 239 -28 l 239 948 l 116 964 l 116 1042 l 1128 1042 l 1128 964 l 1001 948 l 1001 -28 l 1126 -54 l 1126 -119 l 694 -119 l 694 -54 l 819 -28 l 819 957 l 422 957 l 422 -28 l 544 -53 l 544 -119 l 118 -119 l 118 -53 l 239 -28 z "},"π":{"ha":1099,"x_min":80,"x_max":1042,"o":"m 80 92 q 168 125 132 102 q 230 179 204 147 q 272 251 255 211 q 300 338 288 292 l 373 620 l 304 620 q 271 613 288 620 q 241 594 255 606 q 215 568 227 583 q 198 536 204 553 l 109 547 q 112 604 109 572 q 127 661 115 635 q 165 712 142 691 q 215 747 188 734 q 274 767 243 761 q 336 774 304 774 l 834 774 q 904 789 877 774 q 945 845 932 804 l 1042 845 q 1023 755 1038 796 q 982 683 1008 713 q 915 636 955 653 q 823 619 876 619 l 793 619 q 776 484 783 542 q 764 384 769 427 q 757 311 760 341 q 752 260 754 281 q 750 224 751 239 q 749 197 749 209 q 758 146 747 166 q 792 126 769 127 q 822 131 806 125 q 852 149 838 136 q 880 182 867 162 q 901 231 892 202 l 998 231 q 969 143 990 186 q 916 64 949 99 q 837 7 883 28 q 732 -15 791 -15 q 625 24 661 -15 q 589 125 589 62 q 593 188 589 149 q 606 286 597 227 q 628 427 614 345 q 661 619 642 509 l 500 619 l 448 298 q 408 151 434 210 q 347 56 381 92 q 272 4 313 20 q 190 -16 232 -13 l 80 92 l 80 92 z "},"∫":{"ha":804,"x_min":35,"x_max":764,"o":"m 135 -155 q 150 -183 139 -168 q 175 -210 160 -197 q 208 -230 189 -222 q 245 -238 226 -238 q 306 -228 280 -238 q 347 -193 331 -218 q 372 -126 363 -168 q 380 -22 380 -84 q 370 115 380 47 q 346 250 360 182 q 314 386 331 318 q 282 520 296 453 q 257 655 267 587 q 248 791 248 723 q 271 935 248 868 q 335 1051 294 1002 q 435 1129 377 1101 q 564 1158 493 1158 q 611 1154 584 1158 q 667 1140 639 1151 q 722 1110 696 1130 q 764 1058 747 1090 l 663 980 q 650 1007 660 992 q 626 1034 641 1021 q 592 1055 611 1046 q 553 1063 574 1063 q 493 1053 518 1063 q 451 1018 467 1042 q 426 951 434 993 q 418 847 418 909 q 427 710 418 779 q 451 574 437 642 q 483 439 466 507 q 514 304 499 372 q 538 168 528 236 q 547 31 547 100 q 525 -113 547 -46 q 461 -230 503 -180 q 362 -307 420 -279 q 234 -336 304 -336 q 186 -332 214 -336 q 130 -318 159 -329 q 76 -288 102 -308 q 35 -236 51 -269 l 135 -155 l 135 -155 z "},"Ω":{"ha":1134,"x_min":-31,"x_max":1123,"o":"m -24 271 l 71 265 l 88 113 l 298 113 q 226 195 262 145 q 163 303 191 244 q 119 429 135 363 q 107 562 104 495 q 151 761 113 671 q 256 915 189 851 q 416 1014 322 979 q 627 1049 510 1049 q 803 1022 724 1049 q 936 943 882 995 q 1018 814 991 890 q 1040 638 1046 737 q 1015 502 1036 574 q 957 360 993 430 q 871 228 920 290 q 766 119 823 165 l 972 119 l 1026 284 l 1123 281 l 1076 0 l 622 0 l 595 94 q 693 181 648 127 q 772 303 738 234 q 826 452 806 372 q 850 621 847 533 q 839 759 854 695 q 792 868 824 822 q 712 940 760 914 q 603 966 664 966 q 475 938 531 966 q 379 857 418 909 q 316 728 339 804 q 290 560 294 653 q 293 459 287 509 q 312 363 300 410 q 341 275 324 317 q 379 198 359 233 q 419 137 399 163 q 460 94 440 111 l 422 0 l -31 0 l -24 271 z "},"√":{"ha":1076,"x_min":49,"x_max":1148,"o":"m 49 392 l 191 494 l 327 494 l 463 -58 l 970 1300 l 1148 1300 l 527 -246 l 376 -246 l 194 348 q 146 323 171 336 q 101 298 121 309 l 49 392 z "},"≈":{"ha":696,"x_min":16,"x_max":694,"o":"m 16 290 q 44 340 24 315 q 92 386 64 366 q 155 419 120 406 q 228 433 189 433 q 279 425 256 433 q 322 404 302 416 q 360 378 342 392 q 395 351 378 363 q 429 331 412 339 q 467 323 446 323 q 544 343 512 323 q 600 399 576 363 l 660 334 q 632 279 652 306 q 584 232 612 253 q 519 197 555 210 q 445 184 484 184 q 392 193 416 184 q 348 214 368 201 q 311 241 328 227 q 276 268 293 256 q 241 289 258 281 q 203 298 223 298 q 127 279 162 298 q 69 225 93 261 l 16 290 m 50 592 q 78 642 58 616 q 126 688 98 667 q 189 721 154 708 q 262 734 223 734 q 313 726 290 734 q 356 706 336 718 q 394 680 376 694 q 429 653 412 665 q 463 633 446 641 q 500 625 480 625 q 578 645 546 625 q 634 701 610 665 l 694 635 q 666 581 686 608 q 617 533 646 555 q 553 499 589 512 q 479 486 517 486 q 426 495 450 486 q 382 516 402 503 q 345 543 362 528 q 310 570 327 557 q 275 591 292 583 q 237 600 257 600 q 161 581 196 600 q 103 527 127 563 l 50 592 z "},"∆":{"ha":954,"x_min":-29,"x_max":910,"o":"m -29 15 l 489 1023 l 524 1023 l 910 18 l 899 0 l -21 0 l -29 15 m 690 126 l 458 760 l 143 126 l 690 126 z "},"v":{"ha":726,"x_min":4,"x_max":707,"o":"m 173 241 l 98 641 q 87 670 94 662 q 71 679 81 678 q 47 673 59 680 q 24 660 35 667 l 4 707 q 22 727 8 713 q 56 754 35 740 q 103 778 77 768 q 161 789 130 789 q 243 765 218 789 q 275 696 269 741 l 333 275 l 347 139 l 411 239 q 455 318 434 279 q 493 398 476 357 q 522 483 510 439 q 540 577 534 526 q 538 611 541 594 q 531 644 535 627 q 523 675 526 660 q 519 705 519 691 q 542 766 519 744 q 605 789 564 789 q 654 778 635 789 q 686 748 674 767 q 702 703 697 728 q 707 648 707 677 q 698 580 707 616 q 673 504 689 543 q 637 425 658 465 q 593 346 616 385 q 547 272 570 307 q 502 205 524 236 l 336 -6 l 219 -14 l 173 241 z "},"…":{"ha":1070,"x_min":41,"x_max":966,"o":"m 755 83 q 767 131 757 109 q 794 168 778 153 q 832 192 811 184 q 873 201 852 201 q 916 193 898 201 q 945 171 934 184 q 961 140 956 158 q 964 104 966 123 q 951 53 963 75 q 922 16 940 31 q 883 -6 905 1 q 839 -14 861 -14 q 805 -7 821 -14 q 778 13 789 0 q 760 43 766 25 q 755 83 754 61 m 399 83 q 411 131 400 109 q 438 168 421 153 q 475 192 454 184 q 517 201 496 201 q 559 193 541 201 q 588 171 577 184 q 604 140 600 158 q 608 104 609 123 q 595 53 606 75 q 566 16 583 31 q 526 -6 548 1 q 482 -14 505 -14 q 448 -7 464 -14 q 421 13 432 0 q 404 43 410 25 q 399 83 397 61 m 42 83 q 54 131 43 109 q 81 168 64 153 q 118 192 98 184 q 160 201 139 201 q 202 193 184 201 q 232 171 220 184 q 248 140 243 158 q 251 104 252 123 q 238 53 250 75 q 209 16 227 31 q 170 -6 191 1 q 125 -14 148 -14 q 91 -7 107 -14 q 64 13 75 0 q 47 43 53 25 q 42 83 41 61 z "},"‰":{"ha":1840,"x_min":122,"x_max":1722,"o":"m 1234 255 q 1255 361 1234 309 q 1315 455 1276 414 q 1406 521 1353 496 q 1520 547 1458 547 q 1611 531 1573 547 q 1673 489 1649 516 q 1710 424 1698 461 q 1722 343 1722 387 q 1701 233 1722 288 q 1643 136 1681 179 q 1551 67 1605 94 q 1432 41 1498 41 q 1347 58 1384 41 q 1284 103 1310 75 q 1246 171 1259 132 q 1234 255 1234 210 m 1370 256 q 1375 199 1370 224 q 1389 154 1379 173 q 1415 125 1399 135 q 1452 115 1430 115 q 1510 138 1485 115 q 1549 195 1534 161 q 1572 268 1565 229 q 1579 338 1579 307 q 1561 437 1579 401 q 1501 474 1542 474 q 1443 452 1468 474 q 1402 397 1418 430 q 1378 326 1385 364 q 1370 256 1370 288 m 901 1038 l 1029 1038 l 387 0 l 258 0 l 901 1038 m 321 502 q 235 518 273 502 q 173 564 198 535 q 135 632 148 593 q 122 715 122 671 q 143 822 122 769 q 203 915 165 874 q 294 982 241 956 q 409 1007 347 1007 q 499 992 461 1007 q 562 949 537 977 q 598 884 587 922 q 610 804 610 847 q 590 694 610 748 q 531 597 569 640 q 440 528 493 554 q 321 502 387 502 m 340 575 q 398 598 374 575 q 438 655 422 621 q 460 728 453 690 q 468 798 468 767 q 449 898 468 861 q 390 935 431 935 q 331 912 356 935 q 290 858 307 890 q 266 787 274 825 q 258 717 258 749 q 263 659 258 685 q 278 614 268 633 q 303 585 288 595 q 340 575 319 575 m 696 255 q 718 361 696 309 q 778 455 739 414 q 868 521 816 496 q 983 547 921 547 q 1074 531 1036 547 q 1136 489 1112 516 q 1173 424 1161 461 q 1185 343 1185 387 q 1164 233 1185 288 q 1105 136 1143 179 q 1014 67 1067 94 q 895 41 961 41 q 810 58 847 41 q 747 103 772 75 q 709 171 722 132 q 696 255 696 210 m 833 256 q 838 199 833 224 q 852 154 842 173 q 878 125 862 135 q 915 115 893 115 q 972 138 948 115 q 1012 195 997 161 q 1035 268 1027 229 q 1042 338 1042 307 q 1024 437 1042 401 q 964 474 1005 474 q 906 452 930 474 q 865 397 881 430 q 841 326 848 364 q 833 256 833 288 z "},"ƒ":{"ha":718,"x_min":118,"x_max":711,"o":"m 258 668 l 118 668 l 125 739 l 268 779 l 273 816 q 296 910 278 866 q 340 991 314 954 q 398 1056 366 1027 q 464 1105 430 1085 q 533 1136 498 1125 q 597 1146 567 1146 q 677 1142 651 1146 q 711 1135 703 1138 l 702 996 q 687 1002 696 998 q 664 1010 678 1006 q 629 1017 650 1015 q 579 1020 608 1020 q 533 1015 556 1020 q 492 995 511 1010 q 459 950 473 980 q 441 871 446 921 l 430 779 l 621 779 l 612 668 l 416 668 l 303 -241 l 142 -241 l 258 668 z "},"ﬁ":{"ha":924,"x_min":-155,"x_max":896,"o":"m 572 82 q 585 182 576 123 q 603 316 593 241 q 626 479 614 391 q 652 665 639 567 l 547 699 l 559 754 l 812 789 l 848 772 l 757 140 q 777 89 749 89 q 803 97 788 89 q 844 127 818 105 l 864 85 q 843 61 859 77 q 805 28 828 45 q 750 -1 781 12 q 681 -14 718 -14 q 595 11 624 -14 q 572 82 566 35 m 774 924 q 738 932 755 924 q 707 954 720 941 q 687 985 694 968 q 680 1022 680 1003 q 690 1066 681 1046 q 715 1103 700 1087 q 752 1127 731 1118 q 796 1137 772 1137 q 838 1129 819 1137 q 870 1108 857 1121 q 889 1078 883 1095 q 895 1043 896 1061 q 886 998 895 1019 q 862 960 878 976 q 824 934 846 943 q 774 924 802 924 m 168 677 l 79 677 l 91 737 l 187 780 l 197 839 q 235 956 208 902 q 301 1048 262 1009 q 390 1110 340 1088 q 498 1133 440 1133 q 555 1129 526 1133 q 612 1115 585 1126 l 570 998 q 555 1008 564 1002 q 535 1019 547 1014 q 509 1027 524 1024 q 477 1030 494 1030 q 433 1020 450 1030 q 403 988 415 1009 q 384 936 391 967 q 370 864 376 905 l 359 783 l 517 783 l 505 677 l 345 677 l 260 -17 q 229 -146 252 -86 q 168 -251 205 -206 q 80 -322 131 -296 q -35 -348 29 -348 q -72 -347 -54 -348 q -105 -344 -90 -346 q -134 -340 -121 -342 q -155 -336 -147 -338 l -118 -216 q -102 -223 -115 -218 q -72 -233 -89 -228 q -38 -242 -56 -238 q -9 -245 -21 -245 q 45 -207 24 -245 q 75 -98 65 -168 l 168 677 z "},"ﬂ":{"ha":901,"x_min":-155,"x_max":869,"o":"m 556 78 q 558 104 556 89 q 561 130 559 120 l 681 1005 l 595 1034 l 608 1090 l 835 1119 l 869 1101 l 738 140 q 739 103 734 117 q 757 89 743 89 q 782 96 767 89 q 825 127 796 103 l 844 85 q 825 61 840 77 q 787 28 810 45 q 734 -1 764 12 q 668 -14 704 -14 q 624 -8 644 -14 q 589 7 604 -3 q 565 36 574 18 q 556 78 556 54 m 168 677 l 79 677 l 91 737 l 187 780 l 197 839 q 235 956 208 902 q 301 1048 262 1009 q 390 1110 340 1088 q 498 1133 440 1133 q 555 1129 526 1133 q 612 1115 585 1126 l 570 998 q 555 1008 564 1002 q 535 1019 547 1014 q 509 1027 524 1024 q 477 1030 494 1030 q 433 1020 450 1030 q 403 988 415 1009 q 384 936 391 967 q 370 864 376 905 l 359 783 l 517 783 l 505 677 l 345 677 l 260 -17 q 229 -146 252 -86 q 168 -251 205 -206 q 80 -322 131 -296 q -35 -348 29 -348 q -72 -347 -54 -348 q -105 -344 -90 -346 q -134 -340 -121 -342 q -155 -336 -147 -338 l -118 -216 q -102 -223 -115 -218 q -72 -233 -89 -228 q -38 -242 -56 -238 q -9 -245 -21 -245 q 45 -207 24 -245 q 75 -98 65 -168 l 168 677 z "},"™":{"ha":1470,"x_min":87,"x_max":1402,"o":"m 585 554 l 657 564 l 733 966 l 666 972 l 674 1038 l 912 1038 l 978 735 l 998 646 l 1172 1038 l 1402 1038 l 1394 972 l 1328 966 l 1314 565 l 1379 554 l 1371 498 l 1127 498 l 1135 554 l 1200 565 l 1213 817 l 1226 968 l 1205 920 l 1003 492 l 922 492 l 828 868 l 804 970 l 787 863 l 732 564 l 795 554 l 788 498 l 577 498 l 585 554 m 148 554 l 233 564 l 290 966 l 178 958 l 138 865 l 87 865 l 122 1038 l 596 1038 l 574 866 l 525 863 l 519 958 l 408 968 l 351 565 l 439 554 l 432 498 l 140 498 l 148 554 z "},"≠":{"ha":696,"x_min":53,"x_max":668,"o":"m 187 220 l 53 220 l 67 340 l 241 340 l 345 572 l 102 572 l 115 692 l 398 692 l 490 898 l 618 898 l 526 692 l 668 692 l 654 572 l 473 572 l 369 340 l 620 340 l 606 220 l 315 220 l 218 0 l 90 0 l 187 220 z "},"Œ":{"ha":1545,"x_min":53,"x_max":1474,"o":"m 429 -14 q 267 18 336 -14 q 150 108 197 50 q 78 247 102 166 q 54 427 54 328 q 68 590 53 511 q 113 739 83 669 q 186 865 142 808 q 288 964 231 922 q 414 1028 345 1005 q 563 1050 483 1050 q 666 1037 620 1050 q 747 998 711 1023 q 808 939 783 973 q 852 861 834 904 l 874 1038 l 1466 1038 l 1451 807 l 1343 807 l 1316 947 l 1048 960 l 1000 589 l 1299 599 l 1287 472 l 989 486 l 935 85 l 1286 106 l 1367 277 l 1474 261 l 1420 0 l 745 0 l 762 144 q 622 29 705 71 q 429 -14 539 -14 m 448 68 q 570 109 515 68 q 662 219 625 149 q 720 386 700 290 q 739 592 739 481 q 689 871 737 776 q 543 966 642 966 q 459 947 498 966 q 387 894 420 928 q 328 813 354 861 q 284 710 302 766 q 257 591 267 654 q 248 461 248 528 q 258 309 249 380 q 290 184 268 238 q 351 100 313 131 q 448 68 389 68 z "},"Ÿ":{"ha":832,"x_min":20,"x_max":951,"o":"m 144 66 l 288 85 l 329 406 l 93 949 l 20 966 l 28 1038 l 425 1038 l 416 966 l 300 949 l 435 592 l 466 508 l 508 583 l 723 949 l 624 966 l 631 1038 l 951 1038 l 943 966 l 866 950 l 513 406 l 471 85 l 627 66 l 621 0 l 137 0 l 144 66 m 666 1139 q 632 1145 648 1139 q 605 1164 616 1152 q 588 1193 594 1177 q 581 1229 581 1210 q 590 1273 581 1253 q 613 1307 599 1293 q 647 1329 628 1321 q 688 1337 667 1337 q 726 1331 709 1337 q 755 1312 743 1324 q 772 1284 766 1300 q 777 1250 778 1268 q 768 1206 777 1226 q 746 1171 760 1185 q 711 1147 732 1156 q 666 1139 691 1139 m 371 1139 q 337 1146 353 1139 q 310 1165 321 1153 q 292 1194 298 1177 q 287 1229 286 1210 q 296 1273 288 1253 q 319 1307 304 1293 q 352 1329 333 1321 q 392 1337 371 1337 q 431 1331 414 1337 q 459 1312 448 1324 q 476 1284 471 1300 q 481 1250 482 1268 q 473 1206 481 1226 q 451 1171 465 1185 q 416 1147 436 1156 q 371 1139 396 1139 z "},"\n":{"ha":0,"x_min":0,"x_max":0,"o":""},"\t":{"ha":0,"x_min":0,"x_max":0,"o":""},"\u0010":{"ha":0,"x_min":0,"x_max":0,"o":""},"\u0011":{"ha":0,"x_min":0,"x_max":0,"o":""},"\u0012":{"ha":0,"x_min":0,"x_max":0,"o":""},"\u0013":{"ha":0,"x_min":0,"x_max":0,"o":""},"\u0014":{"ha":0,"x_min":0,"x_max":0,"o":""},"\u001e":{"ha":0,"x_min":0,"x_max":0,"o":""},"\u001f":{"ha":0,"x_min":0,"x_max":0,"o":""},"":{"ha":0,"x_min":0,"x_max":0,"o":""},"◊":{"ha":925,"x_min":106,"x_max":818,"o":"m 106 469 l 106 505 l 399 977 l 526 977 l 818 505 l 818 469 l 526 -3 l 399 -3 l 106 469 m 667 487 l 462 838 l 257 487 l 462 136 l 667 487 z "},"\u0001":{"ha":0,"x_min":0,"x_max":0,"o":""},"\u0002":{"ha":0,"x_min":0,"x_max":0,"o":""},"\u0003":{"ha":0,"x_min":0,"x_max":0,"o":""},"\u0019":{"ha":0,"x_min":0,"x_max":0,"o":""},"\u0018":{"ha":0,"x_min":0,"x_max":0,"o":""},"\u0017":{"ha":0,"x_min":0,"x_max":0,"o":""},"\u0016":{"ha":0,"x_min":0,"x_max":0,"o":""},"\u0015":{"ha":0,"x_min":0,"x_max":0,"o":""},"\b":{"ha":0,"x_min":0,"x_max":0,"o":""},"\u0007":{"ha":0,"x_min":0,"x_max":0,"o":""},"\u0006":{"ha":0,"x_min":0,"x_max":0,"o":""},"\u0005":{"ha":0,"x_min":0,"x_max":0,"o":""},"\u0004":{"ha":0,"x_min":0,"x_max":0,"o":""},"å":{"ha":810,"x_min":49,"x_max":758,"o":"m 49 276 q 62 396 49 335 q 101 514 75 457 q 165 621 127 571 q 254 708 203 671 q 366 767 304 745 q 501 789 428 789 q 539 786 519 789 q 578 781 559 784 q 616 772 597 777 q 649 762 634 767 l 741 789 l 652 140 q 657 101 649 113 q 676 89 665 89 q 700 95 686 89 q 737 120 713 101 l 758 77 q 738 55 753 70 q 702 24 724 39 q 650 -2 680 9 q 587 -14 621 -14 q 512 9 540 -14 q 486 78 484 31 l 485 80 q 447 45 469 62 q 400 15 426 28 q 344 -6 374 2 q 280 -14 314 -14 q 176 9 220 -14 q 104 70 132 31 q 62 162 76 109 q 49 276 49 215 m 340 94 q 381 100 361 94 q 419 117 401 106 q 453 141 437 127 q 481 170 469 155 l 551 689 q 482 700 521 700 q 402 681 437 700 q 339 631 366 663 q 292 559 311 600 q 259 472 272 517 q 241 379 247 426 q 235 288 235 332 q 263 145 235 196 q 340 94 292 94 m 510 850 q 422 862 460 850 q 358 897 384 874 q 321 952 333 920 q 311 1025 309 985 q 338 1115 314 1078 q 399 1174 363 1152 q 478 1207 435 1197 q 559 1217 521 1217 q 643 1206 606 1217 q 706 1172 680 1194 q 744 1119 731 1150 q 755 1047 757 1087 q 730 959 752 996 q 673 898 707 922 q 596 862 638 873 q 510 850 553 850 m 522 928 q 566 932 545 928 q 604 949 587 937 q 630 983 620 962 q 642 1036 640 1004 q 636 1078 644 1059 q 616 1111 629 1097 q 585 1132 604 1124 q 546 1140 567 1140 q 502 1135 524 1140 q 464 1117 481 1129 q 437 1083 448 1104 q 425 1033 426 1063 q 431 992 423 1011 q 452 959 438 973 q 484 936 465 945 q 522 928 502 928 z "},"Å":{"ha":922,"x_min":-96,"x_max":928,"o":"m 456 1017 q 375 1075 402 1035 q 351 1174 348 1114 q 379 1263 354 1227 q 440 1321 404 1299 q 519 1352 476 1343 q 600 1361 562 1361 q 683 1350 646 1361 q 746 1318 720 1339 q 785 1266 772 1297 q 795 1196 798 1236 q 782 1131 793 1160 q 751 1081 770 1103 q 708 1044 732 1059 q 654 1019 683 1028 l 821 87 l 928 65 l 924 0 l 524 0 l 528 65 l 627 85 l 597 289 l 237 289 l 144 85 l 258 65 l 254 0 l -96 0 l -90 65 l 5 85 l 456 1017 m 563 1080 q 606 1084 585 1080 q 644 1100 627 1088 q 670 1132 660 1112 q 682 1184 680 1152 q 677 1226 684 1207 q 657 1258 670 1244 q 625 1278 644 1271 q 586 1285 607 1285 q 543 1280 564 1285 q 505 1263 522 1276 q 477 1231 488 1251 q 465 1181 467 1211 q 471 1141 463 1160 q 492 1109 478 1122 q 524 1087 505 1095 q 563 1080 543 1080 m 583 381 l 521 798 l 514 902 l 278 381 l 583 381 z "},"Á":{"ha":922,"x_min":-96,"x_max":928,"o":"m 466 1038 l 651 1038 l 821 87 l 928 65 l 924 0 l 524 0 l 528 65 l 627 85 l 597 289 l 237 289 l 144 85 l 258 65 l 254 0 l -96 0 l -90 65 l 5 85 l 466 1038 m 583 381 l 521 798 l 514 902 l 278 381 l 583 381 m 505 1129 l 692 1361 l 797 1252 q 754 1198 783 1225 q 690 1148 725 1171 q 621 1106 656 1124 q 562 1080 586 1088 l 505 1129 z "},"À":{"ha":922,"x_min":-96,"x_max":928,"o":"m 466 1038 l 651 1038 l 821 87 l 928 65 l 924 0 l 524 0 l 528 65 l 627 85 l 597 289 l 237 289 l 144 85 l 258 65 l 254 0 l -96 0 l -90 65 l 5 85 l 466 1038 m 583 381 l 521 798 l 514 902 l 278 381 l 583 381 m 566 1080 q 507 1106 541 1088 q 438 1148 472 1124 q 374 1198 404 1171 q 332 1252 345 1225 l 441 1361 l 624 1129 l 566 1080 l 566 1080 z "},"Ä":{"ha":922,"x_min":-96,"x_max":928,"o":"m 466 1038 l 651 1038 l 821 87 l 928 65 l 924 0 l 524 0 l 528 65 l 627 85 l 597 289 l 237 289 l 144 85 l 258 65 l 254 0 l -96 0 l -90 65 l 5 85 l 466 1038 m 583 381 l 521 798 l 514 902 l 278 381 l 583 381 m 701 1139 q 667 1145 683 1139 q 641 1164 652 1152 q 623 1193 629 1177 q 616 1229 616 1210 q 625 1273 616 1253 q 649 1307 634 1293 q 683 1329 663 1321 q 723 1337 702 1337 q 762 1331 745 1337 q 790 1312 779 1324 q 807 1284 802 1300 q 812 1250 813 1268 q 804 1206 812 1226 q 781 1171 795 1185 q 747 1147 767 1156 q 701 1139 726 1139 m 406 1139 q 372 1146 388 1139 q 345 1165 357 1153 q 328 1194 334 1177 q 322 1229 321 1210 q 331 1273 323 1253 q 354 1307 340 1293 q 387 1329 368 1321 q 427 1337 406 1337 q 466 1331 449 1337 q 494 1312 483 1324 q 512 1284 506 1300 q 517 1250 517 1268 q 508 1206 516 1226 q 486 1171 500 1185 q 451 1147 471 1156 q 406 1139 431 1139 z "},"Ã":{"ha":922,"x_min":-96,"x_max":928,"o":"m 466 1038 l 651 1038 l 821 87 l 928 65 l 924 0 l 524 0 l 528 65 l 627 85 l 597 289 l 237 289 l 144 85 l 258 65 l 254 0 l -96 0 l -90 65 l 5 85 l 466 1038 m 583 381 l 521 798 l 514 902 l 278 381 l 583 381 m 337 1221 q 366 1264 348 1243 q 407 1300 385 1284 q 456 1326 430 1316 q 508 1336 482 1336 q 551 1329 532 1336 q 584 1311 570 1322 q 611 1287 599 1299 q 636 1263 624 1274 q 661 1245 648 1252 q 690 1238 673 1238 q 724 1244 709 1238 q 751 1261 739 1251 q 773 1284 763 1272 q 793 1309 784 1297 l 843 1234 q 817 1187 834 1210 q 777 1148 800 1165 q 727 1121 754 1131 q 673 1111 701 1111 q 624 1118 644 1111 q 589 1136 604 1125 q 562 1159 574 1147 q 538 1183 551 1172 q 512 1201 526 1194 q 479 1209 498 1208 q 452 1204 465 1209 q 425 1191 438 1199 q 400 1172 412 1182 q 379 1151 389 1161 l 337 1221 z "},"Â":{"ha":922,"x_min":-96,"x_max":928,"o":"m 466 1038 l 651 1038 l 821 87 l 928 65 l 924 0 l 524 0 l 528 65 l 627 85 l 597 289 l 237 289 l 144 85 l 258 65 l 254 0 l -96 0 l -90 65 l 5 85 l 466 1038 m 583 381 l 521 798 l 514 902 l 278 381 l 583 381 m 323 1129 l 551 1361 l 671 1361 l 814 1129 l 749 1089 l 600 1237 l 380 1090 l 323 1129 z "},"-":{"ha":865,"x_min":163,"x_max":749,"o":"m 175 584 l 749 584 l 737 463 l 163 463 l 175 584 z "},"":{"ha":0,"x_min":0,"x_max":0,"o":""},"":{"ha":0,"x_min":0,"x_max":0,"o":""},"ȷ":{"ha":441,"x_min":-156,"x_max":368,"o":"m 172 665 l 62 699 l 76 754 l 334 789 l 368 772 l 277 0 q 237 -154 267 -87 q 164 -265 208 -220 q 65 -332 120 -309 q -50 -355 10 -355 q -115 -349 -87 -355 q -156 -330 -143 -342 l -131 -261 q -119 -264 -126 -263 q -105 -267 -112 -266 q -91 -269 -98 -268 q -82 -269 -85 -269 q -1 -243 -33 -269 q 53 -173 32 -217 q 85 -73 73 -130 q 103 44 96 -16 l 172 665 z "},"¤":{"ha":1044,"x_min":146,"x_max":919,"o":"m 283 300 q 245 379 259 336 q 232 468 232 421 q 245 556 232 514 q 282 633 258 597 l 146 770 l 232 857 l 370 718 q 445 752 404 740 q 530 765 486 765 q 620 751 577 765 q 698 713 662 738 l 833 848 l 919 761 l 783 625 q 817 551 805 591 q 829 468 829 511 q 816 381 829 422 q 780 305 803 340 l 918 168 l 831 82 l 694 219 q 617 183 659 196 q 530 171 576 171 q 446 182 486 171 q 372 216 406 194 l 235 79 l 148 165 l 283 300 m 361 468 q 375 400 361 432 q 411 343 388 368 q 464 306 433 319 q 530 292 495 292 q 596 306 566 292 q 650 343 627 319 q 686 400 673 368 q 699 468 699 432 q 686 537 699 505 q 650 593 673 569 q 596 631 627 617 q 530 645 566 645 q 464 631 495 645 q 411 593 433 617 q 375 537 388 569 q 361 468 361 505 z "},"¦":{"ha":579,"x_min":237,"x_max":368,"o":"m 237 1207 l 368 1207 l 368 611 l 237 611 l 237 1207 m 237 470 l 368 470 l 368 -126 l 237 -126 l 237 470 z "},"Ð":{"ha":995,"x_min":-9,"x_max":966,"o":"m -1 66 l 102 87 l 153 483 l 57 483 l 71 585 l 167 585 l 214 951 l 121 968 l 128 1039 l 336 1039 q 440 1045 387 1040 q 547 1050 493 1050 q 740 1018 661 1050 q 868 930 819 987 q 941 796 918 873 q 964 627 964 718 q 930 372 966 489 q 822 170 894 255 q 643 37 750 84 q 396 -9 536 -11 q 365 -8 384 -9 q 332 -5 345 -6 q 302 -3 320 -4 q 264 -1 284 -1 q 225 1 245 0 q 191 1 206 1 l -9 1 l -1 66 m 290 92 q 319 85 302 88 q 354 79 336 81 q 390 75 372 76 q 420 73 407 73 q 535 99 484 75 q 625 163 586 123 q 691 254 663 202 q 735 365 718 306 q 761 486 753 424 q 768 609 768 549 q 752 774 767 706 q 707 885 737 842 q 629 948 676 928 q 516 968 582 968 q 481 966 499 968 q 448 963 464 965 q 420 958 433 960 q 399 952 407 955 l 352 585 l 586 585 l 572 483 l 339 483 l 290 92 z "},"×":{"ha":929,"x_min":147,"x_max":821,"o":"m 147 298 l 407 519 l 203 741 l 302 834 l 493 597 q 523 625 503 606 q 567 667 543 644 q 618 715 591 690 q 669 764 645 741 q 713 806 694 787 q 743 834 733 825 l 821 740 l 562 519 l 766 297 l 666 203 l 475 441 q 446 413 465 431 q 402 371 426 394 q 351 322 378 348 q 299 274 323 297 q 256 232 275 250 q 226 204 236 214 l 147 298 z "},"Þ":{"ha":856,"x_min":3,"x_max":840,"o":"m 9 65 l 106 85 l 216 949 l 121 966 l 130 1038 l 523 1038 l 515 966 l 402 949 l 385 814 q 453 819 418 817 q 523 821 488 821 q 671 803 611 821 q 768 752 731 785 q 822 676 806 720 q 840 580 839 632 q 817 449 840 511 q 740 339 793 387 q 606 263 688 292 q 409 235 524 235 q 349 235 370 235 q 312 237 327 236 l 293 85 l 411 66 l 406 0 l 3 0 l 9 65 m 323 322 q 368 320 347 320 q 414 319 390 319 q 518 335 472 319 q 597 381 565 351 q 645 456 629 412 q 661 556 662 500 q 649 636 659 602 q 618 693 640 670 q 562 727 597 715 q 478 739 528 739 q 426 736 454 739 q 374 728 398 733 l 323 322 z "},"ð":{"ha":791,"x_min":44,"x_max":749,"o":"m 44 300 q 75 490 44 406 q 157 632 105 574 q 277 722 209 691 q 422 753 346 753 q 506 742 469 753 q 565 704 542 732 q 552 769 559 737 q 531 830 544 800 q 500 889 519 860 q 456 948 482 919 l 361 840 l 286 903 l 387 1013 q 311 1067 350 1043 q 237 1102 271 1092 l 270 1196 q 314 1181 290 1191 q 364 1159 338 1172 q 417 1132 390 1147 q 468 1099 444 1116 q 502 1139 484 1118 q 535 1179 520 1160 q 569 1221 553 1200 l 642 1156 l 542 1042 q 636 934 597 991 q 701 814 675 877 q 737 686 726 752 q 749 551 749 619 q 721 329 749 431 q 640 150 693 226 q 508 30 587 73 q 330 -14 430 -14 q 203 15 257 -14 q 114 88 149 43 q 61 189 79 133 q 44 300 44 245 m 349 66 q 421 91 388 66 q 479 156 454 115 q 523 254 505 198 q 549 374 541 310 q 553 398 551 382 q 557 431 555 414 q 560 466 559 449 q 562 494 562 483 q 561 523 563 505 q 552 559 558 540 q 536 598 547 579 q 511 633 526 618 q 474 659 495 649 q 424 669 452 669 q 362 651 390 669 q 313 604 334 634 q 275 535 291 574 q 250 452 260 496 q 235 363 239 408 q 230 275 230 317 q 237 195 230 233 q 259 129 244 157 q 296 83 273 100 q 349 66 318 66 z "},"þ":{"ha":799,"x_min":7,"x_max":749,"o":"m 186 1006 l 119 1035 l 136 1093 l 336 1119 l 372 1101 l 319 701 q 357 733 336 718 q 402 762 378 749 q 456 781 427 774 q 517 789 484 789 q 619 768 576 789 q 691 709 663 747 q 734 616 720 671 q 749 495 749 562 q 735 372 749 433 q 695 254 722 311 q 630 149 669 197 q 542 64 591 100 q 432 7 492 28 q 301 -14 371 -14 q 263 -11 283 -14 q 224 -5 243 -9 l 214 -96 l 178 -353 l 7 -353 l 55 -14 l 186 1006 m 238 90 q 276 78 256 81 q 321 75 296 75 q 398 93 363 75 q 460 141 433 111 q 507 213 487 172 q 539 300 526 254 q 557 395 551 346 q 564 490 564 444 q 557 568 564 532 q 537 628 550 603 q 504 667 524 653 q 458 681 484 681 q 412 673 434 681 q 370 651 390 665 q 334 621 351 638 q 304 587 317 604 l 238 90 z "},"­":{"ha":1157,"x_min":0,"x_max":0,"o":""},"Ł":{"ha":827,"x_min":1,"x_max":779,"o":"m 7 67 l 104 87 l 140 370 l 37 328 l 12 408 l 153 467 l 215 951 l 120 968 l 129 1039 l 534 1039 l 527 968 l 401 951 l 349 549 l 589 649 l 613 563 l 337 450 l 290 85 l 568 95 l 678 359 l 779 343 l 718 1 l 1 1 l 7 67 z "},"Ę":{"ha":864,"x_min":-9,"x_max":821,"o":"m -1 65 l 104 85 l 214 949 l 119 966 l 127 1038 l 821 1038 l 806 807 l 694 807 l 667 947 l 402 960 l 353 589 l 652 599 l 640 472 l 342 486 l 288 85 l 634 106 l 714 277 l 821 261 l 768 0 l 701 0 q 653 -37 675 -19 q 615 -73 631 -56 q 590 -108 600 -91 q 581 -141 581 -125 q 583 -167 580 -157 q 592 -183 587 -177 q 606 -192 598 -189 q 621 -195 613 -195 q 667 -183 645 -195 q 718 -149 689 -172 l 739 -220 q 700 -251 722 -236 q 654 -278 679 -267 q 600 -297 629 -290 q 537 -304 570 -304 q 485 -295 507 -304 q 448 -273 463 -287 q 426 -239 433 -258 q 420 -199 419 -220 q 428 -156 420 -180 q 449 -115 435 -132 q 484 -73 466 -91 q 518 -42 501 -56 q 553 -19 536 -29 q 588 0 571 -9 l -9 0 l -1 65 z "},"½":{"ha":1736,"x_min":185,"x_max":1592,"o":"m 956 13 q 1024 54 983 28 q 1111 112 1065 79 q 1203 183 1157 144 q 1286 262 1249 221 q 1346 345 1323 302 q 1369 427 1369 387 q 1361 467 1369 449 q 1337 498 1352 486 q 1299 518 1321 511 q 1251 526 1278 526 q 1143 500 1196 526 q 1047 429 1090 475 l 996 499 q 1042 544 1011 519 q 1112 589 1072 568 q 1198 625 1152 610 q 1292 640 1244 639 q 1406 624 1360 640 q 1479 583 1451 608 q 1518 525 1507 557 q 1530 463 1530 494 q 1503 348 1530 402 q 1429 242 1477 293 q 1316 142 1381 191 q 1171 43 1250 93 l 1461 67 l 1522 159 l 1592 139 l 1531 -52 l 987 -52 l 956 13 m 1002 1038 l 1130 1038 l 668 0 l 540 0 l 1002 1038 m 193 498 l 339 515 l 396 939 l 233 907 l 227 981 q 273 997 247 987 q 327 1020 299 1007 q 384 1047 355 1033 q 436 1074 412 1061 q 478 1098 460 1086 q 505 1116 496 1109 l 569 1101 l 488 515 l 637 497 l 630 431 l 185 431 l 193 498 z "},"²":{"ha":789,"x_min":119,"x_max":755,"o":"m 119 497 q 187 538 146 512 q 274 596 228 564 q 366 667 319 629 q 449 746 412 705 q 509 829 486 787 q 532 911 532 871 q 523 951 532 933 q 499 983 515 970 q 462 1003 484 996 q 414 1010 440 1010 q 306 985 359 1010 q 210 913 253 960 l 159 983 q 204 1028 174 1004 q 274 1074 235 1053 q 360 1109 314 1095 q 454 1124 407 1123 q 568 1108 522 1124 q 642 1067 614 1093 q 681 1009 669 1041 q 692 947 692 978 q 666 832 692 886 q 592 726 640 777 q 478 626 544 675 q 334 528 412 577 l 624 551 l 685 643 l 755 623 l 694 432 l 149 432 l 119 497 z "},"¹":{"ha":692,"x_min":164,"x_max":616,"o":"m 172 498 l 318 515 l 375 939 l 212 907 l 205 981 q 252 997 226 987 q 306 1020 278 1007 q 362 1047 334 1033 q 415 1074 391 1061 q 457 1098 439 1086 q 484 1116 475 1109 l 548 1101 l 467 515 l 616 497 l 609 431 l 164 431 l 172 498 z "},"¼":{"ha":1736,"x_min":185,"x_max":1615,"o":"m 1295 110 l 942 110 l 917 174 l 1317 755 l 1400 756 l 1474 686 l 1146 273 l 1076 197 l 1309 210 l 1333 381 l 1485 397 l 1461 219 l 1615 229 l 1601 110 l 1446 110 l 1415 -119 l 1263 -119 l 1295 110 m 1002 1038 l 1130 1038 l 668 0 l 540 0 l 1002 1038 m 193 498 l 339 515 l 396 939 l 233 907 l 227 981 q 273 997 247 987 q 327 1020 299 1007 q 384 1047 355 1033 q 436 1074 412 1061 q 478 1098 460 1086 q 505 1116 496 1109 l 569 1101 l 488 515 l 637 497 l 630 431 l 185 431 l 193 498 z "},"⁴":{"ha":833,"x_min":76,"x_max":774,"o":"m 454 528 l 101 528 l 76 592 l 476 1173 l 559 1174 l 633 1103 l 305 691 l 235 614 l 468 628 l 492 799 l 644 814 l 620 637 l 774 646 l 760 528 l 605 528 l 574 299 l 422 299 l 454 528 z "},"¾":{"ha":1742,"x_min":144,"x_max":1615,"o":"m 1295 110 l 942 110 l 917 174 l 1317 755 l 1400 756 l 1474 686 l 1146 273 l 1076 197 l 1309 210 l 1333 381 l 1485 397 l 1461 219 l 1615 229 l 1601 110 l 1446 110 l 1415 -119 l 1263 -119 l 1295 110 m 155 507 q 195 492 173 498 q 241 481 218 485 q 286 475 264 477 q 323 473 307 473 q 392 480 357 473 q 457 504 428 487 q 506 550 487 522 q 526 621 526 578 q 518 661 527 644 q 494 689 510 678 q 456 706 479 701 q 408 712 434 711 l 279 682 l 296 783 q 374 803 334 789 q 448 837 414 816 q 505 887 482 857 q 531 957 528 917 q 507 1006 533 987 q 425 1025 481 1025 q 332 1007 380 1024 q 243 961 283 990 l 215 1040 q 274 1076 242 1061 q 340 1102 306 1092 q 409 1119 374 1113 q 479 1124 444 1124 q 576 1113 534 1124 q 645 1082 618 1102 q 686 1033 673 1061 q 699 970 700 1004 q 684 902 699 932 q 644 848 669 871 q 584 807 618 825 q 507 775 549 789 q 599 760 563 775 q 655 721 635 744 q 683 670 675 697 q 690 618 691 642 q 657 510 689 556 q 573 433 625 463 q 459 387 522 402 q 334 372 396 372 q 291 375 315 372 q 240 384 267 378 q 189 399 214 390 q 144 420 163 408 l 155 507 m 1021 1038 l 1149 1038 l 687 0 l 559 0 l 1021 1038 z "},"³":{"ha":726,"x_min":115,"x_max":671,"o":"m 127 507 q 167 492 144 498 q 212 481 189 485 q 257 475 235 477 q 295 473 279 473 q 364 480 328 473 q 429 504 399 487 q 478 550 458 522 q 498 621 497 578 q 490 661 498 644 q 466 689 481 678 q 428 706 450 701 q 379 712 406 711 l 251 682 l 268 783 q 346 803 305 789 q 420 837 386 816 q 477 887 454 857 q 503 957 500 917 q 478 1006 505 987 q 397 1025 452 1025 q 303 1007 352 1024 q 214 961 255 990 l 186 1040 q 245 1076 214 1061 q 311 1102 277 1092 q 380 1119 345 1113 q 450 1124 416 1124 q 548 1113 506 1124 q 617 1082 589 1102 q 658 1033 644 1061 q 671 970 671 1004 q 655 902 670 932 q 615 848 641 871 q 555 807 590 825 q 479 775 520 789 q 570 760 534 775 q 627 721 606 744 q 655 670 647 697 q 662 618 663 642 q 628 510 661 556 q 545 433 596 463 q 431 387 494 402 q 305 372 368 372 q 262 375 287 372 q 212 384 238 378 q 160 399 186 390 q 115 420 135 408 l 127 507 z "},"":{"ha":249,"x_min":14,"x_max":218,"o":"m 119 -30 q 160 -48 142 -35 q 192 -82 179 -62 q 212 -127 205 -102 q 217 -178 218 -151 q 199 -254 215 -218 q 160 -315 183 -289 q 111 -358 138 -342 q 62 -380 85 -375 l 14 -342 l 16 -325 q 50 -289 35 -311 q 66 -230 64 -267 q 63 -205 66 -218 q 54 -182 60 -193 q 38 -164 47 -172 q 19 -156 29 -157 l 24 -106 l 119 -30 z "},"ą":{"ha":810,"x_min":49,"x_max":758,"o":"m 49 276 q 62 396 49 335 q 101 514 75 457 q 165 621 127 571 q 254 708 203 671 q 366 767 304 745 q 501 789 428 789 q 539 786 519 789 q 578 781 559 784 q 616 772 597 777 q 649 762 634 767 l 741 789 l 652 140 q 657 101 649 113 q 676 89 665 89 q 700 95 686 89 q 737 120 713 101 l 758 77 q 732 48 751 68 q 682 12 713 29 q 629 -28 654 -8 q 586 -67 604 -48 q 557 -105 568 -87 q 546 -141 546 -124 q 549 -167 545 -157 q 558 -183 552 -177 q 571 -192 564 -189 q 587 -195 578 -195 q 632 -183 610 -195 q 682 -149 654 -172 l 703 -220 q 665 -251 686 -236 q 619 -278 644 -267 q 565 -297 594 -290 q 502 -304 535 -304 q 450 -295 472 -304 q 413 -273 427 -287 q 391 -239 398 -258 q 385 -199 385 -220 q 393 -156 385 -180 q 414 -115 401 -132 q 477 -47 445 -71 q 541 -7 509 -24 q 499 23 514 2 q 486 78 485 43 l 485 80 q 447 45 469 62 q 400 15 426 28 q 344 -6 374 2 q 280 -14 314 -14 q 176 9 220 -14 q 104 70 132 31 q 62 162 76 109 q 49 276 49 215 m 340 94 q 381 100 361 94 q 419 117 401 106 q 453 141 437 127 q 481 170 469 155 l 551 689 q 482 700 521 700 q 402 681 437 700 q 339 631 366 663 q 292 559 311 600 q 259 472 272 517 q 241 379 247 426 q 235 288 235 332 q 263 145 235 196 q 340 94 292 94 z "},"ć":{"ha":626,"x_min":49,"x_max":704,"o":"m 376 890 l 591 1182 l 704 1062 q 681 1032 698 1050 q 640 991 663 1013 q 587 946 616 969 q 530 902 559 923 q 475 865 502 882 q 429 842 449 849 l 376 890 m 50 298 q 60 411 49 353 q 95 523 72 469 q 153 626 118 577 q 234 710 188 674 q 339 768 281 747 q 468 789 397 789 q 509 787 488 789 q 552 781 531 785 q 594 772 574 778 q 629 760 614 766 l 581 588 q 547 613 566 597 q 508 646 528 630 q 467 674 488 662 q 428 686 446 686 q 358 659 393 686 q 295 583 323 632 q 251 465 268 534 q 236 312 235 396 q 245 214 237 255 q 271 148 254 174 q 311 110 287 122 q 365 98 334 98 q 417 103 393 98 q 462 120 441 109 q 503 145 484 130 q 544 180 523 161 l 578 117 q 541 76 565 99 q 481 34 516 54 q 401 0 446 14 q 302 -14 357 -14 q 197 7 243 -14 q 118 67 151 27 q 68 165 85 106 q 50 298 50 223 z "},"ę":{"ha":712,"x_min":50,"x_max":679,"o":"m 271 -118 q 323 -56 296 -82 q 378 -11 350 -31 q 356 -13 367 -12 q 334 -14 346 -14 q 203 12 258 -14 q 115 81 149 38 q 65 178 81 123 q 50 292 50 233 q 66 423 51 359 q 107 542 81 486 q 172 642 134 597 q 257 720 210 688 q 357 771 303 753 q 470 789 411 789 q 563 776 524 789 q 627 740 602 763 q 665 686 652 717 q 678 619 677 655 q 657 521 679 565 q 600 444 636 477 q 518 385 564 410 q 423 344 472 360 q 327 320 374 328 q 243 311 280 311 q 248 229 241 268 q 271 160 255 190 q 314 112 288 130 q 379 94 341 94 q 499 123 445 94 q 595 197 553 152 l 633 134 q 587 82 617 109 l 588 83 q 584 80 586 81 q 581 77 583 79 l 566 65 l 563 63 q 482 17 528 37 q 378 -11 435 -4 q 422 18 401 5 q 464 42 444 31 l 503 68 l 587 82 l 581 77 l 566 65 l 563 63 q 507 13 534 40 q 457 -41 479 -14 q 421 -93 435 -68 q 407 -138 407 -119 q 410 -164 406 -153 q 419 -182 413 -175 q 432 -192 425 -189 q 448 -195 439 -195 q 493 -183 471 -195 q 543 -149 515 -172 l 564 -220 q 526 -251 547 -236 q 480 -278 505 -267 q 426 -297 455 -290 q 363 -304 396 -304 q 311 -295 333 -304 q 274 -273 288 -287 q 252 -239 259 -258 q 245 -199 245 -220 q 253 -158 246 -180 q 271 -118 260 -135 m 244 389 q 296 397 268 390 q 353 416 324 404 q 408 447 382 429 q 455 489 435 465 q 488 542 476 513 q 500 604 500 570 q 480 679 498 654 q 429 703 462 703 q 374 688 399 703 q 330 648 349 673 q 295 591 310 623 q 270 523 281 558 q 253 453 260 488 q 244 389 247 418 z "},"ĳ":{"ha":884,"x_min":67,"x_max":857,"o":"m 614 665 l 505 699 l 519 754 l 777 789 l 811 772 l 720 0 q 680 -154 710 -87 q 607 -265 650 -220 q 508 -332 563 -309 q 393 -355 453 -355 q 328 -349 356 -355 q 287 -330 300 -342 l 312 -261 q 324 -264 317 -263 q 338 -267 331 -266 q 352 -269 345 -268 q 361 -269 358 -269 q 442 -243 410 -269 q 495 -173 475 -217 q 528 -73 516 -130 q 546 44 539 -16 l 614 665 m 92 82 q 105 182 97 123 q 124 316 113 241 q 147 479 134 391 q 173 665 159 567 l 67 699 l 79 754 l 333 789 l 368 772 l 277 140 q 297 89 270 89 q 323 97 309 89 q 364 127 338 105 l 385 85 q 364 61 379 77 q 325 28 349 45 q 270 -1 302 12 q 201 -14 239 -14 q 116 11 144 -14 q 92 82 87 35 m 295 924 q 258 932 275 924 q 228 954 241 941 q 208 985 215 968 q 201 1022 200 1003 q 211 1066 201 1046 q 236 1103 220 1087 q 272 1127 252 1118 q 317 1137 293 1137 q 359 1129 340 1137 q 391 1108 378 1121 q 410 1078 404 1095 q 416 1043 416 1061 q 407 998 415 1019 q 382 960 398 976 q 345 934 367 943 q 295 924 323 924 m 735 924 q 698 932 715 924 q 668 954 681 941 q 648 985 655 968 q 641 1022 640 1003 q 651 1066 642 1046 q 676 1103 661 1087 q 712 1127 692 1118 q 757 1137 733 1137 q 799 1129 780 1137 q 831 1108 818 1121 q 850 1078 844 1095 q 856 1043 857 1061 q 847 998 855 1019 q 823 960 838 976 q 785 934 807 943 q 735 924 763 924 z "},"ł":{"ha":420,"x_min":38,"x_max":440,"o":"m 77 78 q 78 104 77 89 q 81 130 80 120 l 133 507 l 38 469 l 38 562 l 146 606 l 201 1005 l 115 1034 l 129 1090 l 355 1119 l 389 1101 l 332 682 l 440 726 l 440 627 l 318 578 l 258 140 q 259 103 255 117 q 277 89 264 89 q 302 96 288 89 q 345 127 317 103 l 365 85 q 345 61 360 77 q 308 28 330 45 q 255 -1 285 12 q 189 -14 224 -14 q 144 -8 165 -14 q 109 7 124 -3 q 85 36 94 18 q 77 78 77 54 z "},"ő":{"ha":793,"x_min":48,"x_max":818,"o":"m 539 879 l 713 1171 l 818 1093 q 800 1052 813 1075 q 768 1002 787 1028 q 727 951 749 977 q 682 904 705 926 q 636 866 659 882 q 596 842 614 849 l 539 879 m 231 879 l 400 1171 l 507 1092 q 489 1049 502 1073 q 457 1001 476 1025 q 417 951 439 976 q 372 906 395 927 q 328 868 349 884 q 288 842 306 851 l 231 879 m 50 298 q 76 483 48 394 q 158 639 104 571 q 286 748 211 707 q 454 789 361 789 q 575 768 523 789 q 664 707 628 747 q 719 609 700 667 q 740 477 738 551 q 729 352 741 413 q 693 236 718 290 q 633 135 669 181 q 551 57 597 90 q 451 5 506 24 q 335 -14 397 -14 q 214 7 267 -14 q 126 68 162 28 q 71 166 90 108 q 50 298 52 224 m 362 71 q 424 89 397 71 q 473 138 452 107 q 508 209 494 168 q 532 295 523 250 q 545 387 541 340 q 547 478 548 434 q 517 646 545 591 q 431 701 488 701 q 368 683 396 701 q 319 634 340 665 q 282 564 298 604 q 258 478 267 524 q 244 387 248 433 q 241 297 240 340 q 272 127 244 183 q 362 71 300 71 z "},"ś":{"ha":596,"x_min":17,"x_max":627,"o":"m 299 890 l 514 1182 l 627 1062 q 604 1032 621 1050 q 563 991 587 1013 q 511 946 539 969 q 454 902 482 923 q 399 865 425 882 q 352 842 372 849 l 299 890 m 45 149 q 75 129 56 140 q 117 108 94 118 q 169 92 140 98 q 227 85 197 85 q 268 88 247 85 q 307 101 290 92 q 336 129 325 111 q 348 175 348 146 q 338 220 348 199 q 313 259 329 240 q 274 295 296 277 q 227 330 252 312 q 183 367 207 345 q 138 418 159 389 q 104 484 117 448 q 90 565 90 521 q 113 661 90 619 q 176 731 136 703 q 268 774 215 760 q 379 789 320 789 q 434 786 406 789 q 486 780 462 784 q 528 772 509 777 q 554 764 546 768 l 527 637 q 510 653 522 643 q 478 673 497 663 q 435 689 460 682 q 380 696 410 696 q 339 692 359 696 q 302 677 319 688 q 276 651 286 667 q 263 611 265 635 q 269 566 262 587 q 292 526 277 545 q 329 487 307 506 q 378 448 351 467 q 430 404 404 427 q 477 352 456 380 q 510 288 497 323 q 522 210 522 253 q 497 110 522 152 q 431 40 473 68 q 336 0 390 13 q 226 -14 283 -14 q 161 -9 194 -14 q 99 1 128 -5 q 48 15 70 7 q 17 30 26 22 l 45 149 z "},"ű":{"ha":842,"x_min":78,"x_max":829,"o":"m 93 166 q 95 218 93 189 q 101 278 98 247 q 110 342 105 309 q 119 405 115 374 l 155 652 l 78 700 l 90 760 l 309 789 l 342 772 l 296 399 q 280 286 288 338 q 273 193 273 233 q 278 143 273 163 q 294 112 283 123 q 319 95 304 100 q 353 90 334 90 q 396 97 375 90 q 437 114 418 103 q 475 138 457 124 q 507 168 492 152 l 589 783 l 765 783 l 680 141 q 701 90 673 90 q 712 91 706 90 q 725 97 718 93 q 743 109 733 102 q 768 128 753 117 l 787 85 q 767 61 783 77 q 729 28 752 45 q 675 0 705 12 q 609 -13 644 -13 q 526 16 550 -13 q 509 92 502 45 q 469 53 492 72 q 418 20 446 35 q 355 -4 389 5 q 278 -14 320 -14 q 210 -5 243 -14 q 151 25 177 4 q 109 81 125 46 q 93 166 93 115 m 550 879 l 724 1171 l 829 1093 q 811 1052 824 1075 q 779 1002 798 1028 q 738 951 760 977 q 692 904 715 926 q 647 866 669 882 q 607 842 625 849 l 550 879 m 242 879 l 411 1171 l 518 1092 q 500 1049 513 1073 q 468 1001 487 1025 q 428 951 450 976 q 383 906 406 927 q 338 868 360 884 q 298 842 317 851 l 242 879 z "},"ý":{"ha":731,"x_min":-83,"x_max":717,"o":"m -50 -196 q -30 -208 -44 -200 q 4 -222 -16 -215 q 48 -235 24 -230 q 100 -241 73 -241 q 154 -231 126 -241 q 209 -198 181 -221 q 263 -136 236 -174 q 318 -42 291 -98 l 231 -42 l 102 641 q 91 670 97 662 q 75 679 85 679 q 54 675 66 679 q 21 653 41 671 l 1 701 q 21 722 6 707 q 57 751 35 736 q 107 778 79 766 q 166 789 136 789 q 215 782 195 789 q 248 764 235 776 q 268 734 260 751 q 279 696 275 717 q 289 633 283 673 q 302 543 295 593 q 317 438 309 493 q 332 334 325 384 q 344 244 338 284 q 353 181 350 203 l 366 35 l 441 184 q 483 280 464 235 q 515 370 501 326 q 538 459 529 414 q 551 555 547 505 q 548 600 551 581 q 541 635 545 618 q 532 667 536 651 q 528 705 528 684 q 551 766 528 744 q 615 789 574 789 q 663 779 644 789 q 694 751 682 769 q 712 708 707 733 q 717 651 717 682 q 702 542 717 599 q 664 427 687 484 q 614 314 642 370 q 562 210 587 258 q 477 43 513 112 q 413 -73 441 -25 q 365 -154 386 -121 q 323 -212 343 -186 q 283 -261 307 -237 q 228 -304 259 -285 q 156 -335 196 -323 q 66 -347 116 -347 q 23 -345 46 -347 q -20 -338 1 -342 q -57 -330 -40 -334 q -83 -323 -74 -326 l -50 -196 l -50 -196 m 337 890 l 552 1182 l 665 1062 q 642 1032 659 1050 q 601 991 625 1013 q 549 946 577 969 q 492 902 520 923 q 437 865 463 882 q 390 842 410 849 l 337 890 z "},"ź":{"ha":694,"x_min":-11,"x_max":710,"o":"m 348 890 l 563 1182 l 676 1062 q 653 1032 670 1050 q 612 991 635 1013 q 559 946 588 969 q 503 902 531 923 q 448 865 474 882 q 401 842 421 849 l 348 890 m 426 562 l 506 631 l 271 632 q 224 624 245 632 q 188 602 203 616 q 162 568 172 587 q 150 526 153 549 l 98 526 q 97 565 97 542 q 98 613 97 587 q 103 664 100 638 q 113 713 106 690 q 127 751 119 735 q 149 774 136 768 q 174 784 157 779 q 217 789 191 789 q 275 787 243 789 q 343 783 308 785 q 414 777 378 780 q 483 771 450 774 q 546 767 517 768 q 595 765 574 765 q 636 770 615 765 q 671 787 656 776 l 673 789 l 710 748 l 270 202 l 199 139 l 453 139 q 500 148 479 139 q 538 171 522 156 q 565 206 555 186 q 578 249 575 226 l 628 249 q 629 211 629 233 q 628 163 629 189 q 623 112 626 138 q 613 63 619 86 q 598 23 607 41 q 577 -2 589 6 q 551 -12 568 -8 q 508 -16 534 -16 q 448 -14 482 -16 q 376 -10 414 -12 q 298 -4 338 -7 q 223 1 259 -1 q 156 5 186 3 q 104 7 125 7 q 89 6 98 7 q 70 3 79 5 q 52 -3 61 1 q 36 -12 43 -7 l 33 -16 l -11 26 l 426 562 z "},"ż":{"ha":694,"x_min":-11,"x_max":710,"o":"m 426 562 l 506 631 l 271 632 q 224 624 245 632 q 188 602 203 616 q 162 568 172 587 q 150 526 153 549 l 98 526 q 97 565 97 542 q 98 613 97 587 q 103 664 100 638 q 113 713 106 690 q 127 751 119 735 q 149 774 136 768 q 174 784 157 779 q 217 789 191 789 q 275 787 243 789 q 343 783 308 785 q 414 777 378 780 q 483 771 450 774 q 546 767 517 768 q 595 765 574 765 q 636 770 615 765 q 671 787 656 776 l 673 789 l 710 748 l 270 202 l 199 139 l 453 139 q 500 148 479 139 q 538 171 522 156 q 565 206 555 186 q 578 249 575 226 l 628 249 q 629 211 629 233 q 628 163 629 189 q 623 112 626 138 q 613 63 619 86 q 598 23 607 41 q 577 -2 589 6 q 551 -12 568 -8 q 508 -16 534 -16 q 448 -14 482 -16 q 376 -10 414 -12 q 298 -4 338 -7 q 223 1 259 -1 q 156 5 186 3 q 104 7 125 7 q 89 6 98 7 q 70 3 79 5 q 52 -3 61 1 q 36 -12 43 -7 l 33 -16 l -11 26 l 426 562 m 429 924 q 392 932 409 924 q 361 954 374 941 q 341 985 349 968 q 334 1022 334 1003 q 345 1066 335 1046 q 370 1103 354 1087 q 406 1127 385 1118 q 450 1137 427 1137 q 492 1129 473 1137 q 524 1108 511 1121 q 544 1078 537 1095 q 549 1043 550 1061 q 540 998 549 1019 q 516 960 532 976 q 478 934 500 943 q 429 924 456 924 z "},"Ą":{"ha":910,"x_min":-81,"x_max":942,"o":"m -75 65 l 19 85 l 480 1038 l 665 1038 l 835 87 l 942 65 l 938 0 l 798 0 q 751 -37 772 -19 q 713 -73 729 -56 q 688 -108 697 -91 q 678 -141 678 -125 q 681 -167 677 -157 q 690 -183 684 -177 q 703 -192 696 -189 q 719 -195 711 -195 q 765 -183 743 -195 q 815 -149 787 -172 l 836 -220 q 798 -251 819 -236 q 751 -278 777 -267 q 697 -297 726 -290 q 635 -304 668 -304 q 583 -295 605 -304 q 546 -273 560 -287 q 524 -239 531 -258 q 517 -199 517 -220 q 526 -156 518 -180 q 547 -115 533 -132 q 581 -73 564 -91 q 616 -42 599 -56 q 651 -19 633 -29 q 686 0 669 -9 l 538 0 l 543 65 l 642 85 l 611 289 l 251 289 l 159 85 l 273 65 l 268 0 l -81 0 l -75 65 m 597 381 l 535 798 l 528 902 l 292 381 l 597 381 z "},"Ć":{"ha":869,"x_min":51,"x_max":869,"o":"m 431 -11 q 308 6 362 -11 q 211 53 253 23 q 139 125 170 83 q 90 215 109 166 q 62 318 71 264 q 52 429 52 372 q 92 686 51 571 q 208 882 134 801 q 383 1006 281 962 q 603 1050 484 1050 q 692 1046 654 1050 q 758 1038 730 1043 q 807 1028 786 1034 q 845 1018 827 1022 l 869 1011 l 825 751 l 700 751 l 679 944 q 634 960 659 954 q 576 966 609 966 q 469 942 516 966 q 386 878 422 918 q 325 785 350 838 q 283 674 299 732 q 261 556 268 616 q 256 443 254 496 q 270 301 258 366 q 307 187 282 235 q 371 111 332 138 q 465 83 410 83 q 505 86 483 83 q 550 95 528 88 q 594 113 573 101 q 629 144 614 125 q 641 167 634 149 q 656 207 648 185 q 670 249 664 229 q 680 279 677 269 l 789 279 l 761 70 q 713 45 743 59 q 644 19 684 31 q 550 -2 603 6 q 431 -11 496 -11 m 538 1129 l 725 1361 l 830 1252 q 787 1198 817 1225 q 724 1148 758 1171 q 654 1106 689 1124 q 595 1080 619 1088 l 538 1129 z "},"Ľ":{"ha":827,"x_min":1,"x_max":798,"o":"m 7 66 l 104 85 l 215 949 l 120 966 l 129 1038 l 534 1038 l 527 966 l 401 949 l 290 83 l 568 94 l 678 357 l 779 342 l 718 0 l 1 0 l 7 66 m 629 706 l 625 723 q 644 813 636 760 q 656 924 652 866 q 656 964 656 943 q 653 1003 655 985 q 646 1037 650 1022 q 637 1060 642 1053 l 650 1088 l 774 1120 q 786 1097 781 1112 q 793 1063 791 1082 q 797 1022 796 1044 q 796 978 798 1000 q 785 893 793 936 q 763 813 777 851 q 731 742 749 774 q 693 686 713 709 l 629 706 z "},"Ń":{"ha":1038,"x_min":1,"x_max":1082,"o":"m 573 1129 l 760 1361 l 865 1252 q 823 1198 852 1225 q 759 1148 793 1171 q 689 1106 724 1124 q 630 1080 654 1088 l 573 1129 m 6 65 l 102 85 l 223 949 l 116 966 l 127 1038 l 431 1038 l 718 323 l 765 180 l 857 950 l 751 966 l 760 1038 l 1082 1038 l 1076 966 l 984 949 l 844 0 l 659 0 l 363 720 l 318 868 l 235 85 l 351 66 l 345 0 l 1 0 l 6 65 z "},"Ś":{"ha":764,"x_min":24,"x_max":736,"o":"m 58 250 l 167 250 l 179 113 q 243 80 206 94 q 326 67 281 67 q 402 77 368 67 q 463 106 437 87 q 503 153 488 125 q 519 218 518 181 q 509 286 520 256 q 476 343 498 316 q 421 395 454 370 q 348 446 389 420 q 264 505 305 473 q 192 574 224 536 q 142 655 161 611 q 122 754 123 700 q 149 880 121 825 q 223 973 176 935 q 335 1031 270 1011 q 474 1051 399 1051 q 568 1046 526 1051 q 642 1033 610 1041 q 697 1016 674 1025 q 736 997 721 1006 l 702 806 l 602 806 l 582 932 q 527 959 558 950 q 456 968 495 968 q 394 960 422 968 q 343 935 365 952 q 310 892 322 918 q 296 828 297 865 q 308 756 296 789 q 345 696 321 724 q 402 642 368 668 q 479 589 437 616 q 560 533 521 563 q 630 469 600 504 q 679 391 661 433 q 698 296 697 348 q 673 172 699 229 q 599 73 648 115 q 481 8 551 31 q 322 -16 411 -16 q 221 -9 270 -16 q 133 7 173 -3 q 64 27 93 16 q 24 47 35 38 l 58 250 m 436 1129 l 623 1361 l 728 1252 q 686 1198 715 1225 q 622 1148 656 1171 q 552 1106 587 1124 q 493 1080 517 1088 l 436 1129 z "},"Ý":{"ha":832,"x_min":20,"x_max":951,"o":"m 144 66 l 288 85 l 329 406 l 93 949 l 20 966 l 28 1038 l 425 1038 l 416 966 l 300 949 l 435 592 l 466 508 l 508 583 l 723 949 l 624 966 l 631 1038 l 951 1038 l 943 966 l 866 950 l 513 406 l 471 85 l 627 66 l 621 0 l 137 0 l 144 66 m 469 1129 l 656 1361 l 762 1252 q 719 1198 748 1225 q 655 1148 690 1171 q 586 1106 621 1124 q 526 1080 551 1088 l 469 1129 z "},"Ź":{"ha":827,"x_min":-22,"x_max":854,"o":"m -22 60 l 550 855 l 649 956 l 310 947 l 227 772 l 128 787 l 164 1038 l 835 1038 l 854 979 l 286 182 l 195 83 l 576 99 l 682 297 l 779 276 l 718 0 l -1 0 l -22 60 m 467 1129 l 654 1361 l 759 1252 q 716 1198 745 1225 q 652 1148 687 1171 q 583 1106 618 1124 q 524 1080 548 1088 l 467 1129 z "},"Ż":{"ha":827,"x_min":-22,"x_max":854,"o":"m 515 1120 q 478 1128 496 1120 q 446 1150 460 1137 q 425 1181 433 1164 q 418 1217 417 1198 q 428 1262 418 1241 q 454 1299 438 1283 q 492 1323 471 1314 q 537 1333 513 1333 q 579 1325 560 1333 q 612 1304 599 1317 q 633 1274 626 1291 q 640 1238 641 1257 q 630 1193 640 1215 q 605 1156 621 1172 q 566 1130 589 1139 q 515 1120 543 1120 m -22 60 l 550 855 l 649 956 l 310 947 l 227 772 l 128 787 l 164 1038 l 835 1038 l 854 979 l 286 182 l 195 83 l 576 99 l 682 297 l 779 276 l 718 0 l -1 0 l -22 60 z "},"ľ":{"ha":513,"x_min":77,"x_max":632,"o":"m 77 79 q 78 106 77 90 q 81 132 80 121 l 201 1006 l 115 1036 l 129 1092 l 355 1120 l 389 1102 l 258 142 q 259 104 255 118 q 277 90 264 90 q 302 97 288 90 q 345 128 317 104 l 365 86 q 345 62 360 79 q 308 30 330 46 q 255 0 285 13 q 189 -12 224 -12 q 144 -7 165 -12 q 109 9 124 -2 q 85 37 94 20 q 77 79 77 55 m 463 706 l 459 723 q 479 813 471 760 q 490 924 487 866 q 490 964 491 943 q 487 1003 490 985 q 481 1037 485 1022 q 472 1060 477 1053 l 485 1088 l 608 1120 q 621 1097 616 1112 q 628 1063 625 1082 q 631 1022 631 1044 q 631 978 632 1000 q 620 893 628 936 q 597 813 611 851 q 566 742 584 774 q 528 686 548 709 l 463 706 z "},"ń":{"ha":870,"x_min":74,"x_max":804,"o":"m 420 890 l 635 1182 l 749 1062 q 725 1032 743 1050 q 684 991 708 1013 q 632 946 661 969 q 575 902 604 923 q 520 865 547 882 q 473 842 494 849 l 420 890 m 162 653 l 93 693 l 104 753 l 313 789 l 347 772 l 335 631 q 390 694 360 665 q 454 744 420 723 q 525 777 488 765 q 600 789 562 789 q 668 778 637 789 q 721 744 699 768 q 755 680 743 720 q 767 584 767 641 q 764 534 767 564 q 755 471 760 505 q 744 405 750 438 q 733 342 738 371 q 724 289 728 317 q 714 235 719 262 q 707 181 710 208 q 703 133 704 155 q 708 99 703 109 q 724 89 714 89 q 747 95 734 89 q 784 120 760 101 l 804 77 q 784 55 799 71 q 747 25 770 40 q 693 -2 724 9 q 626 -14 663 -14 q 571 -6 593 -14 q 537 15 549 1 q 519 48 524 29 q 515 89 515 66 q 519 133 516 108 q 527 185 522 157 q 536 242 531 213 q 547 300 542 272 q 558 363 552 329 q 570 432 565 397 q 578 503 575 467 q 582 568 582 538 q 577 620 582 601 q 565 650 573 640 q 544 665 556 661 q 516 668 532 668 q 468 655 494 668 q 415 621 441 643 q 364 569 389 599 q 319 505 339 539 l 250 0 l 74 0 l 162 653 z "},"ĸ":{"ha":777,"x_min":75,"x_max":774,"o":"m 162 659 l 86 694 l 99 753 l 313 785 l 349 768 l 250 0 l 75 0 l 162 659 m 309 404 l 604 774 l 774 774 l 465 422 l 604 163 q 641 115 621 132 q 676 98 661 98 q 704 103 686 98 q 740 120 721 109 l 762 80 q 734 53 752 68 q 690 22 715 37 q 635 -3 665 7 q 571 -13 604 -13 q 500 6 527 -13 q 456 64 473 26 l 309 404 z "},"ĩ":{"ha":444,"x_min":43,"x_max":549,"o":"m 92 82 q 105 182 97 123 q 124 316 113 241 q 147 479 134 391 q 173 665 159 567 l 67 699 l 79 754 l 333 789 l 368 772 l 277 140 q 297 89 270 89 q 323 97 309 89 q 364 127 338 105 l 385 85 q 364 61 379 77 q 325 28 349 45 q 270 -1 302 12 q 201 -14 239 -14 q 116 11 144 -14 q 92 82 87 35 m 43 1015 q 73 1057 54 1036 q 114 1094 91 1078 q 162 1119 136 1109 q 214 1129 189 1129 q 257 1122 239 1129 q 291 1104 276 1115 q 318 1080 305 1093 q 342 1056 330 1067 q 367 1038 354 1045 q 396 1031 380 1031 q 430 1037 415 1031 q 457 1054 445 1044 q 480 1077 469 1065 q 500 1102 490 1090 l 549 1027 q 523 981 541 1003 q 483 941 506 958 q 434 914 460 924 q 379 904 407 904 q 330 911 350 904 q 295 929 310 918 q 269 952 280 940 q 245 976 257 965 q 219 995 233 987 q 185 1002 205 1002 q 158 997 172 1002 q 132 984 144 992 q 107 965 119 975 q 85 944 95 954 l 43 1015 z "},"ş":{"ha":596,"x_min":17,"x_max":554,"o":"m 45 149 q 75 129 56 140 q 117 108 94 118 q 169 92 140 98 q 227 85 197 85 q 268 88 247 85 q 307 101 290 92 q 336 129 325 111 q 348 175 348 146 q 338 220 348 199 q 313 259 329 240 q 274 295 296 277 q 227 330 252 312 q 183 367 207 345 q 138 418 159 389 q 104 484 117 448 q 90 565 90 521 q 113 661 90 619 q 176 731 136 703 q 268 774 215 760 q 379 789 320 789 q 434 786 406 789 q 486 780 462 784 q 528 772 509 777 q 554 764 546 768 l 527 637 q 510 653 522 643 q 478 673 497 663 q 435 689 460 682 q 380 696 410 696 q 339 692 359 696 q 302 677 319 688 q 276 651 286 667 q 263 611 265 635 q 269 566 262 587 q 292 526 277 545 q 329 487 307 506 q 378 448 351 467 q 430 404 404 427 q 477 352 456 380 q 510 288 497 323 q 522 210 522 253 q 505 126 522 163 q 459 63 488 90 q 392 19 431 36 q 309 -6 353 2 q 321 -71 317 -33 q 323 -144 326 -109 q 271 -280 317 -239 q 132 -321 224 -321 q 101 -320 118 -321 q 67 -316 83 -319 q 37 -310 50 -313 q 18 -302 23 -307 l 41 -206 q 63 -214 50 -211 q 92 -216 77 -216 q 136 -210 115 -216 q 173 -190 157 -204 q 199 -152 189 -176 q 212 -93 209 -128 q 213 -48 213 -68 q 210 -13 212 -28 q 149 -8 180 -12 q 92 2 119 -4 q 46 15 66 8 q 17 30 26 22 l 45 149 z "},"ﬀ":{"ha":959,"x_min":-155,"x_max":1091,"o":"m 168 677 l 79 677 l 91 737 l 187 780 l 197 839 q 235 956 208 902 q 301 1048 262 1009 q 390 1110 340 1088 q 498 1133 440 1133 q 555 1129 526 1133 q 612 1115 585 1126 l 570 998 q 555 1008 564 1002 q 535 1019 547 1014 q 509 1027 524 1024 q 477 1030 494 1030 q 433 1020 450 1030 q 403 988 415 1009 q 384 936 391 967 q 370 864 376 905 l 359 783 l 517 783 l 505 677 l 345 677 l 260 -17 q 229 -146 252 -86 q 168 -251 205 -206 q 80 -322 131 -296 q -35 -348 29 -348 q -72 -347 -54 -348 q -105 -344 -90 -346 q -134 -340 -121 -342 q -155 -336 -147 -338 l -118 -216 q -102 -223 -115 -218 q -72 -233 -89 -228 q -38 -242 -56 -238 q -9 -245 -21 -245 q 45 -207 24 -245 q 75 -98 65 -168 l 168 677 m 648 677 l 558 677 l 570 737 l 667 780 l 677 839 q 714 956 688 902 q 781 1048 741 1009 q 870 1110 820 1088 q 977 1133 920 1133 q 1035 1129 1005 1133 q 1091 1115 1064 1126 l 1050 998 q 1035 1008 1044 1002 q 1015 1019 1026 1014 q 988 1027 1003 1024 q 956 1030 974 1030 q 912 1020 930 1030 q 883 988 895 1009 q 863 936 871 967 q 850 864 856 905 l 839 783 l 997 783 l 984 677 l 825 677 l 740 -17 q 708 -146 731 -86 q 648 -251 685 -206 q 559 -322 610 -296 q 444 -348 509 -348 q 408 -347 426 -348 q 374 -344 390 -346 q 345 -340 358 -342 q 324 -336 332 -338 l 361 -216 q 378 -223 365 -218 q 407 -233 391 -228 q 441 -242 424 -238 q 471 -245 458 -245 q 524 -207 504 -245 q 554 -98 545 -168 l 648 677 z "},"ﬃ":{"ha":1403,"x_min":-155,"x_max":1375,"o":"m 1051 82 q 1064 182 1056 123 q 1083 316 1072 241 q 1106 479 1093 391 q 1132 665 1118 567 l 1026 699 l 1038 754 l 1292 789 l 1327 772 l 1236 140 q 1256 89 1229 89 q 1282 97 1267 89 q 1323 127 1297 105 l 1343 85 q 1323 61 1338 77 q 1284 28 1308 45 q 1229 -1 1261 12 q 1160 -14 1198 -14 q 1075 11 1103 -14 q 1051 82 1046 35 m 1254 924 q 1217 932 1234 924 q 1187 954 1200 941 q 1166 985 1174 968 q 1160 1022 1159 1003 q 1170 1066 1160 1046 q 1195 1103 1179 1087 q 1231 1127 1211 1118 q 1276 1137 1252 1137 q 1318 1129 1299 1137 q 1350 1108 1337 1121 q 1369 1078 1362 1095 q 1375 1043 1375 1061 q 1365 998 1374 1019 q 1341 960 1357 976 q 1304 934 1326 943 q 1254 924 1282 924 m 168 677 l 79 677 l 91 737 l 187 780 l 197 839 q 235 956 208 902 q 301 1048 262 1009 q 390 1110 340 1088 q 498 1133 440 1133 q 555 1129 526 1133 q 612 1115 585 1126 l 570 998 q 555 1008 564 1002 q 535 1019 547 1014 q 509 1027 524 1024 q 477 1030 494 1030 q 433 1020 450 1030 q 403 988 415 1009 q 384 936 391 967 q 370 864 376 905 l 359 783 l 517 783 l 505 677 l 345 677 l 260 -17 q 229 -146 252 -86 q 168 -251 205 -206 q 80 -322 131 -296 q -35 -348 29 -348 q -72 -347 -54 -348 q -105 -344 -90 -346 q -134 -340 -121 -342 q -155 -336 -147 -338 l -118 -216 q -102 -223 -115 -218 q -72 -233 -89 -228 q -38 -242 -56 -238 q -9 -245 -21 -245 q 45 -207 24 -245 q 75 -98 65 -168 l 168 677 m 648 677 l 558 677 l 570 737 l 667 780 l 677 839 q 714 956 688 902 q 781 1048 741 1009 q 870 1110 820 1088 q 977 1133 920 1133 q 1035 1129 1005 1133 q 1091 1115 1064 1126 l 1050 998 q 1035 1008 1044 1002 q 1015 1019 1026 1014 q 988 1027 1003 1024 q 956 1030 974 1030 q 912 1020 930 1030 q 883 988 895 1009 q 863 936 871 967 q 850 864 856 905 l 839 783 l 997 783 l 984 677 l 825 677 l 740 -17 q 708 -146 731 -86 q 648 -251 685 -206 q 559 -322 610 -296 q 444 -348 509 -348 q 408 -347 426 -348 q 374 -344 390 -346 q 345 -340 358 -342 q 324 -336 332 -338 l 361 -216 q 378 -223 365 -218 q 407 -233 391 -228 q 441 -242 424 -238 q 471 -245 458 -245 q 524 -207 504 -245 q 554 -98 545 -168 l 648 677 z "},"ﬄ":{"ha":1380,"x_min":-155,"x_max":1348,"o":"m 1036 78 q 1037 104 1036 89 q 1040 130 1039 120 l 1160 1005 l 1074 1034 l 1088 1090 l 1314 1119 l 1348 1101 l 1217 140 q 1218 103 1214 117 q 1236 89 1223 89 q 1261 96 1246 89 q 1304 127 1276 103 l 1324 85 q 1304 61 1319 77 q 1266 28 1289 45 q 1214 -1 1244 12 q 1147 -14 1183 -14 q 1103 -8 1124 -14 q 1068 7 1083 -3 q 1044 36 1053 18 q 1036 78 1036 54 m 168 677 l 79 677 l 91 737 l 187 780 l 197 839 q 235 956 208 902 q 301 1048 262 1009 q 390 1110 340 1088 q 498 1133 440 1133 q 555 1129 526 1133 q 612 1115 585 1126 l 570 998 q 555 1008 564 1002 q 535 1019 547 1014 q 509 1027 524 1024 q 477 1030 494 1030 q 433 1020 450 1030 q 403 988 415 1009 q 384 936 391 967 q 370 864 376 905 l 359 783 l 517 783 l 505 677 l 345 677 l 260 -17 q 229 -146 252 -86 q 168 -251 205 -206 q 80 -322 131 -296 q -35 -348 29 -348 q -72 -347 -54 -348 q -105 -344 -90 -346 q -134 -340 -121 -342 q -155 -336 -147 -338 l -118 -216 q -102 -223 -115 -218 q -72 -233 -89 -228 q -38 -242 -56 -238 q -9 -245 -21 -245 q 45 -207 24 -245 q 75 -98 65 -168 l 168 677 m 648 677 l 558 677 l 570 737 l 667 780 l 677 839 q 714 956 688 902 q 781 1048 741 1009 q 870 1110 820 1088 q 977 1133 920 1133 q 1035 1129 1005 1133 q 1091 1115 1064 1126 l 1050 998 q 1035 1008 1044 1002 q 1015 1019 1026 1014 q 988 1027 1003 1024 q 956 1030 974 1030 q 912 1020 930 1030 q 883 988 895 1009 q 863 936 871 967 q 850 864 856 905 l 839 783 l 997 783 l 984 677 l 825 677 l 740 -17 q 708 -146 731 -86 q 648 -251 685 -206 q 559 -322 610 -296 q 444 -348 509 -348 q 408 -347 426 -348 q 374 -344 390 -346 q 345 -340 358 -342 q 324 -336 332 -338 l 361 -216 q 378 -223 365 -218 q 407 -233 391 -228 q 441 -242 424 -238 q 471 -245 458 -245 q 524 -207 504 -245 q 554 -98 545 -168 l 648 677 z "},"℮":{"ha":954,"x_min":81,"x_max":880,"o":"m 297 163 q 396 102 338 120 q 522 84 454 84 q 600 91 562 84 q 671 109 638 98 q 731 133 705 120 q 776 157 758 145 l 814 67 q 758 37 791 52 q 683 13 724 23 q 599 -4 643 2 q 512 -11 555 -11 q 330 21 410 -11 q 195 113 250 53 q 111 259 140 173 q 81 455 81 346 q 108 639 81 555 q 188 785 134 724 q 321 882 241 847 q 511 920 402 918 q 652 897 587 921 q 768 827 718 873 q 848 714 818 781 q 880 564 878 648 q 880 484 880 520 q 873 422 879 448 l 297 422 l 297 163 m 675 521 l 675 774 q 604 811 646 798 q 502 825 562 825 q 388 806 439 825 q 297 744 336 787 l 297 521 l 675 521 z "},"№":{"ha":1714,"x_min":-2,"x_max":1695,"o":"m 1090 681 q 1109 792 1093 742 q 1150 883 1125 843 q 1208 952 1175 923 q 1277 1001 1240 982 q 1352 1030 1314 1021 q 1428 1040 1391 1040 q 1544 1018 1493 1040 q 1629 956 1594 996 q 1679 858 1663 916 q 1691 728 1695 800 q 1672 612 1689 664 q 1630 520 1656 561 q 1571 451 1605 480 q 1502 404 1538 422 q 1428 376 1466 385 q 1354 367 1390 367 q 1239 389 1289 367 q 1154 452 1188 411 q 1103 551 1120 493 q 1090 681 1086 609 m 3 65 l 103 85 l 215 948 l 104 964 l 113 1035 l 437 1035 l 704 349 l 764 173 l 852 948 l 741 964 l 747 1035 l 1080 1035 l 1073 964 l 977 948 l 855 0 l 656 0 l 387 688 l 317 873 l 234 85 l 358 65 l 353 0 l -2 0 l 3 65 m 1250 682 q 1253 587 1247 630 q 1273 513 1259 544 q 1311 467 1288 483 q 1367 450 1335 450 q 1432 466 1403 450 q 1482 515 1461 482 q 1515 601 1503 549 q 1530 726 1527 652 q 1527 821 1533 779 q 1506 894 1520 864 q 1469 940 1492 924 q 1414 956 1446 956 q 1340 934 1370 956 q 1291 874 1310 912 q 1262 787 1272 837 q 1250 682 1253 738 m 1050 111 l 1595 111 l 1587 0 l 1042 0 l 1050 111 z "},"′":{"ha":422,"x_min":193,"x_max":412,"o":"m 250 1208 l 412 1208 l 307 807 l 193 807 l 250 1208 z "},"″":{"ha":703,"x_min":195,"x_max":694,"o":"m 252 1208 l 414 1208 l 309 807 l 195 807 l 252 1208 m 532 1208 l 694 1208 l 589 807 l 475 807 l 532 1208 z "},"‛":{"ha":469,"x_min":136,"x_max":428,"o":"m 275 628 q 222 668 247 642 q 177 727 197 694 q 147 800 158 761 q 136 882 136 840 q 152 978 136 930 q 197 1064 168 1025 q 269 1132 227 1103 q 363 1173 311 1161 l 428 1058 l 419 1030 q 361 1005 387 1025 q 317 957 335 985 q 289 896 299 929 q 279 833 279 863 q 283 790 279 810 q 295 752 288 769 q 313 721 302 734 q 338 701 324 707 l 333 686 l 275 628 l 275 628 z "},"‼":{"ha":894,"x_min":82,"x_max":871,"o":"m 257 1206 l 454 1206 l 284 345 l 168 345 l 257 1206 m 83 83 q 97 131 85 109 q 126 168 109 153 q 165 192 144 184 q 208 201 187 201 q 250 193 233 201 q 279 171 268 184 q 295 140 290 158 q 299 104 300 123 q 286 53 298 75 q 255 16 273 31 q 215 -6 237 1 q 170 -14 193 -14 q 136 -7 152 -14 q 107 13 119 0 q 89 43 95 25 q 83 83 82 61 m 675 1206 l 871 1206 l 702 345 l 586 345 l 675 1206 m 501 83 q 514 131 503 109 q 544 168 526 153 q 583 192 562 184 q 626 201 605 201 q 668 193 650 201 q 697 171 686 184 q 713 140 708 158 q 717 104 718 123 q 703 53 715 75 q 673 16 691 31 q 632 -6 654 1 q 588 -14 610 -14 q 553 -7 570 -14 q 525 13 537 0 q 506 43 513 25 q 501 83 500 61 z "},"ā":{"ha":810,"x_min":49,"x_max":758,"o":"m 49 276 q 62 396 49 335 q 101 514 75 457 q 165 621 127 571 q 254 708 203 671 q 366 767 304 745 q 501 789 428 789 q 539 786 519 789 q 578 781 559 784 q 616 772 597 777 q 649 762 634 767 l 741 789 l 652 140 q 657 101 649 113 q 676 89 665 89 q 700 95 686 89 q 737 120 713 101 l 758 77 q 738 55 753 70 q 702 24 724 39 q 650 -2 680 9 q 587 -14 621 -14 q 512 9 540 -14 q 486 78 484 31 l 485 80 q 447 45 469 62 q 400 15 426 28 q 344 -6 374 2 q 280 -14 314 -14 q 176 9 220 -14 q 104 70 132 31 q 62 162 76 109 q 49 276 49 215 m 340 94 q 381 100 361 94 q 419 117 401 106 q 453 141 437 127 q 481 170 469 155 l 551 689 q 482 700 521 700 q 402 681 437 700 q 339 631 366 663 q 292 559 311 600 q 259 472 272 517 q 241 379 247 426 q 235 288 235 332 q 263 145 235 196 q 340 94 292 94 m 308 1081 l 674 1081 l 673 960 l 307 960 l 308 1081 z "},"ă":{"ha":810,"x_min":49,"x_max":758,"o":"m 49 276 q 62 396 49 335 q 101 514 75 457 q 165 621 127 571 q 254 708 203 671 q 366 767 304 745 q 501 789 428 789 q 539 786 519 789 q 578 781 559 784 q 616 772 597 777 q 649 762 634 767 l 741 789 l 652 140 q 657 101 649 113 q 676 89 665 89 q 700 95 686 89 q 737 120 713 101 l 758 77 q 738 55 753 70 q 702 24 724 39 q 650 -2 680 9 q 587 -14 621 -14 q 512 9 540 -14 q 486 78 484 31 l 485 80 q 447 45 469 62 q 400 15 426 28 q 344 -6 374 2 q 280 -14 314 -14 q 176 9 220 -14 q 104 70 132 31 q 62 162 76 109 q 49 276 49 215 m 340 94 q 381 100 361 94 q 419 117 401 106 q 453 141 437 127 q 481 170 469 155 l 551 689 q 482 700 521 700 q 402 681 437 700 q 339 631 366 663 q 292 559 311 600 q 259 472 272 517 q 241 379 247 426 q 235 288 235 332 q 263 145 235 196 q 340 94 292 94 m 509 882 q 417 901 455 882 q 353 951 378 920 q 317 1022 328 983 q 305 1101 305 1061 q 307 1130 305 1116 l 406 1130 q 406 1118 406 1124 q 406 1104 406 1112 q 414 1070 408 1088 q 431 1038 419 1053 q 462 1015 442 1024 q 513 1005 482 1005 q 574 1018 550 1005 q 612 1050 597 1031 q 633 1090 626 1069 q 643 1130 640 1112 l 739 1130 q 739 1119 739 1124 q 739 1107 739 1113 q 720 1027 736 1067 q 674 955 703 987 q 604 902 646 922 q 509 882 563 882 z "},"ǽ":{"ha":1162,"x_min":50,"x_max":1128,"o":"m 562 890 l 777 1182 l 890 1062 q 866 1032 884 1050 q 825 991 849 1013 q 773 946 802 969 q 716 902 745 923 q 661 865 688 882 q 614 842 635 849 l 562 890 m 254 -14 q 157 8 196 -14 q 94 67 118 30 q 60 156 71 105 q 50 266 50 208 q 64 387 50 325 q 106 506 79 448 q 175 616 134 564 q 269 706 216 667 q 386 766 321 744 q 526 789 450 789 q 599 782 561 789 q 667 765 637 774 l 736 789 l 726 731 q 819 774 770 759 q 922 789 867 789 q 1014 775 975 789 q 1078 739 1053 762 q 1115 685 1103 716 q 1128 618 1127 654 q 1107 520 1128 564 q 1051 443 1086 477 q 969 385 1015 409 q 876 344 924 360 q 781 319 828 328 q 697 311 734 311 q 702 223 696 262 q 722 155 707 183 q 761 110 736 126 q 823 94 786 94 q 946 123 891 94 q 1046 197 1002 152 l 1084 134 q 1042 87 1069 113 q 976 39 1015 61 q 887 1 937 16 q 779 -14 838 -14 q 682 -1 724 -14 q 608 36 640 12 q 556 92 577 59 q 524 165 535 125 q 479 103 505 134 q 418 45 452 71 q 343 3 385 20 q 254 -14 302 -14 m 699 389 q 750 397 722 390 q 806 416 778 404 q 860 447 833 429 q 906 489 886 465 q 938 542 926 513 q 949 604 950 570 q 930 679 948 654 q 880 703 913 703 q 826 688 850 703 q 782 648 802 673 q 749 591 763 623 q 724 523 734 558 q 708 453 714 488 q 699 389 702 418 m 311 102 q 372 119 343 102 q 427 159 401 135 q 473 213 452 184 q 508 267 494 241 l 508 286 l 496 273 l 562 694 q 538 699 550 698 q 513 700 526 700 q 426 681 465 700 q 356 629 387 661 q 303 553 326 596 q 265 464 280 511 q 243 369 250 417 q 235 277 235 321 q 239 207 235 239 q 253 152 243 175 q 276 115 262 128 q 311 102 291 102 z "},"ḃ":{"ha":807,"x_min":63,"x_max":757,"o":"m 193 1006 l 126 1036 l 140 1093 l 345 1119 l 380 1101 l 327 701 q 364 733 343 718 q 410 762 385 749 q 464 781 435 774 q 525 789 492 789 q 627 768 584 789 q 700 709 671 747 q 743 616 728 671 q 757 495 757 562 q 743 372 757 433 q 703 254 730 311 q 638 149 677 197 q 550 64 600 100 q 439 7 500 28 q 309 -14 379 -14 q 266 -11 288 -14 q 222 -4 244 -8 q 181 5 201 0 q 146 16 161 11 l 63 -14 l 193 1006 m 245 90 q 283 78 263 81 q 328 75 304 75 q 407 93 372 75 q 468 141 441 111 q 515 213 495 172 q 547 300 534 254 q 566 395 559 346 q 572 490 572 444 q 565 568 572 532 q 545 628 558 603 q 511 667 531 653 q 466 681 492 681 q 420 673 442 681 q 378 651 397 665 q 341 621 358 637 q 311 586 324 604 l 245 90 m 583 924 q 546 932 564 924 q 516 954 529 941 q 496 985 503 968 q 489 1022 488 1003 q 499 1066 490 1046 q 524 1103 509 1087 q 561 1127 540 1118 q 605 1137 581 1137 q 647 1129 628 1137 q 679 1108 666 1121 q 698 1078 692 1095 q 704 1043 705 1061 q 695 998 703 1019 q 671 960 686 976 q 633 934 655 943 q 583 924 611 924 z "},"ĉ":{"ha":626,"x_min":49,"x_max":694,"o":"m 203 872 l 438 1126 l 559 1126 l 694 872 l 627 833 l 481 991 l 258 833 l 203 872 m 50 298 q 60 411 49 353 q 95 523 72 469 q 153 626 118 577 q 234 710 188 674 q 339 768 281 747 q 468 789 397 789 q 509 787 488 789 q 552 781 531 785 q 594 772 574 778 q 629 760 614 766 l 581 588 q 547 613 566 597 q 508 646 528 630 q 467 674 488 662 q 428 686 446 686 q 358 659 393 686 q 295 583 323 632 q 251 465 268 534 q 236 312 235 396 q 245 214 237 255 q 271 148 254 174 q 311 110 287 122 q 365 98 334 98 q 417 103 393 98 q 462 120 441 109 q 503 145 484 130 q 544 180 523 161 l 578 117 q 541 76 565 99 q 481 34 516 54 q 401 0 446 14 q 302 -14 357 -14 q 197 7 243 -14 q 118 67 151 27 q 68 165 85 106 q 50 298 50 223 z "},"č":{"ha":626,"x_min":49,"x_max":720,"o":"m 229 1086 l 294 1126 l 446 972 q 471 991 454 979 q 509 1018 488 1003 q 554 1049 530 1033 q 600 1080 578 1065 q 638 1107 621 1095 q 663 1126 654 1119 l 720 1087 l 495 846 l 376 846 l 229 1086 m 50 298 q 60 411 49 353 q 95 523 72 469 q 153 626 118 577 q 234 710 188 674 q 339 768 281 747 q 468 789 397 789 q 509 787 488 789 q 552 781 531 785 q 594 772 574 778 q 629 760 614 766 l 581 588 q 547 613 566 597 q 508 646 528 630 q 467 674 488 662 q 428 686 446 686 q 358 659 393 686 q 295 583 323 632 q 251 465 268 534 q 236 312 235 396 q 245 214 237 255 q 271 148 254 174 q 311 110 287 122 q 365 98 334 98 q 417 103 393 98 q 462 120 441 109 q 503 145 484 130 q 544 180 523 161 l 578 117 q 541 76 565 99 q 481 34 516 54 q 401 0 446 14 q 302 -14 357 -14 q 197 7 243 -14 q 118 67 151 27 q 68 165 85 106 q 50 298 50 223 z "},"ċ":{"ha":626,"x_min":49,"x_max":629,"o":"m 50 298 q 60 411 49 353 q 95 523 72 469 q 153 626 118 577 q 234 710 188 674 q 339 768 281 747 q 468 789 397 789 q 509 787 488 789 q 552 781 531 785 q 594 772 574 778 q 629 760 614 766 l 581 588 q 547 613 566 597 q 508 646 528 630 q 467 674 488 662 q 428 686 446 686 q 358 659 393 686 q 295 583 323 632 q 251 465 268 534 q 236 312 235 396 q 245 214 237 255 q 271 148 254 174 q 311 110 287 122 q 365 98 334 98 q 417 103 393 98 q 462 120 441 109 q 503 145 484 130 q 544 180 523 161 l 578 117 q 541 76 565 99 q 481 34 516 54 q 401 0 446 14 q 302 -14 357 -14 q 197 7 243 -14 q 118 67 151 27 q 68 165 85 106 q 50 298 50 223 m 456 924 q 419 932 437 924 q 389 954 402 941 q 369 985 376 968 q 362 1022 361 1003 q 372 1066 363 1046 q 397 1103 382 1087 q 434 1127 413 1118 q 478 1137 454 1137 q 520 1129 501 1137 q 552 1108 539 1121 q 571 1078 565 1095 q 577 1043 578 1061 q 568 998 576 1019 q 544 960 559 976 q 506 934 528 943 q 456 924 484 924 z "},"ḋ":{"ha":825,"x_min":49,"x_max":805,"o":"m 277 -14 q 174 9 217 -14 q 103 70 131 31 q 62 162 75 109 q 49 276 49 215 q 61 396 49 335 q 99 514 74 457 q 162 621 125 571 q 250 708 200 671 q 362 767 300 745 q 498 789 424 789 q 538 786 517 789 q 579 779 559 783 l 613 1005 l 518 1034 l 532 1090 l 768 1119 l 805 1101 l 666 141 q 667 103 663 117 q 685 89 671 89 q 708 95 694 89 q 745 120 721 101 l 766 78 q 746 56 760 71 q 710 26 732 41 q 660 -2 688 10 q 595 -14 631 -14 q 518 14 543 -14 q 495 98 494 41 q 458 57 479 77 q 409 22 436 37 q 348 -4 381 6 q 277 -14 315 -14 m 336 94 q 382 102 360 94 q 425 124 405 111 q 461 156 445 138 q 491 191 478 173 l 565 682 q 525 696 547 692 q 479 700 503 700 q 399 681 435 700 q 336 631 363 663 q 289 557 309 599 q 258 469 270 515 q 240 376 245 423 q 234 285 234 328 q 261 143 234 193 q 336 94 288 94 m 309 924 q 272 932 289 924 q 241 954 254 941 q 221 985 229 968 q 214 1022 214 1003 q 224 1066 215 1046 q 250 1103 234 1087 q 286 1127 265 1118 q 330 1137 307 1137 q 372 1129 353 1137 q 404 1108 391 1121 q 424 1078 417 1095 q 429 1043 430 1061 q 420 998 429 1019 q 396 960 412 976 q 358 934 380 943 q 309 924 336 924 z "},"ď":{"ha":981,"x_min":49,"x_max":1038,"o":"m 277 -14 q 174 9 217 -14 q 103 70 131 31 q 62 162 75 109 q 49 276 49 215 q 61 396 49 335 q 99 514 74 457 q 162 621 125 571 q 250 708 200 671 q 362 767 300 745 q 498 789 424 789 q 538 786 517 789 q 579 779 559 783 l 613 1005 l 518 1034 l 532 1090 l 768 1119 l 805 1101 l 666 141 q 667 103 663 117 q 685 89 671 89 q 708 95 694 89 q 745 120 721 101 l 766 78 q 746 56 760 71 q 710 26 732 41 q 660 -2 688 10 q 595 -14 631 -14 q 518 14 543 -14 q 495 98 494 41 q 458 57 479 77 q 409 22 436 37 q 348 -4 381 6 q 277 -14 315 -14 m 336 94 q 382 102 360 94 q 425 124 405 111 q 461 156 445 138 q 491 191 478 173 l 565 682 q 525 696 547 692 q 479 700 503 700 q 399 681 435 700 q 336 631 363 663 q 289 557 309 599 q 258 469 270 515 q 240 376 245 423 q 234 285 234 328 q 261 143 234 193 q 336 94 288 94 m 869 706 l 865 723 q 884 813 876 760 q 896 924 892 866 q 896 964 897 943 q 893 1003 895 985 q 886 1037 890 1022 q 878 1060 882 1053 l 890 1088 l 1014 1120 q 1026 1097 1021 1112 q 1034 1063 1031 1082 q 1037 1022 1036 1044 q 1036 978 1038 1000 q 1025 893 1034 936 q 1003 813 1017 851 q 971 742 989 774 q 933 686 954 709 l 869 706 z "},"ĝ":{"ha":804,"x_min":49,"x_max":755,"o":"m 263 872 l 498 1126 l 619 1126 l 755 872 l 688 833 l 541 991 l 319 833 l 263 872 m 109 -185 q 138 -200 119 -191 q 182 -217 157 -209 q 236 -231 208 -225 q 292 -237 264 -237 q 358 -232 331 -237 q 404 -212 385 -227 q 433 -170 422 -197 q 450 -98 444 -142 l 473 66 q 435 36 456 50 q 391 11 415 22 q 339 -7 366 -1 q 280 -14 311 -14 q 176 9 220 -14 q 104 70 132 31 q 62 162 76 109 q 49 276 49 215 q 62 396 49 335 q 101 514 75 457 q 165 621 127 571 q 254 708 203 671 q 366 767 304 745 q 501 789 428 789 q 586 779 544 789 q 659 759 629 770 l 754 789 l 632 -52 q 603 -153 624 -109 q 552 -230 582 -197 q 484 -285 522 -262 q 405 -322 446 -308 q 322 -342 364 -336 q 240 -348 279 -348 q 192 -346 216 -348 q 144 -339 167 -343 q 104 -330 122 -335 q 75 -321 85 -326 l 109 -185 m 339 94 q 382 101 361 94 q 422 120 404 109 q 458 148 441 132 q 488 180 475 163 l 562 685 q 524 696 545 693 q 482 700 504 700 q 402 681 437 700 q 339 631 366 663 q 292 557 311 599 q 259 469 272 515 q 241 376 247 423 q 235 285 235 328 q 263 143 235 193 q 339 94 291 94 z "}}}
